AlegreyaSans-Black.ufo
<glyph name="exclam" format="2">
  <advance width="274"/>
  <unicode hex="0021"/>
  <outline>
    <contour>
      <point x="225" y="672" type="line"/>
      <point x="68" y="661" type="line"/>
      <point x="51" y="639" type="line"/>
      <point x="68" y="261" type="line"/>
      <point x="87" y="243" type="line"/>
      <point x="196" y="259" type="line"/>
      <point x="248" y="649" type="line"/>
    </contour>
    <contour>
      <point x="129" y="190" type="curve" smooth="yes"/>
      <point x="66" y="190"/>
      <point x="27" y="150"/>
      <point x="27" y="86" type="curve" smooth="yes"/>
      <point x="27" y="25"/>
      <point x="60" y="-9"/>
      <point x="121" y="-9" type="curve" smooth="yes"/>
      <point x="183" y="-9"/>
      <point x="222" y="31"/>
      <point x="222" y="95" type="curve" smooth="yes"/>
      <point x="222" y="155"/>
      <point x="188" y="190"/>
    </contour>
  </outline>
</glyph>
<glyph name="percent" format="2">
  <advance width="889"/>
  <unicode hex="0025"/>
  <outline>
    <contour>
      <point x="160" y="516" type="move"/>
    </contour>
    <contour>
      <point x="198" y="654.915" type="curve" smooth="yes"/>
      <point x="84" y="654.915"/>
      <point x="20" y="584.46"/>
      <point x="20" y="458.19" type="curve" smooth="yes"/>
      <point x="20" y="343.815"/>
      <point x="77" y="280.68"/>
      <point x="179" y="280.68" type="curve" smooth="yes"/>
      <point x="292" y="280.68"/>
      <point x="355" y="350.22"/>
      <point x="355" y="476.49" type="curve" smooth="yes"/>
      <point x="355" y="591.78"/>
      <point x="299" y="654.915"/>
    </contour>
    <contour>
      <point x="186" y="535.05" type="curve" smooth="yes"/>
      <point x="226" y="535.05"/>
      <point x="241" y="514.92"/>
      <point x="241" y="460.935" type="curve" smooth="yes"/>
      <point x="241" y="412.44"/>
      <point x="227" y="391.395"/>
      <point x="187" y="391.395" type="curve" smooth="yes"/>
      <point x="148" y="391.395"/>
      <point x="135" y="414.27"/>
      <point x="135" y="467.34" type="curve" smooth="yes"/>
      <point x="135" y="516.75"/>
      <point x="148" y="535.05"/>
    </contour>
    <contour>
      <point x="617" y="694" type="line"/>
      <point x="153" y="-27" type="line"/>
      <point x="159" y="-44" type="line"/>
      <point x="241" y="-94" type="line"/>
      <point x="703" y="623" type="line"/>
      <point x="693" y="647" type="line"/>
    </contour>
    <contour>
      <point x="711" y="366.915" type="curve" smooth="yes"/>
      <point x="597" y="366.915"/>
      <point x="533" y="296.46"/>
      <point x="533" y="170.19" type="curve" smooth="yes"/>
      <point x="533" y="55.815"/>
      <point x="590" y="-7.32"/>
      <point x="692" y="-7.32" type="curve" smooth="yes"/>
      <point x="805" y="-7.32"/>
      <point x="868" y="62.22"/>
      <point x="868" y="188.49" type="curve" smooth="yes"/>
      <point x="868" y="303.78"/>
      <point x="812" y="366.915"/>
    </contour>
    <contour>
      <point x="699" y="247.05" type="curve" smooth="yes"/>
      <point x="739" y="247.05"/>
      <point x="754" y="226.92"/>
      <point x="754" y="172.935" type="curve" smooth="yes"/>
      <point x="754" y="124.44"/>
      <point x="740" y="103.395"/>
      <point x="700" y="103.395" type="curve" smooth="yes"/>
      <point x="661" y="103.395"/>
      <point x="648" y="126.27"/>
      <point x="648" y="179.34" type="curve" smooth="yes"/>
      <point x="648" y="228.75"/>
      <point x="661" y="247.05"/>
    </contour>
  </outline>
</glyph>
<glyph name="quotesingle" format="2">
  <advance width="250"/>
  <unicode hex="0027"/>
  <outline>
    <contour>
      <point x="204" y="646" type="line"/>
      <point x="53" y="637" type="line"/>
      <point x="63" y="369" type="line"/>
      <point x="78" y="358" type="line"/>
      <point x="166" y="372" type="line"/>
      <point x="214" y="634" type="line"/>
    </contour>
  </outline>
</glyph>
<glyph name="parenleft" format="2">
  <advance width="302"/>
  <unicode hex="0028"/>
  <outline>
    <contour>
      <point x="231" y="659" type="line"/>
      <point x="214" y="659" type="line"/>
      <point x="106" y="578"/>
      <point x="56" y="450"/>
      <point x="56" y="250" type="curve" smooth="yes"/>
      <point x="56" y="64"/>
      <point x="106" y="-57"/>
      <point x="214" y="-137" type="curve"/>
      <point x="231" y="-137" type="line"/>
      <point x="300" y="-80" type="line"/>
      <point x="300" y="-65" type="line"/>
      <point x="240" y="1"/>
      <point x="212" y="100"/>
      <point x="212" y="251" type="curve" smooth="yes"/>
      <point x="212" y="416"/>
      <point x="240" y="521"/>
      <point x="300" y="587" type="curve"/>
      <point x="300" y="602" type="line"/>
    </contour>
  </outline>
</glyph>
<glyph name="plus" format="2">
  <advance width="480"/>
  <unicode hex="002B"/>
  <outline>
    <contour>
      <point x="293" y="481" type="line"/>
      <point x="176" y="472" type="line"/>
      <point x="176" y="320" type="line"/>
      <point x="24" y="320" type="line"/>
      <point x="15" y="203" type="line"/>
      <point x="27" y="190" type="line"/>
      <point x="176" y="190" type="line"/>
      <point x="176" y="41" type="line"/>
      <point x="189" y="29" type="line"/>
      <point x="306" y="38" type="line"/>
      <point x="306" y="190" type="line"/>
      <point x="457" y="190" type="line"/>
      <point x="466" y="307" type="line"/>
      <point x="454" y="320" type="line"/>
      <point x="306" y="320" type="line"/>
      <point x="306" y="469" type="line"/>
    </contour>
  </outline>
</glyph>
<glyph name="hyphen" format="2">
  <advance width="299"/>
  <unicode hex="002D"/>
  <outline>
    <contour>
      <point x="259" y="340" type="line"/>
      <point x="25" y="302" type="line"/>
      <point x="25" y="182" type="line"/>
      <point x="39" y="168" type="line"/>
      <point x="274" y="206" type="line"/>
      <point x="273" y="326" type="line"/>
    </contour>
  </outline>
</glyph>
<glyph name="zero" format="2">
  <advance width="513"/>
  <unicode hex="0030"/>
  <outline>
    <contour>
      <point x="270" y="524" type="curve" smooth="yes"/>
      <point x="118" y="524"/>
      <point x="29" y="419"/>
      <point x="29" y="243" type="curve" smooth="yes"/>
      <point x="29" y="82"/>
      <point x="109" y="-12"/>
      <point x="245" y="-12" type="curve" smooth="yes"/>
      <point x="396" y="-12"/>
      <point x="484" y="92"/>
      <point x="484" y="270" type="curve" smooth="yes"/>
      <point x="484" y="431"/>
      <point x="405" y="524"/>
    </contour>
    <contour>
      <point x="255" y="342" type="curve" smooth="yes"/>
      <point x="311" y="342"/>
      <point x="334" y="317"/>
      <point x="334" y="247" type="curve" smooth="yes"/>
      <point x="334" y="184"/>
      <point x="312" y="159"/>
      <point x="256" y="159" type="curve" smooth="yes"/>
      <point x="200" y="159"/>
      <point x="180" y="187"/>
      <point x="180" y="256" type="curve" smooth="yes"/>
      <point x="180" y="320"/>
      <point x="200" y="342"/>
    </contour>
  </outline>
</glyph>
<glyph name="three" format="2">
  <advance width="453"/>
  <unicode hex="0033"/>
  <outline>
    <contour>
      <point x="219" y="524" type="curve" smooth="yes"/>
      <point x="151" y="524"/>
      <point x="77" y="504"/>
      <point x="15" y="469" type="curve"/>
      <point x="43" y="334" type="line"/>
      <point x="63" y="334" type="line"/>
      <point x="105" y="353"/>
      <point x="140" y="366"/>
      <point x="173" y="366" type="curve" smooth="yes"/>
      <point x="205" y="366"/>
      <point x="219" y="356"/>
      <point x="219" y="333" type="curve" smooth="yes"/>
      <point x="219" y="301"/>
      <point x="188" y="284"/>
      <point x="148" y="282" type="curve" smooth="yes"/>
      <point x="103" y="280" type="line"/>
      <point x="98" y="146" type="line"/>
      <point x="106" y="134" type="line"/>
      <point x="190" y="134" type="line"/>
      <point x="222" y="134"/>
      <point x="236" y="123"/>
      <point x="236" y="101" type="curve" smooth="yes"/>
      <point x="236" y="69"/>
      <point x="209" y="54"/>
      <point x="151" y="54" type="curve" smooth="yes"/>
      <point x="113" y="54"/>
      <point x="75" y="61"/>
      <point x="30" y="74" type="curve"/>
      <point x="17" y="62" type="line"/>
      <point x="27" y="-82" type="line"/>
      <point x="63" y="-89"/>
      <point x="107" y="-93"/>
      <point x="145" y="-93" type="curve" smooth="yes"/>
      <point x="312" y="-93"/>
      <point x="424" y="-18"/>
      <point x="424" y="94" type="curve" smooth="yes"/>
      <point x="424" y="163"/>
      <point x="394" y="206"/>
      <point x="330" y="229" type="curve"/>
      <point x="330" y="235" type="line"/>
      <point x="401" y="276"/>
      <point x="419" y="333"/>
      <point x="419" y="375" type="curve" smooth="yes"/>
      <point x="419" y="464"/>
      <point x="339" y="524"/>
    </contour>
  </outline>
</glyph>
<glyph name="seven" format="2">
  <advance width="450"/>
  <unicode hex="0037"/>
  <outline>
    <contour>
      <point x="20" y="519" type="line"/>
      <point x="8" y="356" type="line"/>
      <point x="17" y="341" type="line"/>
      <point x="128" y="353" type="line"/>
      <point x="237" y="353" type="line"/>
      <point x="57" y="-24" type="line"/>
      <point x="69" y="-54" type="line"/>
      <point x="225" y="-97" type="line"/>
      <point x="295" y="89" type="line"/>
      <point x="426" y="374" type="line"/>
      <point x="426" y="516" type="line"/>
      <point x="369" y="514" type="line"/>
      <point x="159" y="514" type="line"/>
    </contour>
  </outline>
</glyph>
<glyph name="H" format="2">
  <advance width="711"/>
  <unicode hex="0048"/>
  <anchor x="356" y="0" name="bottom"/>
  <anchor x="455" y="0" name="bottomright"/>
  <anchor x="356" y="324" name="center"/>
  <anchor x="356" y="647" name="top"/>
  <anchor x="20" y="647" name="topleft"/>
  <outline>
    <contour>
      <point x="659" y="647" type="line"/>
      <point x="455" y="647" type="line"/>
      <point x="465" y="190" type="line"/>
      <point x="455" y="0" type="line"/>
      <point x="656" y="0" type="line"/>
      <point x="648" y="210" type="line"/>
    </contour>
    <contour>
      <point x="273" y="647" type="line"/>
      <point x="69" y="647" type="line"/>
      <point x="79" y="190" type="line"/>
      <point x="69" y="0" type="line"/>
      <point x="270" y="0" type="line"/>
      <point x="262" y="210" type="line"/>
    </contour>
    <contour>
      <point x="242" y="403" type="line"/>
      <point x="242" y="238" type="line"/>
      <point x="356" y="242" type="line"/>
      <point x="477" y="240" type="line"/>
      <point x="477" y="402" type="line"/>
      <point x="368" y="400" type="line"/>
    </contour>
  </outline>
</glyph>
<glyph name="J" format="2">
  <advance width="362"/>
  <unicode hex="004A"/>
  <anchor x="164" y="647" name="top"/>
  <outline>
    <contour>
      <point x="304" y="647" type="line"/>
      <point x="100" y="647" type="line"/>
      <point x="110" y="193" type="line"/>
      <point x="110" y="130" type="line"/>
      <point x="110" y="72"/>
      <point x="87" y="40"/>
      <point x="18" y="7" type="curve"/>
      <point x="18" y="-9" type="line"/>
      <point x="70" y="-112" type="line"/>
      <point x="241" y="-62"/>
      <point x="295" y="1"/>
      <point x="295" y="124" type="curve"/>
      <point x="293" y="213" type="line"/>
    </contour>
    <contour>
      <point x="122" y="647" type="line"/>
      <point x="15" y="647" type="line"/>
      <point x="7" y="516" type="line"/>
      <point x="18" y="503" type="line"/>
      <point x="123" y="507" type="line"/>
    </contour>
  </outline>
</glyph>
<glyph name="L" format="2">
  <advance width="452"/>
  <unicode hex="004C"/>
  <anchor x="232" y="0" name="bottom"/>
  <anchor x="163" y="647" name="top"/>
  <outline>
    <contour>
      <point x="259" y="647" type="line"/>
      <point x="55" y="647" type="line"/>
      <point x="65" y="190" type="line"/>
      <point x="55" y="0" type="line"/>
      <point x="256" y="0" type="line"/>
      <point x="248" y="210" type="line"/>
    </contour>
    <contour>
      <point x="441" y="164" type="line"/>
      <point x="179" y="164" type="line"/>
      <point x="179" y="11" type="line"/>
      <point x="179" y="0" type="line"/>
      <point x="440" y="0" type="line"/>
      <point x="452" y="150" type="line"/>
    </contour>
  </outline>
</glyph>
<glyph name="O" format="2">
  <advance width="653"/>
  <unicode hex="004F"/>
  <anchor x="327" y="0" name="bottom"/>
  <anchor x="327" y="324" name="center"/>
  <anchor x="499" y="46" name="ogonek"/>
  <anchor x="327" y="647" name="top"/>
  <anchor x="20" y="647" name="topleft"/>
  <anchor x="633" y="647" name="topright"/>
  <outline>
    <contour>
      <point x="341" y="659" type="curve" smooth="yes"/>
      <point x="135" y="659"/>
      <point x="17" y="533"/>
      <point x="17" y="312" type="curve" smooth="yes"/>
      <point x="17" y="106"/>
      <point x="124" y="-12"/>
      <point x="312" y="-12" type="curve" smooth="yes"/>
      <point x="518" y="-12"/>
      <point x="636" y="116"/>
      <point x="636" y="340" type="curve" smooth="yes"/>
      <point x="636" y="543"/>
      <point x="529" y="659"/>
    </contour>
    <contour>
      <point x="323" y="499" type="curve" smooth="yes"/>
      <point x="404" y="499"/>
      <point x="426" y="458"/>
      <point x="426" y="297" type="curve" smooth="yes"/>
      <point x="426" y="169"/>
      <point x="405" y="136"/>
      <point x="330" y="136" type="curve" smooth="yes"/>
      <point x="249" y="136"/>
      <point x="227" y="177"/>
      <point x="227" y="339" type="curve" smooth="yes"/>
      <point x="227" y="466"/>
      <point x="248" y="499"/>
    </contour>
  </outline>
</glyph>
<glyph name="Q" format="2">
  <advance width="661"/>
  <unicode hex="0051"/>
  <outline>
    <contour>
      <point x="341" y="659" type="curve" smooth="yes"/>
      <point x="135" y="659"/>
      <point x="17" y="533"/>
      <point x="17" y="312" type="curve" smooth="yes"/>
      <point x="17" y="106"/>
      <point x="124" y="-12"/>
      <point x="312" y="-12" type="curve" smooth="yes"/>
      <point x="518" y="-12"/>
      <point x="636" y="116"/>
      <point x="636" y="340" type="curve" smooth="yes"/>
      <point x="636" y="543"/>
      <point x="529" y="659"/>
    </contour>
    <contour>
      <point x="441" y="74" type="curve"/>
      <point x="304" y="9" type="line"/>
      <point x="401" y="-78"/>
      <point x="511" y="-151"/>
      <point x="631" y="-212" type="curve"/>
      <point x="645" y="-205" type="line"/>
      <point x="686" y="-169"/>
      <point x="716" y="-127"/>
      <point x="741" y="-78" type="curve"/>
      <point x="733" y="-60" type="line"/>
      <point x="631" y="-26"/>
      <point x="535" y="19"/>
    </contour>
    <contour>
      <point x="323" y="499" type="curve" smooth="yes"/>
      <point x="404" y="499"/>
      <point x="426" y="458"/>
      <point x="426" y="297" type="curve" smooth="yes"/>
      <point x="426" y="169"/>
      <point x="405" y="136"/>
      <point x="330" y="136" type="curve" smooth="yes"/>
      <point x="249" y="136"/>
      <point x="227" y="177"/>
      <point x="227" y="339" type="curve" smooth="yes"/>
      <point x="227" y="466"/>
      <point x="248" y="499"/>
    </contour>
  </outline>
</glyph>
<glyph name="U" format="2">
  <advance width="653"/>
  <unicode hex="0055"/>
  <anchor x="518" y="49" name="ogonek"/>
  <anchor x="327" y="647" name="top"/>
  <outline>
    <contour>
      <point x="607" y="647" type="line"/>
      <point x="403" y="647" type="line"/>
      <point x="412" y="243" type="line" smooth="yes"/>
      <point x="413" y="175"/>
      <point x="387" y="146"/>
      <point x="324" y="146" type="curve" smooth="yes"/>
      <point x="262" y="146"/>
      <point x="237" y="175"/>
      <point x="238" y="243" type="curve" smooth="yes"/>
      <point x="247" y="647" type="line"/>
      <point x="46" y="647" type="line"/>
      <point x="52" y="319" type="line"/>
      <point x="49" y="216" type="line" smooth="yes"/>
      <point x="45" y="69"/>
      <point x="141" y="-12"/>
      <point x="316" y="-12" type="curve" smooth="yes"/>
      <point x="497" y="-12"/>
      <point x="598" y="69"/>
      <point x="599" y="216" type="curve" smooth="yes"/>
      <point x="600" y="319" type="line"/>
    </contour>
  </outline>
</glyph>
<glyph name="W" format="2">
  <advance width="914"/>
  <unicode hex="0057"/>
  <anchor x="451" y="647" name="top"/>
  <outline>
    <contour>
      <point x="914" y="647" type="line"/>
      <point x="730" y="647" type="line"/>
      <point x="712" y="535" type="line"/>
      <point x="633" y="201" type="line"/>
      <point x="621" y="201" type="line"/>
      <point x="553" y="527" type="line"/>
      <point x="539" y="647" type="line"/>
      <point x="337" y="647" type="line"/>
      <point x="371" y="496" type="line"/>
      <point x="296" y="201" type="line"/>
      <point x="284" y="201" type="line"/>
      <point x="221" y="547" type="line"/>
      <point x="211" y="647" type="line"/>
      <point x="17" y="647" type="line"/>
      <point x="169" y="0" type="line"/>
      <point x="382" y="0" type="line"/>
      <point x="438" y="234" type="line"/>
      <point x="450" y="234" type="line"/>
      <point x="511" y="0" type="line"/>
      <point x="723" y="0" type="line"/>
    </contour>
  </outline>
</glyph>
<glyph name="Y" format="2">
  <advance width="594"/>
  <unicode hex="0059"/>
  <anchor x="288" y="177" name="center"/>
  <anchor x="297" y="647" name="top"/>
  <outline>
    <contour>
      <point x="614" y="647" type="line"/>
      <point x="410" y="647" type="line"/>
      <point x="387" y="586" type="line"/>
      <point x="303" y="398" type="line"/>
      <point x="291" y="398" type="line"/>
      <point x="218" y="593" type="line"/>
      <point x="202" y="647" type="line"/>
      <point x="-8" y="647" type="line"/>
      <point x="254" y="82" type="line"/>
      <point x="318" y="82" type="line"/>
    </contour>
    <contour>
      <point x="388" y="283" type="line"/>
      <point x="195" y="283" type="line"/>
      <point x="200" y="170" type="line"/>
      <point x="190" y="0" type="line"/>
      <point x="390" y="0" type="line"/>
      <point x="382" y="170" type="line"/>
    </contour>
  </outline>
</glyph>
<glyph name="backslash" format="2">
  <advance width="280"/>
  <unicode hex="005C"/>
  <outline>
    <contour>
      <point x="180" y="-118" type="line"/>
      <point x="315" y="-118" type="line"/>
      <point x="326" y="-103" type="line"/>
      <point x="118" y="683" type="line"/>
      <point x="-13" y="683" type="line"/>
      <point x="-28" y="667" type="line"/>
    </contour>
  </outline>
</glyph>
<glyph name="d" format="2">
  <advance width="535"/>
  <unicode hex="0064"/>
  <anchor x="268" y="0" name="bottom"/>
  <anchor x="268" y="236" name="center"/>
  <anchor x="268" y="472" name="top"/>
  <anchor x="515" y="472" name="topright"/>
  <outline>
    <contour>
      <point x="489" y="702" type="line"/>
      <point x="295" y="689" type="line"/>
      <point x="298" y="478" type="line"/>
      <point x="283" y="480"/>
      <point x="270" y="481"/>
      <point x="261" y="481" type="curve" smooth="yes"/>
      <point x="111" y="481"/>
      <point x="14" y="397"/>
      <point x="14" y="229" type="curve" smooth="yes"/>
      <point x="14" y="84"/>
      <point x="89" y="-9"/>
      <point x="217" y="-9" type="curve"/>
      <point x="252" y="8"/>
      <point x="283" y="30"/>
      <point x="311" y="60" type="curve"/>
      <point x="318" y="60" type="line"/>
      <point x="337" y="16"/>
      <point x="372" y="-7"/>
      <point x="413" y="-10" type="curve"/>
      <point x="455" y="-7"/>
      <point x="482" y="3"/>
      <point x="506" y="20" type="curve"/>
      <point x="523" y="120" type="line"/>
      <point x="511" y="130" type="line"/>
      <point x="504" y="128"/>
      <point x="499" y="127"/>
      <point x="494" y="127" type="curve" smooth="yes"/>
      <point x="484" y="127"/>
      <point x="481" y="134"/>
      <point x="481" y="149" type="curve" smooth="yes"/>
      <point x="480" y="210" type="line"/>
    </contour>
    <contour>
      <point x="255" y="352" type="curve" smooth="yes"/>
      <point x="269" y="352"/>
      <point x="284" y="349"/>
      <point x="300" y="342" type="curve"/>
      <point x="302" y="191" type="line"/>
      <point x="301" y="155" type="line"/>
      <point x="287" y="142"/>
      <point x="271" y="135"/>
      <point x="254" y="135" type="curve" smooth="yes"/>
      <point x="214" y="135"/>
      <point x="196" y="172"/>
      <point x="196" y="265" type="curve" smooth="yes"/>
      <point x="196" y="334"/>
      <point x="212" y="352"/>
    </contour>
  </outline>
</glyph>
<glyph name="e" format="2">
  <advance width="485"/>
  <unicode hex="0065"/>
  <anchor x="272" y="0" name="bottom"/>
  <anchor x="424" y="9" name="ogonek"/>
  <anchor x="252" y="471" name="top"/>
  <outline>
    <contour>
      <point x="277" y="-12" type="curve" smooth="yes"/>
      <point x="322" y="-12"/>
      <point x="371" y="-5"/>
      <point x="424" y="9" type="curve"/>
      <point x="454" y="141" type="line"/>
      <point x="440" y="151" type="line"/>
      <point x="371" y="133"/>
      <point x="330" y="126"/>
      <point x="297" y="126" type="curve" smooth="yes"/>
      <point x="221" y="126"/>
      <point x="189" y="161"/>
      <point x="189" y="244" type="curve" smooth="yes"/>
      <point x="189" y="322"/>
      <point x="210" y="359"/>
      <point x="255" y="359" type="curve" smooth="yes"/>
      <point x="287" y="359"/>
      <point x="304" y="340"/>
      <point x="304" y="306" type="curve"/>
      <point x="302" y="292" type="line"/>
      <point x="168" y="287" type="line"/>
      <point x="168" y="194" type="line"/>
      <point x="442" y="196" type="line"/>
      <point x="463" y="221" type="line"/>
      <point x="493" y="382"/>
      <point x="416" y="483"/>
      <point x="261" y="483" type="curve" smooth="yes"/>
      <point x="108" y="483"/>
      <point x="14" y="390"/>
      <point x="14" y="236" type="curve" smooth="yes"/>
      <point x="14" y="81"/>
      <point x="112" y="-12"/>
    </contour>
  </outline>
</glyph>
<glyph name="h" format="2">
  <advance width="549"/>
  <unicode hex="0068"/>
  <anchor x="275" y="0" name="bottom"/>
  <anchor x="272" y="236" name="center"/>
  <anchor x="138" y="660" name="top"/>
  <anchor x="262" y="472" name="topright"/>
  <outline>
    <contour>
      <point x="356" y="478" type="curve"/>
      <point x="308" y="462"/>
      <point x="272" y="437"/>
      <point x="239" y="404" type="curve"/>
      <point x="209" y="404" type="line"/>
      <point x="208" y="296" type="line"/>
      <point x="236" y="316"/>
      <point x="258" y="325"/>
      <point x="279" y="325" type="curve" smooth="yes"/>
      <point x="310" y="325"/>
      <point x="326" y="306"/>
      <point x="326" y="264" type="curve"/>
      <point x="316" y="0" type="line"/>
      <point x="511" y="0" type="line"/>
      <point x="504" y="210" type="line"/>
      <point x="508" y="346" type="line" smooth="yes"/>
      <point x="510" y="431"/>
      <point x="456" y="478"/>
    </contour>
    <contour>
      <point x="239" y="702" type="line"/>
      <point x="45" y="689" type="line"/>
      <point x="52" y="190" type="line"/>
      <point x="43" y="0" type="line"/>
      <point x="238" y="0" type="line"/>
      <point x="230" y="210" type="line"/>
    </contour>
  </outline>
</glyph>
<glyph name="m" format="2">
  <advance width="814"/>
  <unicode hex="006D"/>
  <anchor x="408" y="0" name="bottom"/>
  <anchor x="408" y="472" name="top"/>
  <outline>
    <contour>
      <point x="622" y="478" type="curve"/>
      <point x="571" y="462"/>
      <point x="530" y="437"/>
      <point x="496" y="404" type="curve"/>
      <point x="473" y="404" type="line"/>
      <point x="473" y="297" type="line"/>
      <point x="501" y="317"/>
      <point x="524" y="326"/>
      <point x="546" y="326" type="curve" smooth="yes"/>
      <point x="577" y="326"/>
      <point x="593" y="307"/>
      <point x="593" y="265" type="curve"/>
      <point x="583" y="0" type="line"/>
      <point x="776" y="0" type="line"/>
      <point x="769" y="210" type="line"/>
      <point x="773" y="346" type="line" smooth="yes"/>
      <point x="775" y="431"/>
      <point x="721" y="478"/>
    </contour>
    <contour>
      <point x="225" y="474" type="line"/>
      <point x="42" y="461" type="line"/>
      <point x="49" y="190" type="line"/>
      <point x="40" y="0" type="line"/>
      <point x="233" y="0" type="line"/>
      <point x="225" y="210" type="line"/>
    </contour>
    <contour>
      <point x="349" y="478" type="curve"/>
      <point x="301" y="462"/>
      <point x="265" y="437"/>
      <point x="232" y="404" type="curve"/>
      <point x="202" y="404" type="line"/>
      <point x="201" y="297" type="line"/>
      <point x="230" y="317"/>
      <point x="251" y="326"/>
      <point x="273" y="326" type="curve" smooth="yes"/>
      <point x="305" y="326"/>
      <point x="321" y="307"/>
      <point x="321" y="265" type="curve"/>
      <point x="311" y="0" type="line"/>
      <point x="504" y="0" type="line"/>
      <point x="496" y="210" type="line"/>
      <point x="500" y="346" type="line" smooth="yes"/>
      <point x="502" y="431"/>
      <point x="449" y="478"/>
    </contour>
  </outline>
</glyph>
<glyph name="o" format="2">
  <advance width="497"/>
  <unicode hex="006F"/>
  <anchor x="249" y="0" name="bottom"/>
  <anchor x="249" y="236" name="center"/>
  <anchor x="407" y="48" name="ogonek"/>
  <anchor x="251" y="472" name="top"/>
  <anchor x="477" y="472" name="topright"/>
  <outline>
    <contour>
      <point x="257" y="484" type="curve" smooth="yes"/>
      <point x="97" y="484"/>
      <point x="14" y="395"/>
      <point x="14" y="223" type="curve" smooth="yes"/>
      <point x="14" y="68"/>
      <point x="91" y="-12"/>
      <point x="240" y="-12" type="curve" smooth="yes"/>
      <point x="400" y="-12"/>
      <point x="483" y="76"/>
      <point x="483" y="247" type="curve" smooth="yes"/>
      <point x="483" y="403"/>
      <point x="406" y="484"/>
    </contour>
    <contour>
      <point x="243" y="353" type="curve" smooth="yes"/>
      <point x="290" y="353"/>
      <point x="300" y="327"/>
      <point x="300" y="211" type="curve" smooth="yes"/>
      <point x="300" y="131"/>
      <point x="292" y="114"/>
      <point x="254" y="114" type="curve" smooth="yes"/>
      <point x="206" y="114"/>
      <point x="196" y="140"/>
      <point x="196" y="257" type="curve" smooth="yes"/>
      <point x="196" y="336"/>
      <point x="204" y="353"/>
    </contour>
  </outline>
</glyph>
<glyph name="p" format="2">
  <advance width="529"/>
  <unicode hex="0070"/>
  <anchor x="266" y="0" name="bottom"/>
  <anchor x="266" y="472" name="top"/>
  <outline>
    <contour>
      <point x="329" y="479" type="curve"/>
      <point x="293" y="462"/>
      <point x="261" y="437"/>
      <point x="233" y="404" type="curve"/>
      <point x="209" y="404" type="line"/>
      <point x="209" y="301" type="line"/>
      <point x="229" y="318"/>
      <point x="246" y="325"/>
      <point x="265" y="325" type="curve" smooth="yes"/>
      <point x="312" y="325"/>
      <point x="332" y="292"/>
      <point x="332" y="217" type="curve" smooth="yes"/>
      <point x="332" y="141"/>
      <point x="311" y="108"/>
      <point x="262" y="108" type="curve" smooth="yes"/>
      <point x="207" y="108"/>
      <point x="130" y="150"/>
      <point x="76" y="210" type="curve"/>
      <point x="76" y="43" type="line"/>
      <point x="154" y="4"/>
      <point x="212" y="-12"/>
      <point x="273" y="-12" type="curve" smooth="yes"/>
      <point x="427" y="-12"/>
      <point x="515" y="83"/>
      <point x="515" y="248" type="curve" smooth="yes"/>
      <point x="515" y="394"/>
      <point x="446" y="479"/>
    </contour>
    <contour>
      <point x="226" y="474" type="line"/>
      <point x="41" y="461" type="line"/>
      <point x="48" y="190" type="line"/>
      <point x="40" y="-185" type="line"/>
      <point x="234" y="-185" type="line"/>
      <point x="226" y="210" type="line"/>
    </contour>
  </outline>
</glyph>
<glyph name="u" format="2">
  <advance width="536"/>
  <unicode hex="0075"/>
  <anchor x="507" y="20" name="ogonek"/>
  <anchor x="263" y="472" name="top"/>
  <outline>
    <contour>
      <point x="196" y="-6" type="curve"/>
      <point x="241" y="8"/>
      <point x="275" y="34"/>
      <point x="311" y="74" type="curve"/>
      <point x="339" y="74" type="line"/>
      <point x="324" y="177" type="line"/>
      <point x="299" y="155"/>
      <point x="287" y="148"/>
      <point x="264" y="148" type="curve" smooth="yes"/>
      <point x="236" y="148"/>
      <point x="223" y="163"/>
      <point x="223" y="203" type="curve" smooth="yes"/>
      <point x="223" y="474" type="line"/>
      <point x="38" y="461" type="line"/>
      <point x="44" y="229" type="line"/>
      <point x="41" y="126" type="line" smooth="yes"/>
      <point x="41" y="41"/>
      <point x="97" y="-6"/>
    </contour>
    <contour>
      <point x="407" y="-10" type="curve"/>
      <point x="445" y="-11"/>
      <point x="478" y="1"/>
      <point x="507" y="20" type="curve"/>
      <point x="524" y="120" type="line"/>
      <point x="512" y="130" type="line"/>
      <point x="505" y="128"/>
      <point x="500" y="127"/>
      <point x="495" y="127" type="curve" smooth="yes"/>
      <point x="485" y="127"/>
      <point x="481" y="133"/>
      <point x="481" y="148" type="curve"/>
      <point x="492" y="474" type="line"/>
      <point x="307" y="461" type="line"/>
      <point x="307" y="143" type="line"/>
      <point x="318" y="53"/>
      <point x="352" y="2"/>
    </contour>
  </outline>
</glyph>
<glyph name="w" format="2">
  <advance width="725"/>
  <unicode hex="0077"/>
  <anchor x="370" y="472" name="top"/>
  <outline>
    <contour>
      <point x="181" y="476" type="line"/>
      <point x="5" y="469" type="line"/>
      <point x="118" y="0" type="line"/>
      <point x="309" y="0" type="line"/>
      <point x="359" y="234" type="line"/>
      <point x="371" y="234" type="line"/>
      <point x="414" y="0" type="line"/>
      <point x="597" y="0" type="line"/>
      <point x="734" y="472" type="line"/>
      <point x="574" y="472" type="line"/>
      <point x="556" y="376" type="line"/>
      <point x="521" y="192" type="line"/>
      <point x="511" y="192" type="line"/>
      <point x="480" y="387" type="line"/>
      <point x="471" y="472" type="line"/>
      <point x="283" y="472" type="line"/>
      <point x="266" y="376" type="line"/>
      <point x="228" y="191" type="line"/>
      <point x="218" y="191" type="line"/>
      <point x="191" y="387" type="line"/>
    </contour>
  </outline>
</glyph>
<glyph name="y" format="2">
  <advance width="471"/>
  <unicode hex="0079"/>
  <anchor x="242" y="472" name="top"/>
  <outline>
    <contour>
      <point x="174" y="476" type="line"/>
      <point x="-12" y="469" type="line"/>
      <point x="159" y="0" type="line"/>
      <point x="106" y="-31"/>
      <point x="50" y="-50"/>
      <point x="-11" y="-59" type="curve"/>
      <point x="-18" y="-76" type="line"/>
      <point x="4" y="-119"/>
      <point x="31" y="-158"/>
      <point x="67" y="-192" type="curve"/>
      <point x="80" y="-194" type="line"/>
      <point x="233" y="-147"/>
      <point x="298" y="-87"/>
      <point x="343" y="49" type="curve" smooth="yes"/>
      <point x="481" y="472" type="line"/>
      <point x="317" y="472" type="line"/>
      <point x="298" y="368" type="line"/>
      <point x="251" y="189" type="line"/>
      <point x="241" y="189" type="line"/>
      <point x="190" y="386" type="line"/>
    </contour>
  </outline>
</glyph>
<glyph name="micro" format="2">
  <advance width="552"/>
  <unicode hex="00B5"/>
  <outline>
    <contour>
      <point x="49" y="-185" type="line"/>
      <point x="233" y="-185" type="line"/>
      <point x="213" y="84" type="line"/>
      <point x="233" y="210" type="line"/>
      <point x="233" y="474" type="line"/>
      <point x="48" y="461" type="line"/>
      <point x="53" y="190" type="line"/>
    </contour>
    <contour>
      <point x="258" y="-6" type="curve"/>
      <point x="284" y="18"/>
      <point x="304" y="44"/>
      <point x="321" y="74" type="curve"/>
      <point x="349" y="74" type="line"/>
      <point x="334" y="177" type="line"/>
      <point x="309" y="155"/>
      <point x="297" y="148"/>
      <point x="274" y="148" type="curve" smooth="yes"/>
      <point x="246" y="148"/>
      <point x="233" y="163"/>
      <point x="233" y="203" type="curve"/>
      <point x="108" y="124" type="line"/>
      <point x="106" y="40"/>
      <point x="163" y="-6"/>
    </contour>
    <contour>
      <point x="417" y="-10" type="curve"/>
      <point x="455" y="-11"/>
      <point x="488" y="1"/>
      <point x="517" y="20" type="curve"/>
      <point x="534" y="120" type="line"/>
      <point x="522" y="130" type="line"/>
      <point x="515" y="128"/>
      <point x="510" y="127"/>
      <point x="505" y="127" type="curve" smooth="yes"/>
      <point x="495" y="127"/>
      <point x="491" y="133"/>
      <point x="491" y="148" type="curve"/>
      <point x="502" y="474" type="line"/>
      <point x="317" y="461" type="line"/>
      <point x="317" y="143" type="line"/>
      <point x="328" y="53"/>
      <point x="362" y="2"/>
    </contour>
  </outline>
</glyph>
<glyph name="divide" format="2">
  <advance width="480"/>
  <unicode hex="00F7"/>
  <outline>
    <contour>
      <point x="454" y="320" type="line"/>
      <point x="24" y="320" type="line"/>
      <point x="15" y="203" type="line"/>
      <point x="27" y="190" type="line"/>
      <point x="457" y="190" type="line"/>
      <point x="466" y="307" type="line"/>
    </contour>
    <contour>
      <point x="253.524" y="172.42" type="curve" smooth="yes"/>
      <point x="201.99" y="172.42"/>
      <point x="170.088" y="139.7"/>
      <point x="170.088" y="87.348" type="curve" smooth="yes"/>
      <point x="170.088" y="37.45"/>
      <point x="197.082" y="9.638000000000002"/>
      <point x="246.98" y="9.638000000000002" type="curve" smooth="yes"/>
      <point x="297.696" y="9.638000000000002"/>
      <point x="329.59799999999996" y="42.358"/>
      <point x="329.59799999999996" y="94.71" type="curve" smooth="yes"/>
      <point x="329.59799999999996" y="143.79"/>
      <point x="301.786" y="172.42"/>
    </contour>
    <contour>
      <point x="253.524" y="497.41999999999996" type="curve" smooth="yes"/>
      <point x="201.99" y="497.41999999999996"/>
      <point x="170.088" y="464.7"/>
      <point x="170.088" y="412.348" type="curve" smooth="yes"/>
      <point x="170.088" y="362.45"/>
      <point x="197.082" y="334.638"/>
      <point x="246.98" y="334.638" type="curve" smooth="yes"/>
      <point x="297.696" y="334.638"/>
      <point x="329.59799999999996" y="367.358"/>
      <point x="329.59799999999996" y="419.71" type="curve" smooth="yes"/>
      <point x="329.59799999999996" y="468.78999999999996"/>
      <point x="301.786" y="497.41999999999996"/>
    </contour>
  </outline>
</glyph>
<glyph name="oslash" format="2">
  <advance width="497"/>
  <unicode hex="00F8"/>
  <anchor x="249" y="0" name="bottom"/>
  <anchor x="249" y="236" name="center"/>
  <anchor x="407" y="48" name="ogonek"/>
  <anchor x="249" y="472" name="top"/>
  <anchor x="477" y="472" name="topright"/>
  <outline>
    <contour>
      <point x="488" y="542" type="line"/>
      <point x="403" y="594" type="line"/>
      <point x="2" y="-63" type="line"/>
      <point x="6" y="-79" type="line"/>
      <point x="96" y="-132" type="line"/>
      <point x="497" y="525" type="line"/>
    </contour>
    <contour>
      <point x="257" y="484" type="curve" smooth="yes"/>
      <point x="97" y="484"/>
      <point x="14" y="395"/>
      <point x="14" y="223" type="curve" smooth="yes"/>
      <point x="14" y="68"/>
      <point x="91" y="-12"/>
      <point x="240" y="-12" type="curve" smooth="yes"/>
      <point x="400" y="-12"/>
      <point x="483" y="76"/>
      <point x="483" y="247" type="curve" smooth="yes"/>
      <point x="483" y="403"/>
      <point x="406" y="484"/>
    </contour>
    <contour>
      <point x="243" y="353" type="curve" smooth="yes"/>
      <point x="290" y="353"/>
      <point x="300" y="327"/>
      <point x="300" y="211" type="curve" smooth="yes"/>
      <point x="300" y="131"/>
      <point x="292" y="114"/>
      <point x="254" y="114" type="curve" smooth="yes"/>
      <point x="206" y="114"/>
      <point x="196" y="140"/>
      <point x="196" y="257" type="curve" smooth="yes"/>
      <point x="196" y="336"/>
      <point x="204" y="353"/>
    </contour>
  </outline>
</glyph>
<glyph name="gcommaaccent" format="2">
  <advance width="516"/>
  <unicode hex="0123"/>
  <outline>
    <contour>
      <point x="120" y="188" type="line"/>
      <point x="120" y="173" type="line"/>
      <point x="93" y="155"/>
      <point x="68" y="135"/>
      <point x="44" y="112" type="curve"/>
      <point x="43" y="-66"/>
      <point x="333" y="21"/>
      <point x="333" y="-54" type="curve" smooth="yes"/>
      <point x="333" y="-87"/>
      <point x="308" y="-95"/>
      <point x="265" y="-95" type="curve" smooth="yes"/>
      <point x="211" y="-95"/>
      <point x="186" y="-78"/>
      <point x="186" y="-47" type="curve" smooth="yes"/>
      <point x="186" y="-32"/>
      <point x="192" y="-20"/>
      <point x="205" y="-8" type="curve"/>
      <point x="113" y="20" type="line"/>
      <point x="113" y="3" type="line"/>
      <point x="84" y="-15"/>
      <point x="58" y="-36"/>
      <point x="35" y="-60" type="curve"/>
      <point x="35" y="-144"/>
      <point x="108" y="-197"/>
      <point x="248" y="-197" type="curve" smooth="yes"/>
      <point x="398" y="-197"/>
      <point x="493" y="-126"/>
      <point x="493" y="-20" type="curve" smooth="yes"/>
      <point x="493" y="164"/>
      <point x="197" y="85"/>
      <point x="197" y="145" type="curve" smooth="yes"/>
      <point x="197" y="149"/>
      <point x="198" y="154"/>
      <point x="203" y="161" type="curve"/>
    </contour>
    <contour>
      <point x="265" y="482" type="curve" smooth="yes"/>
      <point x="124" y="482"/>
      <point x="38" y="417"/>
      <point x="38" y="311" type="curve" smooth="yes"/>
      <point x="38" y="209"/>
      <point x="116" y="154"/>
      <point x="253" y="154" type="curve" smooth="yes"/>
      <point x="393" y="154"/>
      <point x="480" y="220"/>
      <point x="480" y="324" type="curve" smooth="yes"/>
      <point x="480" y="416"/>
      <point x="391" y="482"/>
    </contour>
    <contour>
      <point x="262" y="367" type="curve" smooth="yes"/>
      <point x="299" y="367"/>
      <point x="315" y="355"/>
      <point x="315" y="317" type="curve" smooth="yes"/>
      <point x="315" y="279"/>
      <point x="297" y="264"/>
      <point x="257" y="264" type="curve" smooth="yes"/>
      <point x="219" y="264"/>
      <point x="204" y="279"/>
      <point x="204" y="320" type="curve" smooth="yes"/>
      <point x="204" y="354"/>
      <point x="218" y="367"/>
    </contour>
    <contour>
      <point x="522" y="510" type="line"/>
      <point x="469" y="487"/>
      <point x="410" y="467"/>
      <point x="352" y="457" type="curve"/>
      <point x="461" y="349" type="line"/>
      <point x="473" y="376" type="line"/>
      <point x="494" y="377"/>
      <point x="511" y="378"/>
      <point x="535" y="382" type="curve"/>
      <point x="535" y="499" type="line"/>
    </contour>
    <contour>
      <point x="235.97" y="513.6919999999999" type="curve"/>
      <point x="277.64" y="529.4339999999999"/>
      <point x="316.53200000000004" y="553.5099999999999"/>
      <point x="351.72" y="579.4379999999999" type="curve"/>
      <point x="351.72" y="593.3279999999999" type="line"/>
      <point x="322.088" y="615.5519999999999"/>
      <point x="312.828" y="639.6279999999999"/>
      <point x="312.828" y="674.8159999999999" type="curve" smooth="yes"/>
      <point x="312.828" y="702.5959999999999"/>
      <point x="324.866" y="729.4499999999999"/>
      <point x="348.942" y="756.3039999999999" type="curve"/>
      <point x="346.164" y="767.4159999999999" type="line"/>
      <point x="285.974" y="806.308" type="line"/>
      <point x="214.672" y="740.5619999999999"/>
      <point x="180.41" y="682.2239999999999"/>
      <point x="180.41" y="621.108" type="curve" smooth="yes"/>
      <point x="180.41" y="572.9559999999999"/>
      <point x="197.078" y="539.6199999999999"/>
    </contour>
  </outline>
</glyph>
<glyph name="Hbar" format="2">
  <advance width="744"/>
  <unicode hex="0126"/>
  <anchor x="369" y="0" name="bottom"/>
  <anchor x="369" y="324" name="center"/>
  <anchor x="369" y="647" name="top"/>
  <anchor x="33" y="647" name="topleft"/>
  <outline>
    <contour>
      <point x="726" y="573" type="line"/>
      <point x="16" y="573" type="line"/>
      <point x="10" y="482" type="line"/>
      <point x="18" y="472" type="line"/>
      <point x="729" y="472" type="line"/>
      <point x="734" y="563" type="line"/>
    </contour>
    <contour>
      <point x="663" y="647" type="line"/>
      <point x="459" y="647" type="line"/>
      <point x="469" y="190" type="line"/>
      <point x="459" y="0" type="line"/>
      <point x="660" y="0" type="line"/>
      <point x="652" y="210" type="line"/>
    </contour>
    <contour>
      <point x="277" y="647" type="line"/>
      <point x="73" y="647" type="line"/>
      <point x="83" y="190" type="line"/>
      <point x="73" y="0" type="line"/>
      <point x="274" y="0" type="line"/>
      <point x="266" y="210" type="line"/>
    </contour>
    <contour>
      <point x="246" y="403" type="line"/>
      <point x="246" y="238" type="line"/>
      <point x="360" y="242" type="line"/>
      <point x="481" y="240" type="line"/>
      <point x="481" y="402" type="line"/>
      <point x="372" y="400" type="line"/>
    </contour>
  </outline>
</glyph>
<glyph name="idotless" format="2">
  <advance width="284"/>
  <unicode hex="0131"/>
  <anchor x="141" y="0" name="bottom"/>
  <anchor x="238" y="0" name="ogonek"/>
  <anchor x="141" y="472" name="top"/>
  <outline>
    <contour>
      <point x="43" y="0" type="line"/>
      <point x="238" y="0" type="line"/>
      <point x="230" y="210" type="line"/>
      <point x="239" y="474" type="line"/>
      <point x="45" y="461" type="line"/>
      <point x="52" y="190" type="line"/>
    </contour>
  </outline>
</glyph>
<glyph name="Lcaron" format="2">
  <advance width="519"/>
  <unicode hex="013D"/>
  <anchor x="232" y="0" name="bottom"/>
  <anchor x="163" y="647" name="top"/>
  <outline>
    <contour>
      <point x="216" y="197" type="move"/>
    </contour>
    <contour>
      <point x="259" y="647" type="line"/>
      <point x="55" y="647" type="line"/>
      <point x="65" y="190" type="line"/>
      <point x="55" y="0" type="line"/>
      <point x="256" y="0" type="line"/>
      <point x="248" y="210" type="line"/>
    </contour>
    <contour>
      <point x="441" y="164" type="line"/>
      <point x="179" y="164" type="line"/>
      <point x="179" y="11" type="line"/>
      <point x="179" y="0" type="line"/>
      <point x="440" y="0" type="line"/>
      <point x="452" y="150" type="line"/>
    </contour>
    <contour>
      <point x="489" y="601" type="line"/>
      <point x="350" y="593" type="line"/>
      <point x="360" y="355" type="line"/>
      <point x="373" y="345" type="line"/>
      <point x="455" y="358" type="line"/>
      <point x="499" y="590" type="line"/>
    </contour>
  </outline>
</glyph>
<glyph name="lcaron" format="2">
  <advance width="382"/>
  <unicode hex="013E"/>
  <anchor x="141" y="0" name="bottom"/>
  <anchor x="141" y="680" name="top"/>
  <anchor x="262" y="472" name="topright"/>
  <outline>
    <contour>
      <point x="302" y="88" type="move"/>
    </contour>
    <contour>
      <point x="239" y="702" type="line"/>
      <point x="45" y="689" type="line"/>
      <point x="52" y="190" type="line"/>
      <point x="43" y="0" type="line"/>
      <point x="238" y="0" type="line"/>
      <point x="230" y="210" type="line"/>
    </contour>
    <contour>
      <point x="409" y="641" type="line"/>
      <point x="270" y="633" type="line"/>
      <point x="280" y="395" type="line"/>
      <point x="293" y="385" type="line"/>
      <point x="375" y="398" type="line"/>
      <point x="419" y="630" type="line"/>
    </contour>
  </outline>
</glyph>
<glyph name="ldot" format="2">
  <advance width="399"/>
  <unicode hex="0140"/>
  <anchor x="141" y="0" name="bottom"/>
  <anchor x="141" y="680" name="top"/>
  <anchor x="262" y="472" name="topright"/>
  <outline>
    <contour>
      <point x="177" y="-78" type="move"/>
    </contour>
    <contour>
      <point x="239" y="702" type="line"/>
      <point x="45" y="689" type="line"/>
      <point x="52" y="190" type="line"/>
      <point x="43" y="0" type="line"/>
      <point x="238" y="0" type="line"/>
      <point x="230" y="210" type="line"/>
    </contour>
    <contour>
      <point x="345" y="406" type="curve" smooth="yes"/>
      <point x="282" y="406"/>
      <point x="243" y="366"/>
      <point x="243" y="302" type="curve" smooth="yes"/>
      <point x="243" y="241"/>
      <point x="276" y="207"/>
      <point x="337" y="207" type="curve" smooth="yes"/>
      <point x="399" y="207"/>
      <point x="438" y="247"/>
      <point x="438" y="311" type="curve" smooth="yes"/>
      <point x="438" y="371"/>
      <point x="404" y="406"/>
    </contour>
  </outline>
</glyph>
<glyph name="Lslash" format="2">
  <advance width="472"/>
  <unicode hex="0141"/>
  <anchor x="252" y="0" name="bottom"/>
  <anchor x="183" y="647" name="top"/>
  <outline>
    <contour>
      <point x="341" y="480" type="line"/>
      <point x="-14" y="301" type="line"/>
      <point x="21" y="186" type="line"/>
      <point x="38" y="177" type="line"/>
      <point x="394" y="357" type="line"/>
      <point x="358" y="471" type="line"/>
    </contour>
    <contour>
      <point x="279" y="647" type="line"/>
      <point x="75" y="647" type="line"/>
      <point x="85" y="190" type="line"/>
      <point x="75" y="0" type="line"/>
      <point x="276" y="0" type="line"/>
      <point x="268" y="210" type="line"/>
    </contour>
    <contour>
      <point x="461" y="164" type="line"/>
      <point x="199" y="164" type="line"/>
      <point x="199" y="11" type="line"/>
      <point x="199" y="0" type="line"/>
      <point x="460" y="0" type="line"/>
      <point x="472" y="150" type="line"/>
    </contour>
  </outline>
</glyph>
<glyph name="Eng" format="2">
  <advance width="710"/>
  <unicode hex="014A"/>
  <outline>
    <contour>
      <point x="650" y="651" type="line"/>
      <point x="466" y="640" type="line"/>
      <point x="472" y="321" type="line"/>
      <point x="460" y="321" type="line"/>
      <point x="278" y="647" type="line"/>
      <point x="60" y="647" type="line"/>
      <point x="70" y="190" type="line"/>
      <point x="60" y="0" type="line"/>
      <point x="242" y="0" type="line"/>
      <point x="234" y="234" type="line"/>
      <point x="235" y="346" type="line"/>
      <point x="247" y="346" type="line"/>
      <point x="446.601" y="0" type="line"/>
      <point x="433.144" y="-25"/>
      <point x="408.493" y="-44"/>
      <point x="368" y="-63" type="curve"/>
      <point x="368" y="-79" type="line"/>
      <point x="420" y="-182" type="line"/>
      <point x="591" y="-132"/>
      <point x="645" y="-69"/>
      <point x="645" y="54" type="curve"/>
      <point x="639" y="211" type="line"/>
    </contour>
  </outline>
</glyph>
<glyph name="eng" format="2">
  <advance width="549"/>
  <unicode hex="014B"/>
  <outline>
    <contour>
      <point x="351" y="478" type="curve"/>
      <point x="303" y="462"/>
      <point x="267" y="437"/>
      <point x="234" y="404" type="curve"/>
      <point x="204" y="404" type="line"/>
      <point x="203" y="296" type="line"/>
      <point x="231" y="316"/>
      <point x="253" y="325"/>
      <point x="274" y="325" type="curve" smooth="yes"/>
      <point x="305" y="325"/>
      <point x="321" y="306"/>
      <point x="321" y="264" type="curve" smooth="yes"/>
      <point x="321" y="31" type="line" smooth="yes"/>
      <point x="321" y="-30"/>
      <point x="300" y="-70"/>
      <point x="255" y="-95" type="curve"/>
      <point x="255" y="-111" type="line"/>
      <point x="320" y="-197" type="line"/>
      <point x="448" y="-145"/>
      <point x="506" y="-72"/>
      <point x="506" y="35" type="curve"/>
      <point x="499" y="210" type="line"/>
      <point x="503" y="346" type="line" smooth="yes"/>
      <point x="505" y="431"/>
      <point x="451" y="478"/>
    </contour>
    <contour>
      <point x="227" y="474" type="line"/>
      <point x="42" y="461" type="line"/>
      <point x="49" y="190" type="line"/>
      <point x="40" y="0" type="line"/>
      <point x="235" y="0" type="line"/>
      <point x="227" y="210" type="line"/>
    </contour>
  </outline>
</glyph>
<glyph name="OE" format="2">
  <advance width="889"/>
  <unicode hex="0152"/>
  <anchor x="605" y="647" name="top"/>
  <outline>
    <contour>
      <point x="348" y="659" type="curve" smooth="yes"/>
      <point x="141" y="659"/>
      <point x="17" y="533"/>
      <point x="17" y="313" type="curve" smooth="yes"/>
      <point x="17" y="106"/>
      <point x="128" y="-12"/>
      <point x="322" y="-12" type="curve" smooth="yes"/>
      <point x="406" y="-12"/>
      <point x="486" y="3"/>
      <point x="550" y="0" type="curve"/>
      <point x="864" y="0" type="line"/>
      <point x="876" y="146" type="line"/>
      <point x="865" y="160" type="line"/>
      <point x="699" y="154" type="line"/>
      <point x="603" y="154" type="line"/>
      <point x="601" y="210" type="line"/>
      <point x="601" y="248" type="line"/>
      <point x="692" y="248" type="line"/>
      <point x="808" y="245" type="line"/>
      <point x="820" y="391" type="line"/>
      <point x="809" y="405" type="line"/>
      <point x="705" y="402" type="line"/>
      <point x="606" y="402" type="line"/>
      <point x="608" y="493" type="line"/>
      <point x="711" y="493" type="line"/>
      <point x="870" y="487" type="line"/>
      <point x="883" y="633" type="line"/>
      <point x="872" y="647" type="line"/>
      <point x="550" y="647" type="line" smooth="yes"/>
      <point x="491" y="647"/>
      <point x="427" y="659"/>
    </contour>
    <contour>
      <point x="331" y="499" type="curve" smooth="yes"/>
      <point x="370" y="499"/>
      <point x="391" y="494"/>
      <point x="401" y="483" type="curve" smooth="yes"/>
      <point x="408" y="475"/>
      <point x="411" y="460"/>
      <point x="412" y="434" type="curve" smooth="yes"/>
      <point x="417" y="205" type="line" smooth="yes"/>
      <point x="418" y="177"/>
      <point x="414" y="160"/>
      <point x="405" y="151" type="curve" smooth="yes"/>
      <point x="395" y="141"/>
      <point x="374" y="136"/>
      <point x="338" y="136" type="curve" smooth="yes"/>
      <point x="253" y="136"/>
      <point x="227" y="187"/>
      <point x="227" y="330" type="curve" smooth="yes"/>
      <point x="227" y="459"/>
      <point x="248" y="499"/>
    </contour>
  </outline>
</glyph>
<glyph name="Tbar" format="2">
  <advance width="519"/>
  <unicode hex="0166"/>
  <anchor x="261" y="0" name="bottom"/>
  <anchor x="261" y="324" name="center"/>
  <anchor x="261" y="647" name="top"/>
  <outline>
    <contour>
      <point x="445" y="335" type="line"/>
      <point x="84" y="335" type="line"/>
      <point x="77" y="247" type="line"/>
      <point x="89" y="234" type="line"/>
      <point x="450" y="234" type="line"/>
      <point x="457" y="322" type="line"/>
    </contour>
    <contour>
      <point x="361" y="627" type="line"/>
      <point x="164" y="627" type="line"/>
      <point x="171" y="190" type="line"/>
      <point x="161" y="0" type="line"/>
      <point x="361" y="0" type="line"/>
      <point x="353" y="210" type="line"/>
    </contour>
    <contour>
      <point x="502" y="647" type="line"/>
      <point x="19" y="647" type="line"/>
      <point x="8" y="501" type="line"/>
      <point x="20" y="487" type="line"/>
      <point x="153" y="493" type="line"/>
      <point x="370" y="493" type="line"/>
      <point x="502" y="487" type="line"/>
      <point x="513" y="633" type="line"/>
    </contour>
  </outline>
</glyph>
<glyph name="longs" format="2">
  <advance width="326"/>
  <unicode hex="017F"/>
  <outline>
    <contour>
      <point x="340" y="704" type="curve" smooth="yes"/>
      <point x="181" y="704"/>
      <point x="89" y="629"/>
      <point x="89" y="492" type="curve"/>
      <point x="93" y="190" type="line"/>
      <point x="84" y="0" type="line"/>
      <point x="279" y="0" type="line"/>
      <point x="271" y="210" type="line"/>
      <point x="277" y="527" type="line"/>
      <point x="278" y="560"/>
      <point x="295" y="569"/>
      <point x="319" y="569" type="curve" smooth="yes"/>
      <point x="341" y="569"/>
      <point x="369" y="562"/>
      <point x="412" y="545" type="curve"/>
      <point x="425" y="554" type="line"/>
      <point x="436" y="695" type="line"/>
      <point x="403" y="701"/>
      <point x="372" y="704"/>
    </contour>
    <contour>
      <point x="194" y="354" type="line"/>
      <point x="194" y="467" type="line"/>
      <point x="23" y="467" type="line"/>
      <point x="15" y="364" type="line"/>
      <point x="20" y="354" type="line"/>
    </contour>
  </outline>
</glyph>
<glyph name="Ohorn" format="2">
  <advance width="705"/>
  <unicode hex="01A0"/>
  <anchor x="335" y="647" name="top"/>
  <outline>
    <contour>
      <point x="320" y="-12" type="curve" smooth="yes"/>
      <point x="526" y="-12"/>
      <point x="644" y="116"/>
      <point x="644" y="340" type="curve" smooth="yes"/>
      <point x="644" y="445"/>
      <point x="615" y="525"/>
      <point x="564" y="580" type="curve"/>
      <point x="529" y="529" type="line"/>
      <point x="628" y="538"/>
      <point x="701" y="599"/>
      <point x="701" y="678" type="curve" smooth="yes"/>
      <point x="701" y="741"/>
      <point x="658" y="785"/>
      <point x="606" y="785" type="curve" smooth="yes"/>
      <point x="578" y="785"/>
      <point x="548" y="772"/>
      <point x="516" y="748" type="curve"/>
      <point x="515" y="734" type="line"/>
      <point x="539" y="716"/>
      <point x="552" y="693"/>
      <point x="552" y="667" type="curve" smooth="yes"/>
      <point x="552" y="643"/>
      <point x="542" y="631"/>
      <point x="514" y="631" type="curve" smooth="yes"/>
      <point x="480" y="631"/>
      <point x="421" y="659"/>
      <point x="329" y="659" type="curve" smooth="yes"/>
      <point x="153" y="659"/>
      <point x="25" y="533"/>
      <point x="25" y="312" type="curve" smooth="yes"/>
      <point x="25" y="106"/>
      <point x="132" y="-12"/>
    </contour>
    <contour>
      <point x="338" y="136" type="curve" smooth="yes"/>
      <point x="257" y="136"/>
      <point x="235" y="177"/>
      <point x="235" y="339" type="curve" smooth="yes"/>
      <point x="235" y="466"/>
      <point x="256" y="499"/>
      <point x="331" y="499" type="curve" smooth="yes"/>
      <point x="412" y="499"/>
      <point x="434" y="458"/>
      <point x="434" y="297" type="curve" smooth="yes"/>
      <point x="434" y="169"/>
      <point x="413" y="136"/>
    </contour>
  </outline>
</glyph>
<glyph name="ohorn" format="2">
  <advance width="541"/>
  <unicode hex="01A1"/>
  <anchor x="248" y="472" name="top"/>
  <outline>
    <contour>
      <point x="475" y="623" type="curve" smooth="yes"/>
      <point x="446" y="623"/>
      <point x="413" y="608"/>
      <point x="380" y="579" type="curve"/>
      <point x="377" y="565" type="line"/>
      <point x="398" y="547"/>
      <point x="406" y="532"/>
      <point x="406" y="512" type="curve" smooth="yes"/>
      <point x="406" y="488"/>
      <point x="394" y="471"/>
      <point x="374" y="471" type="curve" smooth="yes"/>
      <point x="349" y="471"/>
      <point x="305" y="484"/>
      <point x="258" y="484" type="curve"/>
      <point x="97" y="484"/>
      <point x="14" y="397"/>
      <point x="14" y="228" type="curve" smooth="yes"/>
      <point x="14" y="67"/>
      <point x="89" y="-12"/>
      <point x="241" y="-12" type="curve" smooth="yes"/>
      <point x="401" y="-12"/>
      <point x="483" y="76"/>
      <point x="483" y="246" type="curve"/>
      <point x="483" y="321"/>
      <point x="461" y="386"/>
      <point x="423" y="425" type="curve"/>
      <point x="393" y="401" type="line"/>
      <point x="465" y="376"/>
      <point x="557" y="451"/>
      <point x="557" y="535" type="curve" smooth="yes"/>
      <point x="557" y="586"/>
      <point x="522" y="623"/>
    </contour>
    <contour>
      <point x="243" y="353" type="curve" smooth="yes"/>
      <point x="290" y="353"/>
      <point x="300" y="328"/>
      <point x="300" y="211" type="curve" smooth="yes"/>
      <point x="300" y="131"/>
      <point x="292" y="114"/>
      <point x="254" y="114" type="curve" smooth="yes"/>
      <point x="206" y="114"/>
      <point x="196" y="139"/>
      <point x="196" y="257" type="curve" smooth="yes"/>
      <point x="196" y="336"/>
      <point x="204" y="353"/>
    </contour>
  </outline>
</glyph>
<glyph name="Uhorn" format="2">
  <advance width="663"/>
  <unicode hex="01AF"/>
  <anchor x="518" y="49" name="ogonek"/>
  <anchor x="327" y="647" name="top"/>
  <outline>
    <contour>
      <point x="623" y="805" type="curve" smooth="yes"/>
      <point x="590" y="805"/>
      <point x="557" y="788"/>
      <point x="529" y="768" type="curve"/>
      <point x="526" y="754" type="line"/>
      <point x="544" y="739"/>
      <point x="555" y="719"/>
      <point x="555" y="695" type="curve" smooth="yes"/>
      <point x="555" y="661"/>
      <point x="539" y="647"/>
      <point x="498" y="647" type="curve"/>
      <point x="528" y="556" type="line"/>
      <point x="634" y="571"/>
      <point x="706" y="636"/>
      <point x="706" y="713" type="curve" smooth="yes"/>
      <point x="706" y="767"/>
      <point x="671" y="805"/>
    </contour>
    <contour>
      <point x="607" y="647" type="line"/>
      <point x="403" y="647" type="line"/>
      <point x="412" y="243" type="line" smooth="yes"/>
      <point x="413" y="175"/>
      <point x="387" y="146"/>
      <point x="324" y="146" type="curve" smooth="yes"/>
      <point x="262" y="146"/>
      <point x="237" y="175"/>
      <point x="238" y="243" type="curve" smooth="yes"/>
      <point x="247" y="647" type="line"/>
      <point x="46" y="647" type="line"/>
      <point x="52" y="319" type="line"/>
      <point x="49" y="216" type="line" smooth="yes"/>
      <point x="45" y="69"/>
      <point x="141" y="-12"/>
      <point x="316" y="-12" type="curve" smooth="yes"/>
      <point x="497" y="-12"/>
      <point x="598" y="69"/>
      <point x="599" y="216" type="curve" smooth="yes"/>
      <point x="600" y="319" type="line"/>
    </contour>
  </outline>
</glyph>
<glyph name="Ezh" format="2">
  <advance width="558"/>
  <unicode hex="01B7"/>
  <anchor x="263" y="0" name="bottom"/>
  <anchor x="258" y="647" name="top"/>
  <outline>
    <contour>
      <point x="223" y="-12" type="curve" smooth="yes"/>
      <point x="421" y="-12"/>
      <point x="534" y="64"/>
      <point x="534" y="199" type="curve" smooth="yes"/>
      <point x="534" y="318"/>
      <point x="450" y="377"/>
      <point x="278" y="379" type="curve"/>
      <point x="163" y="358" type="line"/>
      <point x="161" y="266" type="line"/>
      <point x="172" y="252" type="line"/>
      <point x="281" y="252" type="line" smooth="yes"/>
      <point x="315" y="252"/>
      <point x="331" y="238"/>
      <point x="331" y="209" type="curve" smooth="yes"/>
      <point x="331" y="174"/>
      <point x="290" y="152"/>
      <point x="225" y="152" type="curve" smooth="yes"/>
      <point x="170" y="152"/>
      <point x="110" y="164"/>
      <point x="71" y="183" type="curve"/>
      <point x="57" y="175" type="line"/>
      <point x="25" y="16" type="line"/>
      <point x="71" y="-1"/>
      <point x="148" y="-12"/>
    </contour>
    <contour>
      <point x="163" y="358" type="line"/>
      <point x="366" y="358" type="line"/>
      <point x="506" y="504" type="line"/>
      <point x="506" y="648" type="line"/>
      <point x="429" y="647" type="line"/>
      <point x="196" y="647" type="line"/>
      <point x="46" y="650" type="line"/>
      <point x="33" y="497" type="line"/>
      <point x="40" y="489" type="line"/>
      <point x="160" y="499" type="line"/>
      <point x="374" y="499" type="line"/>
      <point x="347" y="560" type="line"/>
    </contour>
  </outline>
</glyph>
<glyph name="gstroke" format="2">
  <advance width="537"/>
  <unicode hex="01E5"/>
  <anchor x="258" y="460" name="top"/>
  <outline>
    <contour>
      <point x="241" y="-196" type="curve" smooth="yes"/>
      <point x="385" y="-196"/>
      <point x="487" y="-122"/>
      <point x="487" y="-17" type="curve" smooth="yes"/>
      <point x="487" y="171"/>
      <point x="196" y="84"/>
      <point x="196" y="146" type="curve" smooth="yes"/>
      <point x="196" y="155"/>
      <point x="200" y="165"/>
      <point x="209" y="176" type="curve"/>
      <point x="118" y="200" type="line"/>
      <point x="118" y="187" type="line"/>
      <point x="89" y="166"/>
      <point x="59" y="145"/>
      <point x="39" y="122" type="curve"/>
      <point x="38" y="-52"/>
      <point x="348" y="49"/>
      <point x="348" y="-44" type="curve" smooth="yes"/>
      <point x="348" y="-87"/>
      <point x="315" y="-110"/>
      <point x="254" y="-110" type="curve" smooth="yes"/>
      <point x="195" y="-110"/>
      <point x="164" y="-88"/>
      <point x="164" y="-46" type="curve" smooth="yes"/>
      <point x="164" y="-23"/>
      <point x="176" y="-3"/>
      <point x="204" y="19" type="curve"/>
      <point x="121" y="43" type="line"/>
      <point x="121" y="26" type="line"/>
      <point x="76" y="-2"/>
      <point x="45" y="-26"/>
      <point x="29" y="-55" type="curve"/>
      <point x="29" y="-143"/>
      <point x="111" y="-196"/>
    </contour>
    <contour>
      <point x="10" y="-73" type="line"/>
      <point x="515" y="-73" type="line"/>
      <point x="518" y="-31" type="line"/>
      <point x="513" y="-27" type="line"/>
      <point x="9" y="-27" type="line"/>
      <point x="5" y="-68" type="line"/>
    </contour>
    <contour>
      <point x="246" y="154" type="curve" smooth="yes"/>
      <point x="385" y="154"/>
      <point x="473" y="220"/>
      <point x="473" y="324" type="curve" smooth="yes"/>
      <point x="473" y="416"/>
      <point x="384" y="482"/>
      <point x="258" y="482" type="curve" smooth="yes"/>
      <point x="117" y="482"/>
      <point x="31" y="417"/>
      <point x="31" y="311" type="curve" smooth="yes"/>
      <point x="31" y="210"/>
      <point x="108" y="154"/>
    </contour>
    <contour>
      <point x="250" y="264" type="curve" smooth="yes"/>
      <point x="212" y="264"/>
      <point x="197" y="279"/>
      <point x="197" y="320" type="curve" smooth="yes"/>
      <point x="197" y="355"/>
      <point x="212" y="367"/>
      <point x="255" y="367" type="curve" smooth="yes"/>
      <point x="294" y="367"/>
      <point x="308" y="353"/>
      <point x="308" y="317" type="curve" smooth="yes"/>
      <point x="308" y="280"/>
      <point x="291" y="264"/>
    </contour>
    <contour>
      <point x="454" y="349" type="line"/>
      <point x="466" y="376" type="line"/>
      <point x="490" y="377"/>
      <point x="505" y="378"/>
      <point x="528" y="382" type="curve"/>
      <point x="528" y="499" type="line"/>
      <point x="515" y="510" type="line"/>
      <point x="455" y="484"/>
      <point x="397" y="466"/>
      <point x="345" y="457" type="curve"/>
    </contour>
  </outline>
</glyph>
<glyph name="ezh" format="2">
  <advance width="452"/>
  <unicode hex="0292"/>
  <anchor x="226" y="0" name="bottom"/>
  <anchor x="222" y="472" name="top"/>
  <outline>
    <contour>
      <point x="159" y="-195" type="curve" smooth="yes"/>
      <point x="324" y="-195"/>
      <point x="434" y="-107"/>
      <point x="434" y="26" type="curve" smooth="yes"/>
      <point x="434" y="111"/>
      <point x="385" y="160"/>
      <point x="279" y="181" type="curve" smooth="yes"/>
      <point x="219" y="193" type="line"/>
      <point x="75" y="189" type="line"/>
      <point x="69" y="98" type="line"/>
      <point x="80" y="82" type="line"/>
      <point x="189" y="62" type="line" smooth="yes"/>
      <point x="232" y="54"/>
      <point x="248" y="40"/>
      <point x="248" y="10" type="curve" smooth="yes"/>
      <point x="248" y="-27"/>
      <point x="217" y="-47"/>
      <point x="162" y="-47" type="curve" smooth="yes"/>
      <point x="114" y="-47"/>
      <point x="69" y="-41"/>
      <point x="20" y="-28" type="curve"/>
      <point x="6" y="-41" type="line"/>
      <point x="16" y="-181" type="line"/>
      <point x="62" y="-189"/>
      <point x="119" y="-195"/>
    </contour>
    <contour>
      <point x="243" y="158" type="line"/>
      <point x="420" y="359" type="line"/>
      <point x="420" y="473" type="line"/>
      <point x="354" y="472" type="line"/>
      <point x="143" y="472" type="line"/>
      <point x="24" y="475" type="line"/>
      <point x="12" y="357" type="line"/>
      <point x="22" y="345" type="line"/>
      <point x="117" y="352" type="line"/>
      <point x="219" y="352" type="line"/>
      <point x="75" y="189" type="line"/>
    </contour>
  </outline>
</glyph>
<glyph name="apostrophemod" format="2">
  <advance width="253"/>
  <unicode hex="02BC"/>
  <outline>
    <contour>
      <point x="159" y="659" type="curve"/>
      <point x="114" y="642"/>
      <point x="72" y="616"/>
      <point x="34" y="588" type="curve"/>
      <point x="34" y="573" type="line"/>
      <point x="66" y="549"/>
      <point x="76" y="523"/>
      <point x="76" y="485" type="curve" smooth="yes"/>
      <point x="76" y="455"/>
      <point x="63" y="426"/>
      <point x="37" y="397" type="curve"/>
      <point x="40" y="385" type="line"/>
      <point x="105" y="343" type="line"/>
      <point x="182" y="414"/>
      <point x="219" y="477"/>
      <point x="219" y="543" type="curve" smooth="yes"/>
      <point x="219" y="595"/>
      <point x="201" y="631"/>
    </contour>
  </outline>
</glyph>
<glyph name="ringhalfleft" format="2">
  <advance width="206"/>
  <unicode hex="02BF"/>
  <outline>
    <contour>
      <point x="165" y="646" type="line"/>
      <point x="74" y="646"/>
      <point x="28" y="602"/>
      <point x="28" y="515" type="curve" smooth="yes"/>
      <point x="28" y="429"/>
      <point x="67" y="395"/>
      <point x="165" y="395" type="curve"/>
      <point x="165" y="485" type="line"/>
      <point x="126" y="485"/>
      <point x="114" y="493"/>
      <point x="114" y="523" type="curve" smooth="yes"/>
      <point x="114" y="551"/>
      <point x="130" y="562"/>
      <point x="165" y="557" type="curve"/>
    </contour>
  </outline>
</glyph>
<glyph name="verticallinemod" format="2">
  <advance width="234"/>
  <unicode hex="02C8"/>
  <outline>
    <contour>
      <point x="47" y="472" type="line"/>
      <point x="187" y="472" type="line"/>
      <point x="187" y="656" type="line"/>
      <point x="47" y="656" type="line"/>
    </contour>
  </outline>
</glyph>
<glyph name="tilde" format="2">
  <advance width="388"/>
  <unicode hex="02DC"/>
  <anchor x="194" y="472" name="top"/>
  <outline>
    <contour>
      <point x="332" y="741" type="line"/>
      <point x="316" y="741" type="line"/>
      <point x="293" y="712"/>
      <point x="273" y="683"/>
      <point x="247" y="683" type="curve" smooth="yes"/>
      <point x="221" y="683"/>
      <point x="146" y="710"/>
      <point x="94" y="717" type="curve"/>
      <point x="78" y="711" type="line"/>
      <point x="-3" y="598" type="line"/>
      <point x="-3" y="582" type="line"/>
      <point x="54" y="527" type="line"/>
      <point x="70" y="527" type="line"/>
      <point x="93" y="556"/>
      <point x="113" y="585"/>
      <point x="139" y="585" type="curve" smooth="yes"/>
      <point x="165" y="585"/>
      <point x="240" y="558"/>
      <point x="292" y="551" type="curve"/>
      <point x="308" y="557" type="line"/>
      <point x="389" y="670" type="line"/>
      <point x="389" y="686" type="line"/>
    </contour>
  </outline>
</glyph>
<glyph name="gravecomb" format="2">
  <unicode hex="0300"/>
  <anchor x="194.5" y="472" name="_top"/>
  <anchor x="195" y="755" name="top"/>
  <outline>
    <contour>
      <point x="137" y="755" type="curve"/>
      <point x="120" y="754" type="line"/>
      <point x="51" y="647" type="line"/>
      <point x="54" y="630" type="line"/>
      <point x="135" y="589"/>
      <point x="205" y="554"/>
      <point x="277" y="521" type="curve"/>
      <point x="294" y="522" type="line"/>
      <point x="338" y="594" type="line"/>
      <point x="263" y="650"/>
      <point x="200" y="701"/>
    </contour>
  </outline>
</glyph>
<glyph name="macroncomb" format="2">
  <unicode hex="0304"/>
  <anchor x="194.5" y="472" name="_top"/>
  <anchor x="195" y="671" name="top"/>
  <outline>
    <contour>
      <point x="331" y="691" type="line"/>
      <point x="55" y="691" type="line"/>
      <point x="46" y="584" type="line"/>
      <point x="58" y="571" type="line"/>
      <point x="334" y="571" type="line"/>
      <point x="343" y="678" type="line"/>
    </contour>
  </outline>
</glyph>
<glyph name="hookabovecomb" format="2">
  <unicode hex="0309"/>
  <anchor x="120" y="501" name="_custom1"/>
  <anchor x="122" y="472" name="_top"/>
  <anchor x="105" y="773" name="top"/>
  <outline>
    <contour>
      <point x="120" y="501" type="line"/>
      <point x="184" y="540" type="line"/>
      <point x="157" y="583" type="line"/>
      <point x="204" y="625"/>
      <point x="218" y="646"/>
      <point x="218" y="675" type="curve" smooth="yes"/>
      <point x="218" y="728"/>
      <point x="174" y="763"/>
      <point x="118" y="763" type="curve" smooth="yes"/>
      <point x="72" y="763"/>
      <point x="25" y="739"/>
      <point x="-9" y="702" type="curve"/>
      <point x="20" y="655" type="line"/>
      <point x="41" y="671"/>
      <point x="69" y="681"/>
      <point x="90" y="681" type="curve" smooth="yes"/>
      <point x="107" y="681"/>
      <point x="120" y="674"/>
      <point x="120" y="657" type="curve" smooth="yes"/>
      <point x="120" y="636"/>
      <point x="100" y="605"/>
      <point x="66" y="581" type="curve"/>
    </contour>
  </outline>
</glyph>
<glyph name="ringcomb" format="2">
  <unicode hex="030A"/>
  <anchor x="194" y="472" name="_top"/>
  <anchor x="194" y="756" name="top"/>
  <outline>
    <contour>
      <point x="198" y="756" type="curve" smooth="yes"/>
      <point x="123" y="756"/>
      <point x="84" y="718"/>
      <point x="84" y="645" type="curve" smooth="yes"/>
      <point x="84" y="574"/>
      <point x="120" y="538"/>
      <point x="190" y="538" type="curve" smooth="yes"/>
      <point x="265" y="538"/>
      <point x="304" y="579"/>
      <point x="304" y="652" type="curve" smooth="yes"/>
      <point x="304" y="721"/>
      <point x="269" y="756"/>
    </contour>
    <contour>
      <point x="193" y="678" type="curve" smooth="yes"/>
      <point x="219" y="678"/>
      <point x="229" y="669"/>
      <point x="229" y="645" type="curve" smooth="yes"/>
      <point x="229" y="622"/>
      <point x="220" y="614"/>
      <point x="195" y="614" type="curve" smooth="yes"/>
      <point x="169" y="614"/>
      <point x="159" y="623"/>
      <point x="159" y="648" type="curve" smooth="yes"/>
      <point x="159" y="670"/>
      <point x="168" y="678"/>
    </contour>
  </outline>
</glyph>
<glyph name="hungarumlautcomb" format="2">
  <unicode hex="030B"/>
  <anchor x="170" y="472" name="_top"/>
  <anchor x="170" y="763" name="top"/>
  <outline>
    <contour>
      <point x="168" y="568" type="curve"/>
      <point x="226" y="522" type="line"/>
      <point x="241" y="527" type="line"/>
      <point x="290" y="578"/>
      <point x="339" y="631"/>
      <point x="386" y="686" type="curve"/>
      <point x="383" y="700" type="line"/>
      <point x="293" y="763" type="line"/>
      <point x="280" y="759" type="line"/>
      <point x="244" y="694"/>
      <point x="207" y="631"/>
    </contour>
    <contour>
      <point x="3" y="568" type="curve"/>
      <point x="61" y="522" type="line"/>
      <point x="76" y="527" type="line"/>
      <point x="125" y="578"/>
      <point x="174" y="631"/>
      <point x="221" y="686" type="curve"/>
      <point x="218" y="700" type="line"/>
      <point x="128" y="763" type="line"/>
      <point x="115" y="759" type="line"/>
      <point x="79" y="694"/>
      <point x="42" y="631"/>
    </contour>
  </outline>
</glyph>
<glyph name="dblgravecomb" format="2">
  <unicode hex="030F"/>
  <anchor x="207" y="472" name="_top"/>
  <anchor x="196" y="763" name="top"/>
  <outline>
    <contour>
      <point x="220" y="568" type="curve"/>
      <point x="162" y="522" type="line"/>
      <point x="147" y="527" type="line"/>
      <point x="98" y="578"/>
      <point x="49" y="631"/>
      <point x="2" y="686" type="curve"/>
      <point x="5" y="700" type="line"/>
      <point x="95" y="763" type="line"/>
      <point x="108" y="759" type="line"/>
      <point x="144" y="694"/>
      <point x="181" y="631"/>
    </contour>
    <contour>
      <point x="385" y="568" type="curve"/>
      <point x="327" y="522" type="line"/>
      <point x="312" y="527" type="line"/>
      <point x="263" y="578"/>
      <point x="214" y="631"/>
      <point x="167" y="686" type="curve"/>
      <point x="170" y="700" type="line"/>
      <point x="260" y="763" type="line"/>
      <point x="273" y="759" type="line"/>
      <point x="309" y="694"/>
      <point x="346" y="631"/>
    </contour>
  </outline>
</glyph>
<glyph name="commaaccentcomb" format="2">
  <unicode hex="0326"/>
  <anchor x="86" y="0" name="_bottom"/>
  <anchor x="86" y="-304" name="bottom"/>
  <outline>
    <contour>
      <point x="136.977" y="-25.16900000000001" type="curve"/>
      <point x="93.27" y="-36.31"/>
      <point x="52.991" y="-53.44999999999999"/>
      <point x="14.426" y="-74.875" type="curve"/>
      <point x="13.568999999999999" y="-88.587" type="line"/>
      <point x="33.28" y="-108.298"/>
      <point x="41.85" y="-128.00900000000001"/>
      <point x="41.85" y="-152.862" type="curve" smooth="yes"/>
      <point x="41.85" y="-188.856"/>
      <point x="26.424" y="-217.994"/>
      <point x="-6.1419999999999995" y="-246.275" type="curve"/>
      <point x="-4.428" y="-258.273" type="line"/>
      <point x="47.849" y="-303.694" type="line"/>
      <point x="136.977" y="-241.99"/>
      <point x="178.113" y="-182.857"/>
      <point x="178.113" y="-116.011" type="curve" smooth="yes"/>
      <point x="178.113" y="-80.017"/>
      <point x="165.258" y="-51.73599999999999"/>
    </contour>
  </outline>
</glyph>
<glyph name="cedillacomb" format="2">
  <unicode hex="0327"/>
  <anchor x="190" y="-1" name="_bottom"/>
  <anchor x="199" y="-209" name="bottom"/>
  <outline>
    <contour>
      <point x="236" y="33" type="line"/>
      <point x="153" y="33" type="line"/>
      <point x="131" y="-79" type="line"/>
      <point x="181" y="-106" type="line" smooth="yes"/>
      <point x="189" y="-110"/>
      <point x="193" y="-114"/>
      <point x="193" y="-121" type="curve" smooth="yes"/>
      <point x="193" y="-130"/>
      <point x="188" y="-135"/>
      <point x="177" y="-135" type="curve" smooth="yes"/>
      <point x="163" y="-135"/>
      <point x="138" y="-125"/>
      <point x="117" y="-107" type="curve"/>
      <point x="109" y="-110" type="line"/>
      <point x="98" y="-185" type="line"/>
      <point x="125" y="-200"/>
      <point x="155" y="-209"/>
      <point x="190" y="-209" type="curve" smooth="yes"/>
      <point x="259" y="-209"/>
      <point x="300" y="-173"/>
      <point x="300" y="-125" type="curve" smooth="yes"/>
      <point x="300" y="-101"/>
      <point x="290" y="-80"/>
      <point x="256" y="-62" type="curve" smooth="yes"/>
      <point x="222" y="-43" type="line"/>
    </contour>
  </outline>
</glyph>
<glyph name="strokeshortcomb" format="2">
  <unicode hex="0335"/>
  <anchor x="256" y="257" name="_center"/>
  <outline>
    <contour>
      <point x="464" y="307" type="line"/>
      <point x="44" y="307" type="line"/>
      <point x="38" y="216" type="line"/>
      <point x="46" y="206" type="line"/>
      <point x="467" y="206" type="line"/>
      <point x="472" y="297" type="line"/>
    </contour>
  </outline>
</glyph>
<glyph name="Gamma" format="2">
  <advance width="487"/>
  <unicode hex="0393"/>
  <anchor x="218" y="299" name="center"/>
  <outline>
    <contour>
      <point x="273" y="647" type="line"/>
      <point x="69" y="647" type="line"/>
      <point x="79" y="190" type="line"/>
      <point x="69" y="0" type="line"/>
      <point x="270" y="0" type="line"/>
      <point x="262" y="210" type="line"/>
    </contour>
    <contour>
      <point x="468" y="647" type="line"/>
      <point x="198" y="647" type="line"/>
      <point x="198" y="504" type="line"/>
      <point x="198" y="493" type="line"/>
      <point x="321" y="493" type="line"/>
      <point x="466" y="487" type="line"/>
      <point x="478" y="633" type="line"/>
    </contour>
  </outline>
</glyph>
<glyph name="Delta" format="2">
  <advance width="621"/>
  <unicode hex="0394"/>
  <outline>
    <contour>
      <point x="30" y="0" type="line"/>
      <point x="595" y="0" type="line"/>
      <point x="595" y="128" type="line"/>
      <point x="440" y="647" type="line"/>
      <point x="198" y="647" type="line"/>
      <point x="30" y="128" type="line"/>
    </contour>
    <contour>
      <point x="216" y="154" type="line"/>
      <point x="309" y="468" type="line"/>
      <point x="321" y="468" type="line"/>
      <point x="399" y="154" type="line"/>
    </contour>
  </outline>
</glyph>
<glyph name="Xi" format="2">
  <advance width="601"/>
  <unicode hex="039E"/>
  <outline>
    <contour>
      <point x="51" y="0" type="line"/>
      <point x="549" y="0" type="line"/>
      <point x="563" y="161" type="line"/>
      <point x="550" y="176" type="line"/>
      <point x="296" y="169" type="line"/>
      <point x="50" y="176" type="line"/>
      <point x="38" y="161" type="line"/>
    </contour>
    <contour>
      <point x="105" y="237" type="line"/>
      <point x="313" y="240" type="line"/>
      <point x="491" y="237" type="line"/>
      <point x="504" y="397" type="line"/>
      <point x="492" y="412" type="line"/>
      <point x="313" y="408" type="line"/>
      <point x="106" y="412" type="line"/>
      <point x="92" y="252" type="line"/>
    </contour>
    <contour>
      <point x="51" y="471" type="line"/>
      <point x="315" y="478" type="line"/>
      <point x="552" y="471" type="line"/>
      <point x="566" y="632" type="line"/>
      <point x="554" y="647" type="line"/>
      <point x="53" y="647" type="line"/>
      <point x="38" y="487" type="line"/>
    </contour>
  </outline>
</glyph>
<glyph name="Pi" format="2">
  <advance width="691"/>
  <unicode hex="03A0"/>
  <anchor x="424" y="0" name="bottomright"/>
  <outline>
    <contour>
      <point x="424" y="0" type="line"/>
      <point x="625" y="0" type="line"/>
      <point x="617" y="210" type="line"/>
      <point x="628" y="647" type="line"/>
      <point x="424" y="647" type="line"/>
      <point x="434" y="190" type="line"/>
    </contour>
    <contour>
      <point x="60" y="0" type="line"/>
      <point x="261" y="0" type="line"/>
      <point x="253" y="210" type="line"/>
      <point x="264" y="647" type="line"/>
      <point x="60" y="647" type="line"/>
      <point x="70" y="190" type="line"/>
    </contour>
    <contour>
      <point x="224" y="495" type="line"/>
      <point x="450" y="495" type="line"/>
      <point x="450" y="647" type="line"/>
      <point x="224" y="647" type="line"/>
    </contour>
  </outline>
</glyph>
<glyph name="Sigma" format="2">
  <advance width="563"/>
  <unicode hex="03A3"/>
  <outline>
    <contour>
      <point x="511" y="649" type="line"/>
      <point x="381" y="647" type="line"/>
      <point x="136" y="647" type="line"/>
      <point x="38" y="649" type="line"/>
      <point x="38" y="497" type="line"/>
      <point x="193" y="334" type="line"/>
      <point x="33" y="138" type="line"/>
      <point x="33" y="-3" type="line"/>
      <point x="143" y="0" type="line"/>
      <point x="350" y="0" type="line"/>
      <point x="523" y="-2" type="line"/>
      <point x="536" y="150" type="line"/>
      <point x="524" y="166" type="line"/>
      <point x="395" y="156" type="line"/>
      <point x="258" y="156" type="line"/>
      <point x="405" y="336" type="line"/>
      <point x="405" y="367" type="line"/>
      <point x="286" y="491" type="line"/>
      <point x="400" y="491" type="line"/>
      <point x="511" y="484" type="line"/>
      <point x="524" y="635" type="line"/>
    </contour>
  </outline>
</glyph>
<glyph name="Psi" format="2">
  <advance width="819"/>
  <unicode hex="03A8"/>
  <outline>
    <contour>
      <point x="509" y="647" type="line"/>
      <point x="314" y="647" type="line"/>
      <point x="324" y="190" type="line"/>
      <point x="314" y="0" type="line"/>
      <point x="506" y="0" type="line"/>
      <point x="498" y="209" type="line"/>
    </contour>
    <contour>
      <point x="787" y="647" type="line"/>
      <point x="592" y="647" type="line"/>
      <point x="601" y="389" type="line" smooth="yes"/>
      <point x="604" y="299"/>
      <point x="553" y="257"/>
      <point x="410" y="257" type="curve" smooth="yes"/>
      <point x="267" y="257"/>
      <point x="218" y="299"/>
      <point x="221" y="389" type="curve" smooth="yes"/>
      <point x="229" y="647" type="line"/>
      <point x="34" y="647" type="line"/>
      <point x="37" y="459" type="line"/>
      <point x="37" y="360" type="line" smooth="yes"/>
      <point x="37" y="196"/>
      <point x="158" y="102"/>
      <point x="402" y="102" type="curve" smooth="yes"/>
      <point x="651" y="102"/>
      <point x="778" y="196"/>
      <point x="780" y="360" type="curve" smooth="yes"/>
      <point x="781" y="457" type="line"/>
    </contour>
  </outline>
</glyph>
<glyph name="delta" format="2">
  <advance width="478"/>
  <unicode hex="03B4"/>
  <outline>
    <contour>
      <point x="236" y="-12" type="curve" smooth="yes"/>
      <point x="377" y="-12"/>
      <point x="468" y="78"/>
      <point x="468" y="217" type="curve" smooth="yes"/>
      <point x="468" y="444"/>
      <point x="225" y="474"/>
      <point x="225" y="557" type="curve" smooth="yes"/>
      <point x="225" y="576"/>
      <point x="238" y="585"/>
      <point x="264" y="585" type="curve" smooth="yes"/>
      <point x="291" y="585"/>
      <point x="319" y="575"/>
      <point x="381" y="543" type="curve"/>
      <point x="403" y="550" type="line"/>
      <point x="428" y="685" type="line"/>
      <point x="394" y="699"/>
      <point x="329" y="709"/>
      <point x="271" y="709" type="curve" smooth="yes"/>
      <point x="137" y="709"/>
      <point x="61" y="656"/>
      <point x="61" y="562" type="curve" smooth="yes"/>
      <point x="61" y="397"/>
      <point x="295" y="401"/>
      <point x="295" y="191" type="curve" smooth="yes"/>
      <point x="295" y="138"/>
      <point x="280" y="114"/>
      <point x="247" y="114" type="curve" smooth="yes"/>
      <point x="208" y="114"/>
      <point x="192" y="148"/>
      <point x="192" y="227" type="curve" smooth="yes"/>
      <point x="192" y="305"/>
      <point x="208" y="342"/>
      <point x="250" y="367" type="curve"/>
      <point x="164" y="455" type="line"/>
      <point x="148" y="410" type="line"/>
      <point x="55" y="381"/>
      <point x="10" y="318"/>
      <point x="10" y="216" type="curve" smooth="yes"/>
      <point x="10" y="75"/>
      <point x="97" y="-12"/>
    </contour>
  </outline>
</glyph>
<glyph name="theta" format="2">
  <advance width="516"/>
  <unicode hex="03B8"/>
  <outline>
    <contour>
      <point x="250" y="-7" type="curve" smooth="yes"/>
      <point x="406" y="-7"/>
      <point x="490" y="104"/>
      <point x="490" y="362" type="curve" smooth="yes"/>
      <point x="490" y="603"/>
      <point x="413" y="707"/>
      <point x="268" y="707" type="curve" smooth="yes"/>
      <point x="112" y="707"/>
      <point x="27" y="595"/>
      <point x="27" y="335" type="curve" smooth="yes"/>
      <point x="27" y="94"/>
      <point x="105" y="-7"/>
    </contour>
    <contour>
      <point x="264" y="124" type="curve" smooth="yes"/>
      <point x="205" y="124"/>
      <point x="194" y="176"/>
      <point x="194" y="367" type="curve" smooth="yes"/>
      <point x="194" y="526"/>
      <point x="205" y="571"/>
      <point x="255" y="571" type="curve" smooth="yes"/>
      <point x="312" y="571"/>
      <point x="323" y="519"/>
      <point x="323" y="330" type="curve" smooth="yes"/>
      <point x="323" y="171"/>
      <point x="312" y="124"/>
    </contour>
    <contour>
      <point x="114" y="275" type="line"/>
      <point x="400" y="284" type="line"/>
      <point x="393" y="413" type="line"/>
      <point x="109" y="404" type="line"/>
    </contour>
  </outline>
</glyph>
<glyph name="iota" format="2">
  <advance width="281"/>
  <unicode hex="03B9"/>
  <anchor x="141" y="472" name="top"/>
  <outline>
    <contour>
      <point x="156" y="-7" type="curve"/>
      <point x="185" y="-3"/>
      <point x="220" y="8"/>
      <point x="245" y="20" type="curve"/>
      <point x="262" y="120" type="line"/>
      <point x="250" y="130" type="line"/>
      <point x="243" y="128"/>
      <point x="237" y="127"/>
      <point x="233" y="127" type="curve" smooth="yes"/>
      <point x="222" y="127"/>
      <point x="219" y="135"/>
      <point x="219" y="155" type="curve"/>
      <point x="229" y="474" type="line"/>
      <point x="35" y="461" type="line"/>
      <point x="43" y="249" type="line"/>
      <point x="39" y="118" type="line"/>
      <point x="39" y="46"/>
      <point x="88" y="-7"/>
    </contour>
  </outline>
</glyph>
<glyph name="lambda" format="2">
  <advance width="499"/>
  <unicode hex="03BB"/>
  <outline>
    <contour>
      <point x="401" y="-12" type="curve"/>
      <point x="431" y="-7"/>
      <point x="467" y="5"/>
      <point x="486" y="16" type="curve"/>
      <point x="504" y="119" type="line"/>
      <point x="491" y="129" type="line"/>
      <point x="459" y="122"/>
      <point x="448" y="127"/>
      <point x="441" y="152" type="curve" smooth="yes"/>
      <point x="333" y="529" type="line" smooth="yes"/>
      <point x="292" y="672"/>
      <point x="217" y="719"/>
      <point x="61" y="700" type="curve"/>
      <point x="34" y="560" type="line"/>
      <point x="42" y="545" type="line"/>
      <point x="140" y="555"/>
      <point x="175" y="533"/>
      <point x="199" y="444" type="curve" smooth="yes"/>
      <point x="294" y="94" type="line" smooth="yes"/>
      <point x="316" y="13"/>
      <point x="337" y="-8"/>
    </contour>
    <contour>
      <point x="155" y="-9" type="line"/>
      <point x="180" y="86" type="line"/>
      <point x="241" y="257" type="line"/>
      <point x="291" y="257" type="line"/>
      <point x="220" y="556" type="line"/>
      <point x="-8" y="7" type="line"/>
    </contour>
  </outline>
</glyph>
<glyph name="nu" format="2">
  <advance width="461"/>
  <unicode hex="03BD"/>
  <outline>
    <contour>
      <point x="451" y="472" type="curve"/>
      <point x="301" y="476" type="line"/>
      <point x="292" y="466" type="line"/>
      <point x="296" y="410"/>
      <point x="286" y="342"/>
      <point x="259" y="247" type="curve" smooth="yes"/>
      <point x="240" y="179" type="line"/>
      <point x="230" y="179" type="line"/>
      <point x="195" y="381" type="line"/>
      <point x="182" y="476" type="line"/>
      <point x="0" y="469" type="line"/>
      <point x="119" y="0" type="line"/>
      <point x="331" y="0" type="line"/>
      <point x="395" y="197" type="line" smooth="yes"/>
      <point x="449" y="362"/>
      <point x="457" y="403"/>
    </contour>
  </outline>
</glyph>
<glyph name="xi" format="2">
  <advance width="447"/>
  <unicode hex="03BE"/>
  <outline>
    <contour>
      <point x="215" y="-194" type="line"/>
      <point x="371" y="-130"/>
      <point x="441" y="-61"/>
      <point x="441" y="29" type="curve" smooth="yes"/>
      <point x="441" y="101"/>
      <point x="397" y="149"/>
      <point x="320" y="162" type="curve" smooth="yes"/>
      <point x="276" y="169" type="line" smooth="yes"/>
      <point x="220" y="178"/>
      <point x="194" y="197"/>
      <point x="194" y="230" type="curve" smooth="yes"/>
      <point x="194" y="270"/>
      <point x="233" y="293"/>
      <point x="300" y="293" type="curve" smooth="yes"/>
      <point x="390" y="293" type="line"/>
      <point x="399" y="418" type="line"/>
      <point x="393" y="430" type="line"/>
      <point x="281" y="430" type="line"/>
      <point x="234" y="456"/>
      <point x="218" y="473"/>
      <point x="218" y="498" type="curve" smooth="yes"/>
      <point x="218" y="531"/>
      <point x="243" y="546"/>
      <point x="299" y="546" type="curve" smooth="yes"/>
      <point x="333" y="546"/>
      <point x="364" y="540"/>
      <point x="409" y="526" type="curve"/>
      <point x="426" y="535" type="line"/>
      <point x="454" y="678" type="line"/>
      <point x="402" y="695"/>
      <point x="350" y="704"/>
      <point x="296" y="704" type="curve" smooth="yes"/>
      <point x="137" y="704"/>
      <point x="35" y="632"/>
      <point x="35" y="520" type="curve" smooth="yes"/>
      <point x="35" y="417"/>
      <point x="122" y="355"/>
      <point x="281" y="344" type="curve"/>
      <point x="299" y="392" type="line"/>
      <point x="113" y="392"/>
      <point x="12" y="322"/>
      <point x="12" y="195" type="curve" smooth="yes"/>
      <point x="12" y="91"/>
      <point x="80" y="28"/>
      <point x="208" y="13" type="curve" smooth="yes"/>
      <point x="261" y="7" type="line" smooth="yes"/>
      <point x="270" y="6"/>
      <point x="272" y="5"/>
      <point x="272" y="2" type="curve" smooth="yes"/>
      <point x="272" y="-5"/>
      <point x="253" y="-14"/>
      <point x="151" y="-58" type="curve"/>
      <point x="141" y="-79" type="line"/>
    </contour>
  </outline>
</glyph>
<glyph name="omicron" format="2">
  <advance width="499"/>
  <unicode hex="03BF"/>
  <anchor x="250" y="472" name="top"/>
  <outline>
    <contour>
      <point x="258" y="484" type="curve" smooth="yes"/>
      <point x="98" y="484"/>
      <point x="15" y="395"/>
      <point x="15" y="223" type="curve" smooth="yes"/>
      <point x="15" y="68"/>
      <point x="92" y="-12"/>
      <point x="241" y="-12" type="curve" smooth="yes"/>
      <point x="401" y="-12"/>
      <point x="484" y="76"/>
      <point x="484" y="247" type="curve" smooth="yes"/>
      <point x="484" y="403"/>
      <point x="407" y="484"/>
    </contour>
    <contour>
      <point x="244" y="353" type="curve" smooth="yes"/>
      <point x="291" y="353"/>
      <point x="301" y="327"/>
      <point x="301" y="211" type="curve" smooth="yes"/>
      <point x="301" y="131"/>
      <point x="293" y="114"/>
      <point x="255" y="114" type="curve" smooth="yes"/>
      <point x="207" y="114"/>
      <point x="197" y="140"/>
      <point x="197" y="257" type="curve" smooth="yes"/>
      <point x="197" y="336"/>
      <point x="205" y="353"/>
    </contour>
  </outline>
</glyph>
<glyph name="pi" format="2">
  <advance width="658"/>
  <unicode hex="03C0"/>
  <outline>
    <contour>
      <point x="527" y="-7" type="curve"/>
      <point x="559" y="-1"/>
      <point x="585" y="14"/>
      <point x="609" y="30" type="curve"/>
      <point x="627" y="131" type="line"/>
      <point x="615" y="145" type="line"/>
      <point x="601" y="140"/>
      <point x="588" y="137"/>
      <point x="577" y="137" type="curve" smooth="yes"/>
      <point x="556" y="137"/>
      <point x="548" y="148"/>
      <point x="548" y="177" type="curve"/>
      <point x="559" y="460" type="line"/>
      <point x="372" y="455" type="line"/>
      <point x="377" y="236" type="line"/>
      <point x="372" y="128" type="line"/>
      <point x="372" y="47"/>
      <point x="430" y="-7"/>
    </contour>
    <contour>
      <point x="109" y="0" type="line"/>
      <point x="298" y="0" type="line"/>
      <point x="297" y="461" type="line"/>
      <point x="118" y="461" type="line"/>
      <point x="125" y="190" type="line"/>
    </contour>
    <contour>
      <point x="47" y="302" type="line"/>
      <point x="90" y="326"/>
      <point x="131" y="337"/>
      <point x="178" y="337" type="curve" smooth="yes"/>
      <point x="633" y="337" type="line"/>
      <point x="643" y="462" type="line"/>
      <point x="638" y="471" type="line"/>
      <point x="150" y="471" type="line" smooth="yes"/>
      <point x="78" y="471"/>
      <point x="31" y="450"/>
      <point x="-8" y="399" type="curve"/>
      <point x="-8" y="380" type="line"/>
      <point x="29" y="304" type="line"/>
    </contour>
  </outline>
</glyph>
<glyph name="psi" format="2">
  <advance width="719"/>
  <unicode hex="03C8"/>
  <outline>
    <contour>
      <point x="277" y="-10" type="curve"/>
      <point x="283" y="126" type="line"/>
      <point x="211" y="126"/>
      <point x="195" y="143"/>
      <point x="197" y="193" type="curve" smooth="yes"/>
      <point x="205" y="473" type="line"/>
      <point x="34" y="461" type="line"/>
      <point x="37" y="250" type="line"/>
      <point x="35" y="169" type="line" smooth="yes"/>
      <point x="32" y="52"/>
      <point x="107" y="-10"/>
    </contour>
    <contour>
      <point x="268" y="-185" type="line"/>
      <point x="449" y="-185" type="line"/>
      <point x="442" y="209" type="line"/>
      <point x="450" y="558" type="line"/>
      <point x="270" y="546" type="line"/>
      <point x="277" y="190" type="line"/>
    </contour>
    <contour>
      <point x="426" y="-10" type="line"/>
      <point x="599" y="-10"/>
      <point x="677" y="53"/>
      <point x="680" y="169" type="curve" smooth="yes"/>
      <point x="688" y="473" type="line"/>
      <point x="517" y="461" type="line"/>
      <point x="519" y="193" type="line" smooth="yes"/>
      <point x="519" y="143"/>
      <point x="505" y="126"/>
      <point x="431" y="126" type="curve"/>
    </contour>
  </outline>
</glyph>
<glyph name="KaiSymbol" format="2">
  <advance width="653"/>
  <unicode hex="03CF"/>
  <outline>
    <contour>
      <point x="465" y="-12" type="line"/>
      <point x="646" y="24" type="line"/>
      <point x="646" y="42" type="line"/>
      <point x="564" y="147"/>
      <point x="495" y="246"/>
      <point x="436" y="341" type="curve"/>
      <point x="626" y="647" type="line"/>
      <point x="414" y="647" type="line"/>
      <point x="380" y="577" type="line"/>
      <point x="236" y="344" type="line"/>
      <point x="236" y="332" type="line"/>
      <point x="296" y="219"/>
      <point x="352" y="121"/>
      <point x="421" y="9" type="curve"/>
    </contour>
    <contour>
      <point x="360" y="-234" type="curve"/>
      <point x="496" y="-239"/>
      <point x="590" y="-154"/>
      <point x="646" y="24" type="curve"/>
      <point x="465" y="-12" type="line"/>
      <point x="435" y="-59"/>
      <point x="388" y="-75"/>
      <point x="294" y="-70" type="curve"/>
      <point x="278" y="-85" type="line"/>
      <point x="288" y="-145"/>
      <point x="315" y="-194"/>
    </contour>
    <contour>
      <point x="59" y="0" type="line"/>
      <point x="260" y="0" type="line"/>
      <point x="252" y="210" type="line"/>
      <point x="263" y="647" type="line"/>
      <point x="59" y="647" type="line"/>
      <point x="69" y="190" type="line"/>
    </contour>
  </outline>
</glyph>
<glyph name="kaiSymbol" format="2">
  <advance width="541"/>
  <unicode hex="03D7"/>
  <outline>
    <contour>
      <point x="290" y="-207" type="curve"/>
      <point x="404" y="-206"/>
      <point x="486" y="-132"/>
      <point x="534" y="12" type="curve"/>
      <point x="368" y="-7" type="line"/>
      <point x="340" y="-37"/>
      <point x="293" y="-50"/>
      <point x="216" y="-50" type="curve"/>
      <point x="201" y="-64" type="line"/>
      <point x="213" y="-121"/>
      <point x="242" y="-168"/>
    </contour>
    <contour>
      <point x="368" y="-7" type="line"/>
      <point x="534" y="12" type="line"/>
      <point x="535" y="32" type="line"/>
      <point x="484" y="118"/>
      <point x="444" y="191"/>
      <point x="408" y="263" type="curve"/>
      <point x="528" y="472" type="line"/>
      <point x="329" y="472" type="line"/>
      <point x="308" y="416" type="line"/>
      <point x="223" y="257" type="line"/>
      <point x="223" y="245" type="line"/>
      <point x="247" y="171"/>
      <point x="280" y="93"/>
      <point x="325" y="9" type="curve"/>
    </contour>
    <contour>
      <point x="43" y="0" type="line"/>
      <point x="238" y="0" type="line"/>
      <point x="230" y="210" type="line"/>
      <point x="239" y="474" type="line"/>
      <point x="45" y="461" type="line"/>
      <point x="52" y="190" type="line"/>
    </contour>
  </outline>
</glyph>
<glyph name="Dje-cy" format="2">
  <advance width="712"/>
  <unicode hex="0402"/>
  <outline>
    <contour>
      <point x="160" y="0" type="line"/>
      <point x="361" y="0" type="line"/>
      <point x="353" y="210" type="line"/>
      <point x="364" y="647" type="line"/>
      <point x="160" y="647" type="line"/>
      <point x="170" y="190" type="line"/>
    </contour>
    <contour>
      <point x="481" y="434" type="curve"/>
      <point x="436" y="417"/>
      <point x="397" y="392"/>
      <point x="367" y="360" type="curve"/>
      <point x="340" y="360" type="line"/>
      <point x="343" y="231" type="line"/>
      <point x="380" y="254"/>
      <point x="410" y="265"/>
      <point x="440" y="265" type="curve" smooth="yes"/>
      <point x="488" y="265"/>
      <point x="504" y="238"/>
      <point x="504" y="154" type="curve" smooth="yes"/>
      <point x="504" y="39"/>
      <point x="474" y="-47"/>
      <point x="414" y="-102" type="curve"/>
      <point x="414" y="-118" type="line"/>
      <point x="488" y="-197" type="line"/>
      <point x="629" y="-104"/>
      <point x="687" y="8"/>
      <point x="687" y="189" type="curve" smooth="yes"/>
      <point x="687" y="368"/>
      <point x="631" y="434"/>
    </contour>
    <contour>
      <point x="20" y="487" type="line"/>
      <point x="133" y="493" type="line"/>
      <point x="420" y="493" type="line"/>
      <point x="552" y="487" type="line"/>
      <point x="563" y="633" type="line"/>
      <point x="552" y="647" type="line"/>
      <point x="19" y="647" type="line"/>
      <point x="8" y="501" type="line"/>
    </contour>
  </outline>
</glyph>
<glyph name="E-cy" format="2">
  <advance width="579"/>
  <unicode hex="0404"/>
  <outline>
    <contour>
      <point x="453" y="245" type="line"/>
      <point x="464" y="391" type="line"/>
      <point x="454" y="405" type="line"/>
      <point x="330" y="402" type="line"/>
      <point x="166" y="402" type="line"/>
      <point x="165" y="259" type="line"/>
      <point x="166" y="248" type="line"/>
      <point x="317" y="248" type="line"/>
    </contour>
    <contour>
      <point x="381" y="658" type="curve" smooth="yes"/>
      <point x="148" y="658"/>
      <point x="25" y="537"/>
      <point x="25" y="308" type="curve" smooth="yes"/>
      <point x="25" y="92"/>
      <point x="132" y="-11"/>
      <point x="358" y="-11" type="curve" smooth="yes"/>
      <point x="413" y="-11"/>
      <point x="468" y="-5"/>
      <point x="525" y="8" type="curve"/>
      <point x="541" y="166" type="line"/>
      <point x="524" y="176" type="line"/>
      <point x="459" y="162"/>
      <point x="412" y="156"/>
      <point x="373" y="156" type="curve" smooth="yes"/>
      <point x="268" y="156"/>
      <point x="236" y="198"/>
      <point x="236" y="331" type="curve" smooth="yes"/>
      <point x="236" y="452"/>
      <point x="268" y="495"/>
      <point x="363" y="495" type="curve" smooth="yes"/>
      <point x="410" y="495"/>
      <point x="468" y="483"/>
      <point x="510" y="464" type="curve"/>
      <point x="524" y="472" type="line"/>
      <point x="558" y="631" type="line"/>
      <point x="502" y="649"/>
      <point x="442" y="658"/>
    </contour>
  </outline>
</glyph>
<glyph name="De-cy" format="2">
  <advance width="737"/>
  <unicode hex="0414"/>
  <anchor x="459" y="0" name="bottomright"/>
  <outline>
    <contour>
      <point x="151" y="89" type="line"/>
      <point x="294" y="131"/>
      <point x="340" y="177"/>
      <point x="376" y="472" type="curve" smooth="yes"/>
      <point x="397" y="647" type="line"/>
      <point x="221" y="647" type="line"/>
      <point x="205" y="509" type="line" smooth="yes"/>
      <point x="176" y="262"/>
      <point x="153" y="198"/>
      <point x="64" y="162" type="curve"/>
    </contour>
    <contour>
      <point x="13" y="-147" type="line"/>
      <point x="161" y="-137" type="line"/>
      <point x="211" y="162" type="line"/>
      <point x="13" y="162" type="line"/>
    </contour>
    <contour>
      <point x="14" y="0" type="line"/>
      <point x="308" y="0" type="line"/>
      <point x="258" y="162" type="line"/>
      <point x="13" y="162" type="line"/>
    </contour>
    <contour>
      <point x="64" y="0" type="line"/>
      <point x="545" y="0" type="line"/>
      <point x="545" y="162" type="line"/>
      <point x="64" y="162" type="line"/>
    </contour>
    <contour>
      <point x="579" y="-147" type="line"/>
      <point x="724" y="-137" type="line"/>
      <point x="724" y="162" type="line"/>
      <point x="526" y="162" type="line"/>
    </contour>
    <contour>
      <point x="439" y="0" type="line"/>
      <point x="714" y="0" type="line"/>
      <point x="724" y="162" type="line"/>
      <point x="489" y="162" type="line"/>
    </contour>
    <contour>
      <point x="441" y="0" type="line"/>
      <point x="642" y="0" type="line"/>
      <point x="634" y="210" type="line"/>
      <point x="645" y="647" type="line"/>
      <point x="441" y="647" type="line"/>
      <point x="451" y="190" type="line"/>
    </contour>
    <contour>
      <point x="301" y="499" type="line"/>
      <point x="546" y="499" type="line"/>
      <point x="546" y="647" type="line"/>
      <point x="221" y="647" type="line"/>
    </contour>
  </outline>
</glyph>
<glyph name="Ze-cy" format="2">
  <advance width="550"/>
  <unicode hex="0417"/>
  <anchor x="272" y="0" name="bottom"/>
  <anchor x="275" y="647" name="top"/>
  <outline>
    <contour>
      <point x="222" y="-12" type="curve" smooth="yes"/>
      <point x="418" y="-12"/>
      <point x="527" y="58"/>
      <point x="527" y="187" type="curve" smooth="yes"/>
      <point x="527" y="284"/>
      <point x="467" y="332"/>
      <point x="328" y="347" type="curve"/>
      <point x="344" y="313" type="line"/>
      <point x="446" y="333"/>
      <point x="506" y="395"/>
      <point x="506" y="482" type="curve" smooth="yes"/>
      <point x="506" y="595"/>
      <point x="406" y="658"/>
      <point x="225" y="658" type="curve" smooth="yes"/>
      <point x="165" y="658"/>
      <point x="108" y="652"/>
      <point x="56" y="639" type="curve"/>
      <point x="40" y="481" type="line"/>
      <point x="57" y="471" type="line"/>
      <point x="123" y="485"/>
      <point x="171" y="491"/>
      <point x="219" y="491" type="curve" smooth="yes"/>
      <point x="282" y="491"/>
      <point x="302" y="481"/>
      <point x="302" y="449" type="curve" smooth="yes"/>
      <point x="302" y="429"/>
      <point x="294" y="411"/>
      <point x="274" y="398" type="curve"/>
      <point x="130" y="400" type="line"/>
      <point x="118" y="266" type="line"/>
      <point x="129" y="252" type="line"/>
      <point x="289" y="252" type="line"/>
      <point x="313" y="241"/>
      <point x="324" y="227"/>
      <point x="324" y="207" type="curve" smooth="yes"/>
      <point x="324" y="172"/>
      <point x="286" y="152"/>
      <point x="221" y="152" type="curve" smooth="yes"/>
      <point x="171" y="152"/>
      <point x="112" y="164"/>
      <point x="69" y="183" type="curve"/>
      <point x="55" y="175" type="line"/>
      <point x="21" y="16" type="line"/>
      <point x="72" y="-2"/>
      <point x="146" y="-12"/>
    </contour>
  </outline>
</glyph>
<glyph name="Ii-cy" format="2">
  <advance width="715"/>
  <unicode hex="0418"/>
  <anchor x="700" y="0" name="bottomright"/>
  <anchor x="360" y="647" name="top"/>
  <outline>
    <contour>
      <point x="59" y="0" type="line"/>
      <point x="269" y="0" type="line"/>
      <point x="452" y="350" type="line"/>
      <point x="464" y="350" type="line"/>
      <point x="463" y="190" type="line"/>
      <point x="453" y="0" type="line"/>
      <point x="654" y="0" type="line"/>
      <point x="646" y="210" type="line"/>
      <point x="657" y="647" type="line"/>
      <point x="443" y="647" type="line"/>
      <point x="261" y="299" type="line"/>
      <point x="249" y="299" type="line"/>
      <point x="263" y="652" type="line"/>
      <point x="59" y="642" type="line"/>
      <point x="69" y="190" type="line"/>
    </contour>
  </outline>
</glyph>
<glyph name="El-cy" format="2">
  <advance width="661"/>
  <unicode hex="041B"/>
  <outline>
    <contour>
      <point x="39" y="-17" type="line"/>
      <point x="88" y="-17" type="line" smooth="yes"/>
      <point x="228" y="-17"/>
      <point x="278" y="85"/>
      <point x="329" y="472" type="curve" smooth="yes"/>
      <point x="352" y="647" type="line"/>
      <point x="176" y="647" type="line"/>
      <point x="160" y="509" type="line" smooth="yes"/>
      <point x="128" y="231"/>
      <point x="100" y="164"/>
      <point x="7" y="148" type="curve"/>
    </contour>
    <contour>
      <point x="399" y="0" type="line"/>
      <point x="600" y="0" type="line"/>
      <point x="592" y="210" type="line"/>
      <point x="603" y="647" type="line"/>
      <point x="399" y="647" type="line"/>
      <point x="409" y="190" type="line"/>
    </contour>
    <contour>
      <point x="256" y="499" type="line"/>
      <point x="504" y="499" type="line"/>
      <point x="504" y="647" type="line"/>
      <point x="176" y="647" type="line"/>
    </contour>
  </outline>
</glyph>
<glyph name="U-cy" format="2">
  <advance width="617"/>
  <unicode hex="0423"/>
  <anchor x="309" y="647" name="top"/>
  <outline>
    <contour>
      <point x="76" y="149" type="line"/>
      <point x="82" y="95"/>
      <point x="92" y="43"/>
      <point x="109" y="-9" type="curve"/>
      <point x="122" y="-11" type="line"/>
      <point x="302" y="-11"/>
      <point x="368" y="35"/>
      <point x="451" y="217" type="curve" smooth="yes"/>
      <point x="615" y="647" type="line"/>
      <point x="421" y="647" type="line"/>
      <point x="402" y="575" type="line"/>
      <point x="307" y="262" type="line" smooth="yes"/>
      <point x="286" y="193"/>
      <point x="249" y="177"/>
      <point x="83" y="166" type="curve"/>
    </contour>
    <contour>
      <point x="267" y="90" type="line"/>
      <point x="348" y="344" type="line"/>
      <point x="320" y="344" type="line"/>
      <point x="240" y="563" type="line"/>
      <point x="212" y="647" type="line"/>
      <point x="-1" y="647" type="line"/>
    </contour>
  </outline>
</glyph>
<glyph name="Che-cy" format="2">
  <advance width="630"/>
  <unicode hex="0427"/>
  <anchor x="368" y="0" name="bottomright"/>
  <anchor x="299" y="647" name="top"/>
  <outline>
    <contour>
      <point x="572" y="647" type="line"/>
      <point x="368" y="647" type="line"/>
      <point x="378" y="190" type="line"/>
      <point x="368" y="0" type="line"/>
      <point x="569" y="0" type="line"/>
      <point x="561" y="210" type="line"/>
    </contour>
    <contour>
      <point x="389" y="381" type="line"/>
      <point x="350" y="357"/>
      <point x="319" y="346"/>
      <point x="295" y="346" type="curve" smooth="yes"/>
      <point x="253" y="346"/>
      <point x="230" y="377"/>
      <point x="231" y="436" type="curve" smooth="yes"/>
      <point x="234" y="647" type="line"/>
      <point x="30" y="647" type="line"/>
      <point x="36" y="384" type="line" smooth="yes"/>
      <point x="39" y="245"/>
      <point x="109" y="178"/>
      <point x="252" y="178" type="curve"/>
      <point x="297" y="195"/>
      <point x="336" y="220"/>
      <point x="366" y="252" type="curve"/>
      <point x="393" y="252" type="line"/>
    </contour>
  </outline>
</glyph>
<glyph name="Sha-cy" format="2">
  <advance width="962"/>
  <unicode hex="0428"/>
  <anchor x="700" y="0" name="bottomright"/>
  <outline>
    <contour>
      <point x="161" y="0" type="line"/>
      <point x="876" y="0" type="line"/>
      <point x="876" y="162" type="line"/>
      <point x="161" y="162" type="line"/>
    </contour>
    <contour>
      <point x="59" y="0" type="line"/>
      <point x="260" y="0" type="line"/>
      <point x="252" y="210" type="line"/>
      <point x="263" y="647" type="line"/>
      <point x="59" y="647" type="line"/>
      <point x="69" y="190" type="line"/>
    </contour>
    <contour>
      <point x="379" y="0" type="line"/>
      <point x="581" y="0" type="line"/>
      <point x="573" y="210" type="line"/>
      <point x="584" y="647" type="line"/>
      <point x="379" y="647" type="line"/>
      <point x="390" y="190" type="line"/>
    </contour>
    <contour>
      <point x="700" y="0" type="line"/>
      <point x="901" y="0" type="line"/>
      <point x="893" y="210" type="line"/>
      <point x="904" y="647" type="line"/>
      <point x="700" y="647" type="line"/>
      <point x="710" y="190" type="line"/>
    </contour>
  </outline>
</glyph>
<glyph name="Hardsign-cy" format="2">
  <advance width="703"/>
  <unicode hex="042A"/>
  <outline>
    <contour>
      <point x="224" y="0" type="line"/>
      <point x="388" y="0" type="line"/>
      <point x="576" y="0"/>
      <point x="691" y="93"/>
      <point x="691" y="241" type="curve" smooth="yes"/>
      <point x="691" y="358"/>
      <point x="618" y="422"/>
      <point x="479" y="422" type="curve" smooth="yes"/>
      <point x="215" y="422" type="line"/>
      <point x="215" y="278" type="line"/>
      <point x="411" y="284" type="line" smooth="yes"/>
      <point x="455" y="285"/>
      <point x="480" y="257"/>
      <point x="480" y="214" type="curve" smooth="yes"/>
      <point x="480" y="177"/>
      <point x="462" y="148"/>
      <point x="428" y="136" type="curve"/>
      <point x="224" y="150" type="line"/>
    </contour>
    <contour>
      <point x="160" y="0" type="line"/>
      <point x="360" y="0" type="line"/>
      <point x="352" y="209" type="line"/>
      <point x="363" y="647" type="line"/>
      <point x="160" y="647" type="line"/>
      <point x="171" y="189" type="line"/>
    </contour>
    <contour>
      <point x="21" y="487" type="line"/>
      <point x="117" y="493" type="line"/>
      <point x="258" y="493" type="line"/>
      <point x="258" y="647" type="line"/>
      <point x="20" y="647" type="line"/>
      <point x="9" y="501" type="line"/>
    </contour>
  </outline>
</glyph>
<glyph name="Softsign-cy" format="2">
  <advance width="611"/>
  <unicode hex="042C"/>
  <outline>
    <contour>
      <point x="130" y="0" type="line"/>
      <point x="294" y="0" type="line"/>
      <point x="484" y="0"/>
      <point x="599" y="93"/>
      <point x="599" y="241" type="curve" smooth="yes"/>
      <point x="599" y="358"/>
      <point x="526" y="422"/>
      <point x="386" y="422" type="curve" smooth="yes"/>
      <point x="121" y="422" type="line"/>
      <point x="121" y="278" type="line"/>
      <point x="317" y="284" type="line" smooth="yes"/>
      <point x="362" y="285"/>
      <point x="388" y="257"/>
      <point x="388" y="214" type="curve" smooth="yes"/>
      <point x="388" y="177"/>
      <point x="370" y="148"/>
      <point x="335" y="136" type="curve"/>
      <point x="130" y="150" type="line"/>
    </contour>
    <contour>
      <point x="59" y="0" type="line"/>
      <point x="259" y="0" type="line"/>
      <point x="251" y="209" type="line"/>
      <point x="262" y="648" type="line"/>
      <point x="59" y="648" type="line"/>
      <point x="70" y="189" type="line"/>
    </contour>
  </outline>
</glyph>
<glyph name="Iu-cy" format="2">
  <advance width="924"/>
  <unicode hex="042E"/>
  <outline>
    <contour>
      <point x="263" y="647" type="line"/>
      <point x="59" y="647" type="line"/>
      <point x="69" y="190" type="line"/>
      <point x="59" y="0" type="line"/>
      <point x="260" y="0" type="line"/>
      <point x="252" y="210" type="line"/>
    </contour>
    <contour>
      <point x="205" y="403" type="line"/>
      <point x="205" y="238" type="line"/>
      <point x="285" y="242" type="line"/>
      <point x="388" y="240" type="line"/>
      <point x="388" y="402" type="line"/>
      <point x="294" y="400" type="line"/>
    </contour>
    <contour>
      <point x="625" y="659" type="curve" smooth="yes"/>
      <point x="433" y="659"/>
      <point x="323" y="532"/>
      <point x="323" y="312" type="curve" smooth="yes"/>
      <point x="323" y="107"/>
      <point x="423" y="-12"/>
      <point x="596" y="-12" type="curve" smooth="yes"/>
      <point x="788" y="-12"/>
      <point x="898" y="116"/>
      <point x="898" y="340" type="curve" smooth="yes"/>
      <point x="898" y="542"/>
      <point x="798" y="659"/>
    </contour>
    <contour>
      <point x="607" y="499" type="curve" smooth="yes"/>
      <point x="672" y="499"/>
      <point x="688" y="459"/>
      <point x="688" y="297" type="curve" smooth="yes"/>
      <point x="688" y="167"/>
      <point x="674" y="136"/>
      <point x="614" y="136" type="curve" smooth="yes"/>
      <point x="549" y="136"/>
      <point x="533" y="177"/>
      <point x="533" y="339" type="curve" smooth="yes"/>
      <point x="533" y="467"/>
      <point x="548" y="499"/>
    </contour>
  </outline>
</glyph>
<glyph name="Ia-cy" format="2">
  <advance width="637"/>
  <unicode hex="042F"/>
  <outline>
    <contour>
      <point x="299" y="193" type="curve"/>
      <point x="507" y="193" type="line"/>
      <point x="507" y="349" type="line"/>
      <point x="319" y="335" type="line"/>
      <point x="273" y="356"/>
      <point x="257" y="381"/>
      <point x="257" y="428" type="curve" smooth="yes"/>
      <point x="257" y="483"/>
      <point x="279" y="507"/>
      <point x="331" y="509" type="curve"/>
      <point x="460" y="500" type="line"/>
      <point x="578" y="647" type="line"/>
      <point x="311" y="649" type="line"/>
      <point x="157" y="649"/>
      <point x="46" y="556"/>
      <point x="46" y="426" type="curve" smooth="yes"/>
      <point x="46" y="310"/>
      <point x="134" y="230"/>
    </contour>
    <contour>
      <point x="212" y="-12" type="curve"/>
      <point x="231" y="4" type="line"/>
      <point x="274" y="96"/>
      <point x="319" y="191"/>
      <point x="356" y="289" type="curve"/>
      <point x="195" y="291" type="line"/>
      <point x="123" y="190"/>
      <point x="64" y="113"/>
      <point x="8" y="47" type="curve"/>
      <point x="11" y="25" type="line"/>
      <point x="70" y="4"/>
      <point x="137" y="-8"/>
    </contour>
    <contour>
      <point x="377" y="0" type="line"/>
      <point x="578" y="0" type="line"/>
      <point x="568" y="190" type="line"/>
      <point x="578" y="647" type="line"/>
      <point x="374" y="637" type="line"/>
      <point x="385" y="210" type="line"/>
    </contour>
  </outline>
</glyph>
<glyph name="ve-cy" format="2">
  <advance width="515"/>
  <unicode hex="0432"/>
  <outline>
    <contour>
      <point x="311" y="472" type="curve" smooth="yes"/>
      <point x="46" y="472" type="line"/>
      <point x="164" y="356" type="line"/>
      <point x="198" y="359"/>
      <point x="213" y="360"/>
      <point x="230" y="360" type="curve" smooth="yes"/>
      <point x="296" y="360"/>
      <point x="310" y="352"/>
      <point x="310" y="323" type="curve" smooth="yes"/>
      <point x="310" y="301"/>
      <point x="303" y="289"/>
      <point x="282" y="281" type="curve"/>
      <point x="128" y="288" type="line"/>
      <point x="128" y="174" type="line"/>
      <point x="298" y="177" type="line"/>
      <point x="316" y="167"/>
      <point x="321" y="159"/>
      <point x="321" y="144" type="curve" smooth="yes"/>
      <point x="321" y="118"/>
      <point x="304" y="105"/>
      <point x="279" y="105" type="curve" smooth="yes"/>
      <point x="260" y="105"/>
      <point x="202" y="110"/>
      <point x="173" y="117" type="curve"/>
      <point x="44" y="0" type="line"/>
      <point x="111" y="-3"/>
      <point x="203" y="-6"/>
      <point x="250" y="-6" type="curve" smooth="yes"/>
      <point x="409" y="-6"/>
      <point x="498" y="34"/>
      <point x="498" y="138" type="curve" smooth="yes"/>
      <point x="498" y="190"/>
      <point x="476" y="223"/>
      <point x="416" y="242" type="curve"/>
      <point x="462" y="264"/>
      <point x="487" y="303"/>
      <point x="487" y="349" type="curve" smooth="yes"/>
      <point x="487" y="430"/>
      <point x="422" y="472"/>
    </contour>
    <contour>
      <point x="44" y="0" type="line"/>
      <point x="229" y="0" type="line"/>
      <point x="221" y="210" type="line"/>
      <point x="231" y="472" type="line"/>
      <point x="46" y="472" type="line"/>
      <point x="53" y="190" type="line"/>
    </contour>
  </outline>
</glyph>
<glyph name="ge-cy" format="2">
  <advance width="394"/>
  <unicode hex="0433"/>
  <anchor x="44" y="0" name="bottomright"/>
  <anchor x="168" y="214" name="center"/>
  <anchor x="197" y="472" name="top"/>
  <outline>
    <contour>
      <point x="44" y="0" type="line"/>
      <point x="239" y="0" type="line"/>
      <point x="231" y="210" type="line"/>
      <point x="240" y="472" type="line"/>
      <point x="46" y="472" type="line"/>
      <point x="53" y="190" type="line"/>
    </contour>
    <contour>
      <point x="384" y="334" type="line"/>
      <point x="394" y="461" type="line"/>
      <point x="386" y="472" type="line"/>
      <point x="190" y="472" type="line"/>
      <point x="191" y="349" type="line"/>
      <point x="190" y="340" type="line"/>
      <point x="277" y="340" type="line"/>
    </contour>
  </outline>
</glyph>
<glyph name="ze-cy" format="2">
  <advance width="424"/>
  <unicode hex="0437"/>
  <anchor x="211" y="0" name="bottom"/>
  <anchor x="212" y="471" name="top"/>
  <outline>
    <contour>
      <point x="169" y="-9" type="curve" smooth="yes"/>
      <point x="325" y="-9"/>
      <point x="409" y="41"/>
      <point x="409" y="137" type="curve" smooth="yes"/>
      <point x="409" y="209"/>
      <point x="365" y="242"/>
      <point x="257" y="253" type="curve"/>
      <point x="271" y="225" type="line"/>
      <point x="350" y="239"/>
      <point x="396" y="283"/>
      <point x="396" y="348" type="curve" smooth="yes"/>
      <point x="396" y="434"/>
      <point x="317" y="480"/>
      <point x="171" y="480" type="curve" smooth="yes"/>
      <point x="126" y="480"/>
      <point x="84" y="479"/>
      <point x="45" y="474" type="curve"/>
      <point x="32" y="340" type="line"/>
      <point x="46" y="331" type="line"/>
      <point x="98" y="336"/>
      <point x="132" y="337"/>
      <point x="166" y="337" type="curve" smooth="yes"/>
      <point x="210" y="337"/>
      <point x="220" y="335"/>
      <point x="220" y="319" type="curve" smooth="yes"/>
      <point x="220" y="312"/>
      <point x="219" y="306"/>
      <point x="210" y="298" type="curve"/>
      <point x="100" y="299" type="line"/>
      <point x="89" y="184" type="line"/>
      <point x="98" y="172" type="line"/>
      <point x="223" y="172" type="line"/>
      <point x="232" y="164"/>
      <point x="234" y="160"/>
      <point x="234" y="155" type="curve" smooth="yes"/>
      <point x="234" y="139"/>
      <point x="211" y="132"/>
      <point x="168" y="132" type="curve" smooth="yes"/>
      <point x="133" y="132"/>
      <point x="88" y="138"/>
      <point x="56" y="148" type="curve"/>
      <point x="44" y="141" type="line"/>
      <point x="15" y="6" type="line"/>
      <point x="54" y="-4"/>
      <point x="111" y="-9"/>
    </contour>
  </outline>
</glyph>
<glyph name="ii-cy" format="2">
  <advance width="572"/>
  <unicode hex="0438"/>
  <anchor x="549" y="0" name="bottomright"/>
  <anchor x="286" y="472" name="top"/>
  <outline>
    <contour>
      <point x="44" y="0" type="line"/>
      <point x="233" y="0" type="line"/>
      <point x="333" y="227" type="line"/>
      <point x="343" y="227" type="line"/>
      <point x="342" y="177" type="line"/>
      <point x="333" y="0" type="line"/>
      <point x="527" y="0" type="line"/>
      <point x="518" y="215" type="line"/>
      <point x="527" y="472" type="line"/>
      <point x="334" y="472" type="line"/>
      <point x="241" y="259" type="line"/>
      <point x="231" y="259" type="line"/>
      <point x="238" y="476" type="line"/>
      <point x="44" y="468" type="line"/>
      <point x="53" y="190" type="line"/>
    </contour>
  </outline>
</glyph>
<glyph name="pe-cy" format="2">
  <advance width="560"/>
  <unicode hex="043F"/>
  <anchor x="319" y="0" name="bottomright"/>
  <outline>
    <contour>
      <point x="319" y="0" type="line"/>
      <point x="514" y="0" type="line"/>
      <point x="506" y="210" type="line"/>
      <point x="515" y="472" type="line"/>
      <point x="321" y="472" type="line"/>
      <point x="328" y="190" type="line"/>
    </contour>
    <contour>
      <point x="44" y="0" type="line"/>
      <point x="239" y="0" type="line"/>
      <point x="231" y="210" type="line"/>
      <point x="240" y="472" type="line"/>
      <point x="46" y="472" type="line"/>
      <point x="53" y="190" type="line"/>
    </contour>
    <contour>
      <point x="134" y="338" type="line"/>
      <point x="420" y="338" type="line"/>
      <point x="420" y="472" type="line"/>
      <point x="134" y="472" type="line"/>
    </contour>
  </outline>
</glyph>
<glyph name="te-cy" format="2">
  <advance width="428"/>
  <unicode hex="0442"/>
  <anchor x="406" y="0" name="bottomright"/>
  <outline>
    <contour>
      <point x="419" y="472" type="line"/>
      <point x="9" y="472" type="line"/>
      <point x="0" y="347" type="line"/>
      <point x="10" y="335" type="line"/>
      <point x="111" y="340" type="line"/>
      <point x="318" y="340" type="line"/>
      <point x="419" y="335" type="line"/>
      <point x="429" y="461" type="line"/>
    </contour>
    <contour>
      <point x="117" y="0" type="line"/>
      <point x="312" y="0" type="line"/>
      <point x="304" y="210" type="line"/>
      <point x="313" y="472" type="line"/>
      <point x="119" y="472" type="line"/>
      <point x="126" y="190" type="line"/>
    </contour>
  </outline>
</glyph>
<glyph name="ef-cy" format="2">
  <advance width="723"/>
  <unicode hex="0444"/>
  <outline>
    <contour>
      <point x="354" y="-17" type="curve" smooth="yes"/>
      <point x="594" y="-17"/>
      <point x="713" y="67"/>
      <point x="713" y="238" type="curve" smooth="yes"/>
      <point x="713" y="405"/>
      <point x="600" y="484"/>
      <point x="366" y="484" type="curve" smooth="yes"/>
      <point x="126" y="484"/>
      <point x="10" y="402"/>
      <point x="10" y="231" type="curve" smooth="yes"/>
      <point x="10" y="63"/>
      <point x="122" y="-17"/>
    </contour>
    <contour>
      <point x="268" y="-185" type="line"/>
      <point x="456" y="-185" type="line"/>
      <point x="451" y="215" type="line"/>
      <point x="459" y="655" type="line"/>
      <point x="267" y="642" type="line"/>
      <point x="273" y="190" type="line"/>
    </contour>
    <contour>
      <point x="363" y="110" type="curve" smooth="yes"/>
      <point x="235" y="110"/>
      <point x="193" y="142"/>
      <point x="193" y="240" type="curve" smooth="yes"/>
      <point x="193" y="329"/>
      <point x="228" y="352"/>
      <point x="358" y="352" type="curve" smooth="yes"/>
      <point x="492" y="352"/>
      <point x="530" y="327"/>
      <point x="530" y="235" type="curve" smooth="yes"/>
      <point x="530" y="140"/>
      <point x="489" y="110"/>
    </contour>
  </outline>
</glyph>
<glyph name="tse-cy" format="2">
  <advance width="585"/>
  <unicode hex="0446"/>
  <anchor x="318" y="0" name="_bottomright"/>
  <outline>
    <contour>
      <point x="143" y="139" type="line"/>
      <point x="143" y="0" type="line"/>
      <point x="415" y="0" type="line"/>
      <point x="415" y="139" type="line"/>
    </contour>
    <contour>
      <point x="44" y="0" type="line"/>
      <point x="239" y="0" type="line"/>
      <point x="231" y="210" type="line"/>
      <point x="240" y="472" type="line"/>
      <point x="46" y="472" type="line"/>
      <point x="53" y="190" type="line"/>
    </contour>
    <contour>
      <point x="318" y="0" type="line"/>
      <point x="513" y="0" type="line"/>
      <point x="505" y="210" type="line"/>
      <point x="514" y="472" type="line"/>
      <point x="320" y="472" type="line"/>
      <point x="327" y="190" type="line"/>
    </contour>
    <component base="descender-cy" xOffset="313"/>
  </outline>
</glyph>
<glyph name="sha-cy" format="2">
  <advance width="772"/>
  <unicode hex="0448"/>
  <anchor x="548" y="0" name="bottomright"/>
  <outline>
    <contour>
      <point x="126" y="0" type="line"/>
      <point x="651" y="0" type="line"/>
      <point x="651" y="139" type="line"/>
      <point x="126" y="139" type="line"/>
    </contour>
    <contour>
      <point x="45" y="0" type="line"/>
      <point x="224" y="0" type="line"/>
      <point x="216" y="209" type="line"/>
      <point x="225" y="470" type="line"/>
      <point x="47" y="470" type="line"/>
      <point x="53" y="190" type="line"/>
    </contour>
    <contour>
      <point x="295" y="0" type="line"/>
      <point x="475" y="0" type="line"/>
      <point x="468" y="209" type="line"/>
      <point x="477" y="470" type="line"/>
      <point x="297" y="470" type="line"/>
      <point x="304" y="190" type="line"/>
    </contour>
    <contour>
      <point x="548" y="0" type="line"/>
      <point x="726" y="0" type="line"/>
      <point x="719" y="209" type="line"/>
      <point x="727" y="470" type="line"/>
      <point x="550" y="470" type="line"/>
      <point x="556" y="190" type="line"/>
    </contour>
  </outline>
</glyph>
<glyph name="hardsign-cy" format="2">
  <advance width="557"/>
  <unicode hex="044A"/>
  <outline>
    <contour>
      <point x="184" y="0" type="line"/>
      <point x="313" y="0" type="line"/>
      <point x="462" y="0"/>
      <point x="556" y="72"/>
      <point x="556" y="187" type="curve" smooth="yes"/>
      <point x="556" y="273"/>
      <point x="496" y="319"/>
      <point x="384" y="319" type="curve" smooth="yes"/>
      <point x="176" y="319" type="line"/>
      <point x="176" y="204" type="line"/>
      <point x="329" y="209" type="line" smooth="yes"/>
      <point x="354" y="210"/>
      <point x="372" y="191"/>
      <point x="372" y="164" type="curve" smooth="yes"/>
      <point x="372" y="145"/>
      <point x="360" y="124"/>
      <point x="343" y="115" type="curve"/>
      <point x="184" y="124" type="line"/>
    </contour>
    <contour>
      <point x="109" y="0" type="line"/>
      <point x="294" y="0" type="line"/>
      <point x="286" y="210" type="line"/>
      <point x="296" y="472" type="line"/>
      <point x="111" y="472" type="line"/>
      <point x="118" y="190" type="line"/>
    </contour>
    <contour>
      <point x="10" y="334" type="line"/>
      <point x="94" y="340" type="line"/>
      <point x="191" y="340" type="line"/>
      <point x="191" y="472" type="line"/>
      <point x="9" y="472" type="line"/>
      <point x="0" y="346" type="line"/>
    </contour>
  </outline>
</glyph>
<glyph name="softsign-cy" format="2">
  <advance width="508"/>
  <unicode hex="044C"/>
  <outline>
    <contour>
      <point x="126" y="0" type="line"/>
      <point x="260" y="0" type="line"/>
      <point x="412" y="0"/>
      <point x="507" y="72"/>
      <point x="507" y="187" type="curve" smooth="yes"/>
      <point x="507" y="273"/>
      <point x="446" y="319"/>
      <point x="331" y="319" type="curve" smooth="yes"/>
      <point x="118" y="319" type="line"/>
      <point x="118" y="204" type="line"/>
      <point x="276" y="209" type="line" smooth="yes"/>
      <point x="304" y="210"/>
      <point x="323" y="191"/>
      <point x="323" y="164" type="curve" smooth="yes"/>
      <point x="323" y="145"/>
      <point x="310" y="124"/>
      <point x="291" y="115" type="curve"/>
      <point x="126" y="124" type="line"/>
    </contour>
    <contour>
      <point x="44" y="0" type="line"/>
      <point x="239" y="0" type="line"/>
      <point x="231" y="210" type="line"/>
      <point x="240" y="472" type="line"/>
      <point x="46" y="472" type="line"/>
      <point x="53" y="190" type="line"/>
    </contour>
  </outline>
</glyph>
<glyph name="iu-cy" format="2">
  <advance width="749"/>
  <unicode hex="044E"/>
  <anchor x="371" y="472" name="top"/>
  <outline>
    <contour>
      <point x="44" y="0" type="line"/>
      <point x="239" y="0" type="line"/>
      <point x="231" y="210" type="line"/>
      <point x="240" y="472" type="line"/>
      <point x="46" y="472" type="line"/>
      <point x="53" y="190" type="line"/>
    </contour>
    <contour>
      <point x="180" y="159" type="line"/>
      <point x="248" y="163" type="line"/>
      <point x="320" y="161" type="line"/>
      <point x="320" y="304" type="line"/>
      <point x="256" y="303" type="line"/>
      <point x="180" y="305" type="line"/>
    </contour>
    <contour>
      <point x="496" y="-12" type="curve" smooth="yes"/>
      <point x="653" y="-12"/>
      <point x="733" y="76"/>
      <point x="733" y="247" type="curve" smooth="yes"/>
      <point x="733" y="403"/>
      <point x="659" y="484"/>
      <point x="512" y="484" type="curve" smooth="yes"/>
      <point x="355" y="484"/>
      <point x="275" y="395"/>
      <point x="275" y="223" type="curve" smooth="yes"/>
      <point x="275" y="68"/>
      <point x="349" y="-12"/>
    </contour>
    <contour>
      <point x="510" y="114" type="curve" smooth="yes"/>
      <point x="464" y="114"/>
      <point x="457" y="140"/>
      <point x="457" y="257" type="curve" smooth="yes"/>
      <point x="457" y="336"/>
      <point x="462" y="353"/>
      <point x="498" y="353" type="curve" smooth="yes"/>
      <point x="543" y="353"/>
      <point x="550" y="327"/>
      <point x="550" y="211" type="curve" smooth="yes"/>
      <point x="550" y="131"/>
      <point x="545" y="114"/>
    </contour>
  </outline>
</glyph>
<glyph name="e-cy" format="2">
  <advance width="450"/>
  <unicode hex="0454"/>
  <outline>
    <contour>
      <point x="269" y="-12" type="curve" smooth="yes"/>
      <point x="316" y="-12"/>
      <point x="369" y="-7"/>
      <point x="404" y="1" type="curve"/>
      <point x="424" y="134" type="line"/>
      <point x="409" y="145" type="line"/>
      <point x="369" y="135"/>
      <point x="334" y="130"/>
      <point x="303" y="130" type="curve" smooth="yes"/>
      <point x="227" y="130"/>
      <point x="189" y="167"/>
      <point x="189" y="242" type="curve" smooth="yes"/>
      <point x="189" y="308"/>
      <point x="216" y="336"/>
      <point x="285" y="336" type="curve" smooth="yes"/>
      <point x="316" y="336"/>
      <point x="340" y="331"/>
      <point x="386" y="315" type="curve"/>
      <point x="401" y="322" type="line"/>
      <point x="433" y="460" type="line"/>
      <point x="391" y="475"/>
      <point x="340" y="484"/>
      <point x="287" y="484" type="curve" smooth="yes"/>
      <point x="113" y="484"/>
      <point x="13" y="390"/>
      <point x="13" y="226" type="curve" smooth="yes"/>
      <point x="13" y="71"/>
      <point x="102" y="-12"/>
    </contour>
    <contour>
      <point x="351" y="174" type="line"/>
      <point x="360" y="287" type="line"/>
      <point x="351" y="299" type="line"/>
      <point x="264" y="297" type="line"/>
      <point x="141" y="296" type="line"/>
      <point x="141" y="176" type="line"/>
      <point x="254" y="176" type="line"/>
    </contour>
  </outline>
</glyph>
<glyph name="nje-cy" format="2">
  <advance width="793"/>
  <unicode hex="045A"/>
  <outline>
    <contour>
      <point x="412" y="0" type="line"/>
      <point x="546" y="0" type="line"/>
      <point x="698" y="0"/>
      <point x="793" y="70"/>
      <point x="793" y="182" type="curve" smooth="yes"/>
      <point x="793" y="265"/>
      <point x="732" y="312"/>
      <point x="617" y="312" type="curve" smooth="yes"/>
      <point x="404" y="312" type="line"/>
      <point x="404" y="189" type="line"/>
      <point x="562" y="194" type="line" smooth="yes"/>
      <point x="590" y="195"/>
      <point x="609" y="179"/>
      <point x="609" y="154" type="curve" smooth="yes"/>
      <point x="609" y="137"/>
      <point x="596" y="118"/>
      <point x="577" y="110" type="curve"/>
      <point x="412" y="118" type="line"/>
    </contour>
    <contour>
      <point x="44" y="0" type="line"/>
      <point x="239" y="0" type="line"/>
      <point x="231" y="210" type="line"/>
      <point x="240" y="472" type="line"/>
      <point x="46" y="472" type="line"/>
      <point x="53" y="190" type="line"/>
    </contour>
    <contour>
      <point x="207" y="167" type="line"/>
      <point x="281" y="171" type="line"/>
      <point x="359" y="169" type="line"/>
      <point x="359" y="308" type="line"/>
      <point x="291" y="307" type="line"/>
      <point x="207" y="309" type="line"/>
    </contour>
    <contour>
      <point x="330" y="0" type="line"/>
      <point x="525" y="0" type="line"/>
      <point x="517" y="210" type="line"/>
      <point x="526" y="472" type="line"/>
      <point x="332" y="472" type="line"/>
      <point x="339" y="190" type="line"/>
    </contour>
  </outline>
</glyph>
<glyph name="dzhe-cy" format="2">
  <advance width="559"/>
  <unicode hex="045F"/>
  <outline>
    <contour>
      <point x="143" y="139" type="line"/>
      <point x="143" y="0" type="line"/>
      <point x="415" y="0" type="line"/>
      <point x="415" y="139" type="line"/>
    </contour>
    <contour>
      <point x="44" y="0" type="line"/>
      <point x="239" y="0" type="line"/>
      <point x="231" y="210" type="line"/>
      <point x="240" y="472" type="line"/>
      <point x="46" y="472" type="line"/>
      <point x="53" y="190" type="line"/>
    </contour>
    <contour>
      <point x="318" y="0" type="line"/>
      <point x="513" y="0" type="line"/>
      <point x="505" y="210" type="line"/>
      <point x="514" y="472" type="line"/>
      <point x="320" y="472" type="line"/>
      <point x="327" y="190" type="line"/>
    </contour>
    <component base="descender-cy.alt" xOffset="154"/>
  </outline>
</glyph>
<glyph name="Izhitsa-cy" format="2">
  <advance width="624"/>
  <unicode hex="0474"/>
  <outline>
    <contour>
      <point x="178" y="0" type="line"/>
      <point x="420" y="0" type="line"/>
      <point x="538" y="416" type="line" smooth="yes"/>
      <point x="555" y="474"/>
      <point x="570" y="489"/>
      <point x="610" y="492" type="curve"/>
      <point x="617" y="507" type="line"/>
      <point x="592" y="654" type="line"/>
      <point x="467" y="654"/>
      <point x="420" y="617"/>
      <point x="389" y="498" type="curve" smooth="yes"/>
      <point x="308" y="179" type="line"/>
      <point x="297" y="179" type="line"/>
      <point x="228" y="540" type="line"/>
      <point x="210" y="647" type="line"/>
      <point x="7" y="647" type="line"/>
    </contour>
  </outline>
</glyph>
<glyph name="Gheupturn-cy" format="2">
  <advance width="497"/>
  <unicode hex="0490"/>
  <outline>
    <contour>
      <point x="59" y="0" type="line"/>
      <point x="260" y="0" type="line"/>
      <point x="252" y="210" type="line"/>
      <point x="263" y="647" type="line"/>
      <point x="59" y="647" type="line"/>
      <point x="69" y="190" type="line"/>
    </contour>
    <contour>
      <point x="208" y="493" type="line"/>
      <point x="331" y="493" type="line"/>
      <point x="476" y="487" type="line"/>
      <point x="478" y="647" type="line"/>
      <point x="208" y="647" type="line"/>
    </contour>
    <contour>
      <point x="476" y="487" type="line"/>
      <point x="492" y="761" type="line"/>
      <point x="363" y="769" type="line"/>
      <point x="300" y="516" type="line"/>
    </contour>
  </outline>
</glyph>
<glyph name="gheupturn-cy" format="2">
  <advance width="399"/>
  <unicode hex="0491"/>
  <outline>
    <contour>
      <point x="388" y="472" type="line"/>
      <point x="190" y="472" type="line"/>
      <point x="191" y="349" type="line"/>
      <point x="190" y="340" type="line"/>
      <point x="278" y="340" type="line"/>
      <point x="386" y="334" type="line"/>
    </contour>
    <contour>
      <point x="44" y="0" type="line"/>
      <point x="239" y="0" type="line"/>
      <point x="231" y="210" type="line"/>
      <point x="240" y="472" type="line"/>
      <point x="46" y="472" type="line"/>
      <point x="53" y="190" type="line"/>
    </contour>
    <contour>
      <point x="387" y="334" type="line"/>
      <point x="402" y="590" type="line"/>
      <point x="283" y="598" type="line"/>
      <point x="225" y="361" type="line"/>
    </contour>
  </outline>
</glyph>
<glyph name="Ghestroke-cy" format="2">
  <advance width="508"/>
  <unicode hex="0492"/>
  <outline>
    <contour>
      <point x="274" y="647" type="line"/>
      <point x="70" y="647" type="line"/>
      <point x="80" y="190" type="line"/>
      <point x="70" y="0" type="line"/>
      <point x="271" y="0" type="line"/>
      <point x="263" y="210" type="line"/>
    </contour>
    <contour>
      <point x="469" y="647" type="line"/>
      <point x="199" y="647" type="line"/>
      <point x="199" y="504" type="line"/>
      <point x="199" y="493" type="line"/>
      <point x="322" y="493" type="line"/>
      <point x="467" y="487" type="line"/>
      <point x="479" y="633" type="line"/>
    </contour>
    <contour>
      <point x="407.8224" y="349" type="line"/>
      <point x="26.0004" y="349" type="line"/>
      <point x="20.5458" y="258" type="line"/>
      <point x="27.818600000000004" y="248" type="line"/>
      <point x="410.54970000000003" y="248" type="line"/>
      <point x="415.09520000000003" y="339" type="line"/>
    </contour>
  </outline>
</glyph>
<glyph name="ghestroke-cy" format="2">
  <advance width="394"/>
  <unicode hex="0493"/>
  <outline>
    <contour>
      <point x="44" y="0" type="line"/>
      <point x="239" y="0" type="line"/>
      <point x="231" y="210" type="line"/>
      <point x="240" y="472" type="line"/>
      <point x="46" y="472" type="line"/>
      <point x="53" y="190" type="line"/>
    </contour>
    <contour>
      <point x="384" y="334" type="line"/>
      <point x="394" y="461" type="line"/>
      <point x="386" y="472" type="line"/>
      <point x="190" y="472" type="line"/>
      <point x="191" y="349" type="line"/>
      <point x="190" y="340" type="line"/>
      <point x="277" y="340" type="line"/>
    </contour>
    <contour>
      <point x="334.20000000000005" y="264" type="line"/>
      <point x="-1.7999999999999972" y="264" type="line"/>
      <point x="-6.599999999999998" y="173" type="line"/>
      <point x="-0.19999999999999574" y="163" type="line"/>
      <point x="336.6" y="163" type="line"/>
      <point x="340.6" y="254" type="line"/>
    </contour>
  </outline>
</glyph>
<glyph name="Ghemiddlehook-cy" format="2">
  <advance width="611"/>
  <unicode hex="0494"/>
  <outline>
    <contour>
      <point x="387" y="-197" type="line"/>
      <point x="528" y="-104"/>
      <point x="586" y="8"/>
      <point x="586" y="189" type="curve" smooth="yes"/>
      <point x="586" y="368"/>
      <point x="530" y="434"/>
      <point x="380" y="434" type="curve"/>
      <point x="335" y="417"/>
      <point x="296" y="392"/>
      <point x="266" y="360" type="curve"/>
      <point x="239" y="360" type="line"/>
      <point x="242" y="231" type="line"/>
      <point x="279" y="254"/>
      <point x="309" y="265"/>
      <point x="339" y="265" type="curve" smooth="yes"/>
      <point x="387" y="265"/>
      <point x="403" y="238"/>
      <point x="403" y="154" type="curve" smooth="yes"/>
      <point x="403" y="39"/>
      <point x="373" y="-47"/>
      <point x="313" y="-102" type="curve"/>
      <point x="313" y="-118" type="line"/>
    </contour>
    <contour>
      <point x="59" y="0" type="line"/>
      <point x="260" y="0" type="line"/>
      <point x="252" y="210" type="line"/>
      <point x="263" y="647" type="line"/>
      <point x="59" y="647" type="line"/>
      <point x="69" y="190" type="line"/>
    </contour>
    <contour>
      <point x="208" y="493" type="line"/>
      <point x="353" y="493" type="line"/>
      <point x="491" y="487" type="line"/>
      <point x="503" y="633" type="line"/>
      <point x="493" y="647" type="line"/>
      <point x="208" y="647" type="line"/>
      <point x="208" y="504" type="line"/>
    </contour>
  </outline>
</glyph>
<glyph name="ghemiddlehook-cy" format="2">
  <advance width="500"/>
  <unicode hex="0495"/>
  <outline>
    <contour>
      <point x="318" y="-174" type="line"/>
      <point x="430" y="-94"/>
      <point x="486" y="-12"/>
      <point x="486" y="127" type="curve" smooth="yes"/>
      <point x="486" y="250"/>
      <point x="432" y="297"/>
      <point x="320" y="297" type="curve"/>
      <point x="288" y="284"/>
      <point x="261" y="266"/>
      <point x="241" y="244" type="curve"/>
      <point x="220" y="244" type="line"/>
      <point x="223" y="147" type="line"/>
      <point x="247" y="158"/>
      <point x="263" y="162"/>
      <point x="278" y="162" type="curve" smooth="yes"/>
      <point x="308" y="162"/>
      <point x="312" y="149"/>
      <point x="312" y="98" type="curve" smooth="yes"/>
      <point x="312" y="21"/>
      <point x="293" y="-52"/>
      <point x="251" y="-96" type="curve"/>
      <point x="251" y="-109" type="line"/>
    </contour>
    <contour>
      <point x="44" y="0" type="line"/>
      <point x="239" y="0" type="line"/>
      <point x="231" y="210" type="line"/>
      <point x="240" y="472" type="line"/>
      <point x="46" y="472" type="line"/>
      <point x="53" y="190" type="line"/>
    </contour>
    <contour>
      <point x="413" y="335" type="line"/>
      <point x="423" y="461" type="line"/>
      <point x="413" y="472" type="line"/>
      <point x="153" y="472" type="line"/>
      <point x="153" y="340" type="line"/>
      <point x="314" y="340" type="line"/>
    </contour>
  </outline>
</glyph>
<glyph name="Zhedescender-cy" format="2">
  <advance width="1016"/>
  <unicode hex="0496"/>
  <anchor x="713" y="0" name="bottomright"/>
  <anchor x="470" y="647" name="top"/>
  <outline>
    <contour>
      <point x="204" y="-12" type="curve"/>
      <point x="226" y="0" type="line"/>
      <point x="285" y="109"/>
      <point x="342" y="218"/>
      <point x="395" y="332" type="curve"/>
      <point x="395" y="344" type="line"/>
      <point x="264" y="577" type="line"/>
      <point x="232" y="647" type="line"/>
      <point x="24" y="647" type="line"/>
      <point x="200" y="341" type="line"/>
      <point x="139" y="239"/>
      <point x="73" y="138"/>
      <point x="5" y="41" type="curve"/>
      <point x="8" y="20" type="line"/>
      <point x="74" y="5"/>
      <point x="139" y="-6"/>
    </contour>
    <contour>
      <point x="858" y="-147" type="line"/>
      <point x="1003" y="-137" type="line"/>
      <point x="1003" y="162" type="line"/>
      <point x="805" y="162" type="line"/>
    </contour>
    <contour>
      <point x="734" y="-11" type="line"/>
      <point x="993" y="0" type="line"/>
      <point x="1003" y="162" type="line"/>
      <point x="775" y="162" type="line"/>
    </contour>
    <contour>
      <point x="734" y="-11" type="line"/>
      <point x="931" y="20" type="line"/>
      <point x="934" y="41" type="line"/>
      <point x="866" y="138"/>
      <point x="800" y="239"/>
      <point x="739" y="341" type="curve"/>
      <point x="915" y="647" type="line"/>
      <point x="707" y="647" type="line"/>
      <point x="675" y="577" type="line"/>
      <point x="544" y="344" type="line"/>
      <point x="544" y="332" type="line"/>
      <point x="597" y="218"/>
      <point x="653" y="109"/>
      <point x="713" y="0" type="curve"/>
    </contour>
    <contour>
      <point x="370" y="0" type="line"/>
      <point x="567" y="0" type="line"/>
      <point x="559" y="210" type="line"/>
      <point x="570" y="647" type="line"/>
      <point x="370" y="647" type="line"/>
      <point x="379" y="190" type="line"/>
    </contour>
  </outline>
</glyph>
<glyph name="kabashkir-cy" format="2">
  <advance width="605"/>
  <unicode hex="04A1"/>
  <outline>
    <contour>
      <point x="418" y="-12" type="line"/>
      <point x="480" y="-6"/>
      <point x="539" y="0"/>
      <point x="601" y="12" type="curve"/>
      <point x="602" y="32" type="line"/>
      <point x="556" y="110"/>
      <point x="513" y="186"/>
      <point x="475" y="263" type="curve"/>
      <point x="595" y="472" type="line"/>
      <point x="396" y="472" type="line"/>
      <point x="375" y="416" type="line"/>
      <point x="290" y="257" type="line"/>
      <point x="290" y="245" type="line"/>
      <point x="318" y="160"/>
      <point x="354" y="79"/>
      <point x="398" y="-2" type="curve"/>
    </contour>
    <contour>
      <point x="110" y="0" type="line"/>
      <point x="305" y="0" type="line"/>
      <point x="297" y="210" type="line"/>
      <point x="306" y="472" type="line"/>
      <point x="112" y="472" type="line"/>
      <point x="119" y="190" type="line"/>
    </contour>
    <contour>
      <point x="10" y="334" type="line"/>
      <point x="95" y="340" type="line"/>
      <point x="192" y="340" type="line"/>
      <point x="192" y="472" type="line"/>
      <point x="9" y="472" type="line"/>
      <point x="0" y="346" type="line"/>
    </contour>
  </outline>
</glyph>
<glyph name="Ustraitstroke-cy" format="2">
  <advance width="594"/>
  <unicode hex="04B0"/>
  <outline>
    <contour>
      <point x="614" y="647" type="line"/>
      <point x="410" y="647" type="line"/>
      <point x="387" y="586" type="line"/>
      <point x="303" y="398" type="line"/>
      <point x="291" y="398" type="line"/>
      <point x="218" y="593" type="line"/>
      <point x="202" y="647" type="line"/>
      <point x="-8" y="647" type="line"/>
      <point x="254" y="82" type="line"/>
      <point x="318" y="82" type="line"/>
    </contour>
    <contour>
      <point x="388" y="283" type="line"/>
      <point x="195" y="283" type="line"/>
      <point x="200" y="170" type="line"/>
      <point x="190" y="0" type="line"/>
      <point x="390" y="0" type="line"/>
      <point x="382" y="170" type="line"/>
    </contour>
    <contour>
      <point x="496" y="227" type="line"/>
      <point x="76" y="227" type="line"/>
      <point x="70" y="136" type="line"/>
      <point x="78" y="126" type="line"/>
      <point x="499" y="126" type="line"/>
      <point x="504" y="217" type="line"/>
    </contour>
  </outline>
</glyph>
<glyph name="ustraitstroke-cy" format="2">
  <advance width="483"/>
  <unicode hex="04B1"/>
  <outline>
    <contour>
      <point x="151" y="-32" type="line"/>
      <point x="317" y="-32" type="line"/>
      <point x="482" y="472" type="line"/>
      <point x="314" y="472" type="line"/>
      <point x="296" y="376" type="line"/>
      <point x="251" y="199" type="line"/>
      <point x="241" y="199" type="line"/>
      <point x="206" y="387" type="line"/>
      <point x="193" y="476" type="line"/>
      <point x="11" y="469" type="line"/>
    </contour>
    <contour>
      <point x="138" y="-185" type="line"/>
      <point x="332" y="-185" type="line"/>
      <point x="327" y="81" type="line"/>
      <point x="144" y="81" type="line"/>
    </contour>
    <contour>
      <point x="428.15999999999997" y="38" type="line"/>
      <point x="33.36" y="38" type="line"/>
      <point x="27.72" y="-53" type="line"/>
      <point x="35.239999999999995" y="-63" type="line"/>
      <point x="430.97999999999996" y="-63" type="line"/>
      <point x="435.67999999999995" y="28" type="line"/>
    </contour>
  </outline>
</glyph>
<glyph name="Hadescender-cy" format="2">
  <advance width="724"/>
  <unicode hex="04B2"/>
  <anchor x="414" y="0" name="bottomright"/>
  <outline>
    <contour>
      <point x="643" y="647" type="line"/>
      <point x="434" y="647" type="line"/>
      <point x="404" y="577" type="line"/>
      <point x="339" y="464" type="line"/>
      <point x="282" y="566" type="line"/>
      <point x="247" y="647" type="line"/>
      <point x="7" y="647" type="line"/>
      <point x="205" y="311" type="line"/>
      <point x="13" y="0" type="line"/>
      <point x="216" y="0" type="line"/>
      <point x="248" y="69" type="line"/>
      <point x="322" y="184" type="line"/>
      <point x="380" y="79" type="line"/>
      <point x="414" y="0" type="line"/>
      <point x="653" y="0" type="line"/>
      <point x="458" y="342" type="line"/>
    </contour>
    <contour>
      <point x="566" y="-147" type="line"/>
      <point x="711" y="-137" type="line"/>
      <point x="711" y="162" type="line"/>
      <point x="513" y="162" type="line"/>
    </contour>
    <contour>
      <point x="414" y="0" type="line"/>
      <point x="701" y="0" type="line"/>
      <point x="711" y="162" type="line"/>
      <point x="464" y="162" type="line"/>
    </contour>
  </outline>
</glyph>
<glyph name="Shha-cy" format="2">
  <advance width="624"/>
  <unicode hex="04BA"/>
  <outline>
    <contour>
      <point x="394" y="0" type="line"/>
      <point x="594" y="0" type="line"/>
      <point x="587" y="244" type="line"/>
      <point x="587" y="401"/>
      <point x="525" y="470"/>
      <point x="381" y="470" type="curve"/>
      <point x="336" y="453"/>
      <point x="297" y="428"/>
      <point x="267" y="396" type="curve"/>
      <point x="240" y="396" type="line"/>
      <point x="243" y="267" type="line"/>
      <point x="278" y="290"/>
      <point x="309" y="301"/>
      <point x="338" y="301" type="curve" smooth="yes"/>
      <point x="385" y="301"/>
      <point x="404" y="274"/>
      <point x="404" y="210" type="curve"/>
    </contour>
    <contour>
      <point x="59" y="0" type="line"/>
      <point x="260" y="0" type="line"/>
      <point x="252" y="210" type="line"/>
      <point x="263" y="647" type="line"/>
      <point x="59" y="647" type="line"/>
      <point x="69" y="190" type="line"/>
    </contour>
  </outline>
</glyph>
<glyph name="chekhakassian-cy" format="2">
  <advance width="519"/>
  <unicode hex="04CC"/>
  <anchor x="278" y="0" name="bottomright"/>
  <anchor x="245" y="472" name="top"/>
  <outline>
    <contour>
      <point x="191" y="140" type="curve"/>
      <point x="224" y="153"/>
      <point x="252" y="171"/>
      <point x="276" y="193" type="curve"/>
      <point x="298" y="193" type="line"/>
      <point x="299" y="302" type="line"/>
      <point x="278" y="289"/>
      <point x="259" y="283"/>
      <point x="244" y="283" type="curve" smooth="yes"/>
      <point x="220" y="283"/>
      <point x="205" y="299"/>
      <point x="205" y="330" type="curve"/>
      <point x="209" y="472" type="line"/>
      <point x="16" y="472" type="line"/>
      <point x="21" y="291" type="line" smooth="yes"/>
      <point x="24" y="187"/>
      <point x="76" y="140"/>
    </contour>
    <contour>
      <point x="225" y="-135" type="line"/>
      <point x="351" y="-126" type="line"/>
      <point x="395" y="129" type="line"/>
      <point x="225" y="129" type="line"/>
    </contour>
    <contour>
      <point x="242" y="0" type="line"/>
      <point x="473" y="0" type="line"/>
      <point x="430" y="129" type="line"/>
      <point x="225" y="129" type="line"/>
    </contour>
    <contour>
      <point x="278" y="0" type="line"/>
      <point x="473" y="0" type="line"/>
      <point x="465" y="210" type="line"/>
      <point x="474" y="472" type="line"/>
      <point x="280" y="472" type="line"/>
      <point x="287" y="190" type="line"/>
    </contour>
  </outline>
</glyph>
<glyph name="Obarred-cy" format="2">
  <advance width="695"/>
  <unicode hex="04E8"/>
  <outline>
    <contour>
      <point x="137" y="249" type="line"/>
      <point x="565" y="254" type="line"/>
      <point x="570" y="379" type="line"/>
      <point x="558" y="391" type="line"/>
      <point x="130" y="386" type="line"/>
      <point x="125" y="261" type="line"/>
    </contour>
    <contour>
      <point x="362" y="659" type="curve" smooth="yes"/>
      <point x="150" y="659"/>
      <point x="23" y="529"/>
      <point x="23" y="312" type="curve" smooth="yes"/>
      <point x="23" y="110"/>
      <point x="139" y="-12"/>
      <point x="333" y="-12" type="curve" smooth="yes"/>
      <point x="545" y="-12"/>
      <point x="672" y="120"/>
      <point x="672" y="340" type="curve" smooth="yes"/>
      <point x="672" y="539"/>
      <point x="556" y="659"/>
    </contour>
    <contour>
      <point x="344" y="499" type="curve" smooth="yes"/>
      <point x="439" y="499"/>
      <point x="469" y="451"/>
      <point x="469" y="296" type="curve" smooth="yes"/>
      <point x="469" y="180"/>
      <point x="437" y="136"/>
      <point x="351" y="136" type="curve" smooth="yes"/>
      <point x="255" y="136"/>
      <point x="226" y="183"/>
      <point x="226" y="340" type="curve" smooth="yes"/>
      <point x="226" y="459"/>
      <point x="256" y="499"/>
    </contour>
  </outline>
</glyph>
<glyph name="obarred-cy" format="2">
  <advance width="512"/>
  <unicode hex="04E9"/>
  <outline>
    <contour>
      <point x="247" y="-12" type="curve" smooth="yes"/>
      <point x="411" y="-12"/>
      <point x="497" y="76"/>
      <point x="497" y="247" type="curve" smooth="yes"/>
      <point x="497" y="403"/>
      <point x="418" y="484"/>
      <point x="265" y="484" type="curve" smooth="yes"/>
      <point x="101" y="484"/>
      <point x="15" y="395"/>
      <point x="15" y="223" type="curve" smooth="yes"/>
      <point x="15" y="68"/>
      <point x="94" y="-12"/>
    </contour>
    <contour>
      <point x="262" y="108" type="curve" smooth="yes"/>
      <point x="207" y="108"/>
      <point x="194" y="135"/>
      <point x="194" y="258" type="curve" smooth="yes"/>
      <point x="194" y="341"/>
      <point x="205" y="359"/>
      <point x="250" y="359" type="curve" smooth="yes"/>
      <point x="304" y="359"/>
      <point x="317" y="332"/>
      <point x="317" y="210" type="curve" smooth="yes"/>
      <point x="317" y="126"/>
      <point x="306" y="108"/>
    </contour>
    <contour>
      <point x="124" y="174" type="line"/>
      <point x="386" y="174" type="line"/>
      <point x="386" y="292" type="line"/>
      <point x="124" y="292" type="line"/>
    </contour>
  </outline>
</glyph>
<glyph name="ohorngrave" format="2">
  <advance width="500"/>
  <unicode hex="1EDD"/>
  <anchor x="248" y="472" name="top"/>
  <outline>
    <contour>
      <point x="163" y="755" type="curve"/>
      <point x="146" y="754" type="line"/>
      <point x="77" y="647" type="line"/>
      <point x="80" y="630" type="line"/>
      <point x="161" y="589"/>
      <point x="231" y="554"/>
      <point x="303" y="521" type="curve"/>
      <point x="320" y="522" type="line"/>
      <point x="364" y="594" type="line"/>
      <point x="289" y="650"/>
      <point x="226" y="701"/>
    </contour>
    <contour>
      <point x="485" y="614" type="curve" smooth="yes"/>
      <point x="454" y="614"/>
      <point x="421" y="597"/>
      <point x="390" y="570" type="curve"/>
      <point x="387" y="556" type="line"/>
      <point x="405" y="540"/>
      <point x="416" y="524"/>
      <point x="416" y="501" type="curve" smooth="yes"/>
      <point x="416" y="479"/>
      <point x="406" y="462"/>
      <point x="384" y="462" type="curve" smooth="yes"/>
      <point x="359" y="462"/>
      <point x="317" y="484"/>
      <point x="258" y="484" type="curve"/>
      <point x="96" y="484"/>
      <point x="14" y="396"/>
      <point x="14" y="228" type="curve" smooth="yes"/>
      <point x="14" y="66"/>
      <point x="90" y="-12"/>
      <point x="241" y="-12" type="curve" smooth="yes"/>
      <point x="400" y="-12"/>
      <point x="483" y="75"/>
      <point x="483" y="246" type="curve"/>
      <point x="483" y="300"/>
      <point x="472" y="349"/>
      <point x="451" y="387" type="curve"/>
      <point x="506" y="389"/>
      <point x="567" y="458"/>
      <point x="567" y="526" type="curve" smooth="yes"/>
      <point x="567" y="579"/>
      <point x="530" y="614"/>
    </contour>
    <contour>
      <point x="243" y="353" type="curve" smooth="yes"/>
      <point x="290" y="353"/>
      <point x="300" y="327"/>
      <point x="300" y="211" type="curve" smooth="yes"/>
      <point x="300" y="131"/>
      <point x="292" y="114"/>
      <point x="254" y="114" type="curve" smooth="yes"/>
      <point x="206" y="114"/>
      <point x="196" y="140"/>
      <point x="196" y="257" type="curve" smooth="yes"/>
      <point x="196" y="336"/>
      <point x="204" y="353"/>
    </contour>
  </outline>
</glyph>
<glyph name="ydotbelow" format="2">
  <advance width="491"/>
  <unicode hex="1EF5"/>
  <outline>
    <contour>
      <point x="174" y="476" type="line"/>
      <point x="-12" y="469" type="line"/>
      <point x="159" y="0" type="line"/>
      <point x="106" y="-31"/>
      <point x="50" y="-50"/>
      <point x="-11" y="-59" type="curve"/>
      <point x="-18" y="-76" type="line"/>
      <point x="4" y="-119"/>
      <point x="31" y="-158"/>
      <point x="67" y="-192" type="curve"/>
      <point x="80" y="-194" type="line"/>
      <point x="233" y="-147"/>
      <point x="298" y="-87"/>
      <point x="343" y="49" type="curve" smooth="yes"/>
      <point x="481" y="472" type="line"/>
      <point x="317" y="472" type="line"/>
      <point x="298" y="368" type="line"/>
      <point x="251" y="189" type="line"/>
      <point x="241" y="189" type="line"/>
      <point x="190" y="386" type="line"/>
    </contour>
    <contour>
      <point x="394.716" y="-19.087999999999994" type="curve" smooth="yes"/>
      <point x="337.449" y="-19.087999999999994"/>
      <point x="301.998" y="-55.44800000000001"/>
      <point x="301.998" y="-113.624" type="curve" smooth="yes"/>
      <point x="301.998" y="-169.073"/>
      <point x="331.995" y="-199.979"/>
      <point x="387.444" y="-199.979" type="curve" smooth="yes"/>
      <point x="443.802" y="-199.979"/>
      <point x="479.25300000000004" y="-163.619"/>
      <point x="479.25300000000004" y="-105.443" type="curve" smooth="yes"/>
      <point x="479.25300000000004" y="-50.90299999999999"/>
      <point x="448.347" y="-19.087999999999994"/>
    </contour>
  </outline>
</glyph>
<glyph name="psili" format="2">
  <advance width="195"/>
  <unicode hex="1FBF"/>
  <guideline x="248" y="771" angle="0"/>
  <guideline x="245" y="508" angle="0"/>
  <anchor x="102" y="708" name="top"/>
  <outline>
    <contour>
      <point x="129" y="792" type="curve"/>
      <point x="90" y="778"/>
      <point x="53" y="756"/>
      <point x="19" y="733" type="curve"/>
      <point x="19" y="721" type="line"/>
      <point x="40" y="704"/>
      <point x="51" y="679"/>
      <point x="51" y="652" type="curve" smooth="yes"/>
      <point x="51" y="627"/>
      <point x="41" y="600"/>
      <point x="22" y="575" type="curve"/>
      <point x="24" y="565" type="line"/>
      <point x="85" y="530" type="line"/>
      <point x="148" y="589"/>
      <point x="179" y="641"/>
      <point x="179" y="696" type="curve" smooth="yes"/>
      <point x="179" y="739"/>
      <point x="164" y="768"/>
    </contour>
  </outline>
</glyph>
<glyph name="perispomeni" format="2">
  <advance width="348"/>
  <unicode hex="1FC0"/>
  <anchor x="173" y="472" name="top"/>
  <outline>
    <contour>
      <point x="292" y="741" type="line"/>
      <point x="277" y="741" type="line"/>
      <point x="258" y="712"/>
      <point x="240" y="683"/>
      <point x="215" y="683" type="curve" smooth="yes"/>
      <point x="193" y="683"/>
      <point x="132" y="710"/>
      <point x="86" y="717" type="curve"/>
      <point x="71" y="711" type="line"/>
      <point x="-3" y="598" type="line"/>
      <point x="-3" y="582" type="line"/>
      <point x="54" y="527" type="line"/>
      <point x="69" y="527" type="line"/>
      <point x="88" y="556"/>
      <point x="106" y="585"/>
      <point x="131" y="585" type="curve" smooth="yes"/>
      <point x="153" y="585"/>
      <point x="213" y="558"/>
      <point x="260" y="551" type="curve"/>
      <point x="275" y="557" type="line"/>
      <point x="349" y="670" type="line"/>
      <point x="349" y="686" type="line"/>
    </contour>
  </outline>
</glyph>
<glyph name="psiliperispomeni" format="2">
  <advance width="279"/>
  <unicode hex="1FCF"/>
  <anchor x="138" y="851" name="top"/>
  <outline>
    <contour>
      <point x="131" y="501" type="line"/>
      <point x="225" y="548"/>
      <point x="242" y="645"/>
      <point x="162" y="679" type="curve"/>
      <point x="134" y="670"/>
      <point x="104" y="655"/>
      <point x="67" y="632" type="curve"/>
      <point x="68" y="622" type="line"/>
      <point x="98" y="593"/>
      <point x="99" y="570"/>
      <point x="71" y="529" type="curve"/>
      <point x="73" y="520" type="line"/>
    </contour>
    <contour>
      <point x="235.038" y="831.063" type="line"/>
      <point x="222.81" y="831.063" type="line"/>
      <point x="207.322" y="807.422"/>
      <point x="192.648" y="783.782"/>
      <point x="172.268" y="783.782" type="curve" smooth="yes"/>
      <point x="154.334" y="783.782"/>
      <point x="104.606" y="805.792"/>
      <point x="67.107" y="811.498" type="curve"/>
      <point x="54.879" y="806.607" type="line"/>
      <point x="-5.446" y="714.49" type="line"/>
      <point x="-5.446" y="701.446" type="line"/>
      <point x="41.021" y="656.61" type="line"/>
      <point x="53.249" y="656.61" type="line"/>
      <point x="68.738" y="680.251"/>
      <point x="83.411" y="703.892"/>
      <point x="103.791" y="703.892" type="curve" smooth="yes"/>
      <point x="121.726" y="703.892"/>
      <point x="170.638" y="681.882"/>
      <point x="208.952" y="676.175" type="curve"/>
      <point x="221.18" y="681.066" type="line"/>
      <point x="281.505" y="773.184" type="line"/>
      <point x="281.505" y="786.227" type="line"/>
    </contour>
  </outline>
</glyph>
<glyph name="dasiavaria" format="2">
  <advance width="401"/>
  <unicode hex="1FDD"/>
  <anchor x="310" y="754" name="topleft"/>
  <anchor x="198" y="792" name="top"/>
  <outline>
    <contour>
      <point x="66" y="792" type="curve"/>
      <point x="31" y="768"/>
      <point x="16" y="739"/>
      <point x="16" y="696" type="curve" smooth="yes"/>
      <point x="16" y="641"/>
      <point x="47" y="589"/>
      <point x="110" y="530" type="curve"/>
      <point x="171" y="565" type="line"/>
      <point x="173" y="575" type="line"/>
      <point x="154" y="600"/>
      <point x="144" y="627"/>
      <point x="144" y="652" type="curve" smooth="yes"/>
      <point x="144" y="679"/>
      <point x="155" y="704"/>
      <point x="176" y="721" type="curve"/>
      <point x="176" y="733" type="line"/>
      <point x="142" y="756"/>
      <point x="105" y="778"/>
    </contour>
    <contour>
      <point x="280.351" y="533.403" type="line"/>
      <point x="379.79400000000004" y="561.162" type="line"/>
      <point x="364.4445" y="635.1695000000001"/>
      <point x="351.556" y="703.8910000000001"/>
      <point x="341.442" y="770.3100000000001" type="curve"/>
      <point x="327.46500000000003" y="780.828" type="line"/>
      <point x="200.021" y="744.951" type="line"/>
      <point x="191.3875" y="729.7705000000001" type="line"/>
      <point x="218.408" y="661.575"/>
      <point x="242.391" y="602.748"/>
      <point x="267.473" y="544.811" type="curve"/>
    </contour>
  </outline>
</glyph>
<glyph name="dasiaoxia" format="2">
  <advance width="396"/>
  <unicode hex="1FDE"/>
  <anchor x="312" y="732" name="topleft"/>
  <anchor x="207" y="792" name="top"/>
  <outline>
    <contour>
      <point x="66" y="792" type="curve"/>
      <point x="31" y="768"/>
      <point x="16" y="739"/>
      <point x="16" y="696" type="curve" smooth="yes"/>
      <point x="16" y="641"/>
      <point x="47" y="589"/>
      <point x="110" y="530" type="curve"/>
      <point x="171" y="565" type="line"/>
      <point x="173" y="575" type="line"/>
      <point x="154" y="600"/>
      <point x="144" y="627"/>
      <point x="144" y="652" type="curve" smooth="yes"/>
      <point x="144" y="679"/>
      <point x="155" y="704"/>
      <point x="176" y="721" type="curve"/>
      <point x="176" y="733" type="line"/>
      <point x="142" y="756"/>
      <point x="105" y="778"/>
    </contour>
    <contour>
      <point x="258.8875" y="778.7745000000001" type="line"/>
      <point x="235.1885" y="715.9085"/>
      <point x="208.297" y="651.3670000000001"/>
      <point x="177.8995" y="582.1665" type="curve"/>
      <point x="269.4005" y="534.3435" type="line"/>
      <point x="284.36850000000004" y="542.8255" type="line"/>
      <point x="320.94550000000004" y="594.2835"/>
      <point x="356.6325" y="646.8405"/>
      <point x="397.238" y="707.9300000000001" type="curve"/>
      <point x="391.94849999999997" y="724.5735" type="line"/>
      <point x="274.7455" y="786.1575" type="line"/>
    </contour>
  </outline>
</glyph>
<glyph name="dasiaperispomeni" format="2">
  <advance width="279"/>
  <unicode hex="1FDF"/>
  <anchor x="139" y="851" name="top"/>
  <outline>
    <contour>
      <point x="150" y="501" type="curve"/>
      <point x="208" y="520" type="line"/>
      <point x="210" y="529" type="line"/>
      <point x="182" y="570"/>
      <point x="183" y="593"/>
      <point x="213" y="622" type="curve"/>
      <point x="214" y="632" type="line"/>
      <point x="177" y="655"/>
      <point x="147" y="670"/>
      <point x="119" y="679" type="curve"/>
      <point x="39" y="645"/>
      <point x="56" y="548"/>
    </contour>
    <contour>
      <point x="236.038" y="831.063" type="line"/>
      <point x="223.81" y="831.063" type="line"/>
      <point x="208.322" y="807.422"/>
      <point x="193.648" y="783.782"/>
      <point x="173.268" y="783.782" type="curve" smooth="yes"/>
      <point x="155.334" y="783.782"/>
      <point x="105.606" y="805.792"/>
      <point x="68.107" y="811.498" type="curve"/>
      <point x="55.879" y="806.607" type="line"/>
      <point x="-4.446" y="714.49" type="line"/>
      <point x="-4.446" y="701.446" type="line"/>
      <point x="42.021" y="656.61" type="line"/>
      <point x="54.249" y="656.61" type="line"/>
      <point x="69.738" y="680.251"/>
      <point x="84.411" y="703.892"/>
      <point x="104.791" y="703.892" type="curve" smooth="yes"/>
      <point x="122.726" y="703.892"/>
      <point x="171.638" y="681.882"/>
      <point x="209.952" y="676.175" type="curve"/>
      <point x="222.18" y="681.066" type="line"/>
      <point x="282.505" y="773.184" type="line"/>
      <point x="282.505" y="786.227" type="line"/>
    </contour>
  </outline>
</glyph>
<glyph name="dialytikavaria" format="2">
  <advance width="486"/>
  <unicode hex="1FED"/>
  <anchor x="243" y="472" name="top"/>
  <outline>
    <contour>
      <point x="256" y="541" type="line"/>
      <point x="318" y="569" type="line"/>
      <point x="298" y="636"/>
      <point x="279" y="704"/>
      <point x="263" y="774" type="curve"/>
      <point x="252" y="783" type="line"/>
      <point x="144" y="740" type="line"/>
      <point x="137" y="727" type="line"/>
      <point x="234" y="547" type="line"/>
    </contour>
    <contour>
      <point x="81" y="554" type="curve" smooth="yes"/>
      <point x="129" y="554"/>
      <point x="158" y="585"/>
      <point x="158" y="633" type="curve" smooth="yes"/>
      <point x="158" y="679"/>
      <point x="132" y="705"/>
      <point x="87" y="705" type="curve" smooth="yes"/>
      <point x="39" y="705"/>
      <point x="9" y="674"/>
      <point x="9" y="626" type="curve" smooth="yes"/>
      <point x="9" y="579"/>
      <point x="34" y="554"/>
    </contour>
    <contour>
      <point x="399" y="554" type="curve" smooth="yes"/>
      <point x="447" y="554"/>
      <point x="477" y="585"/>
      <point x="477" y="633" type="curve" smooth="yes"/>
      <point x="477" y="679"/>
      <point x="451" y="705"/>
      <point x="406" y="705" type="curve" smooth="yes"/>
      <point x="358" y="705"/>
      <point x="328" y="674"/>
      <point x="328" y="626" type="curve" smooth="yes"/>
      <point x="328" y="579"/>
      <point x="353" y="554"/>
    </contour>
  </outline>
</glyph>
<glyph name="dasia" format="2">
  <advance width="195"/>
  <unicode hex="1FFE"/>
  <anchor x="112" y="732" name="topleft"/>
  <anchor x="105" y="708" name="top"/>
  <outline>
    <contour>
      <point x="66" y="792" type="curve"/>
      <point x="31" y="768"/>
      <point x="16" y="739"/>
      <point x="16" y="696" type="curve" smooth="yes"/>
      <point x="16" y="641"/>
      <point x="47" y="589"/>
      <point x="110" y="530" type="curve"/>
      <point x="171" y="565" type="line"/>
      <point x="173" y="575" type="line"/>
      <point x="154" y="600"/>
      <point x="144" y="627"/>
      <point x="144" y="652" type="curve" smooth="yes"/>
      <point x="144" y="679"/>
      <point x="155" y="704"/>
      <point x="176" y="721" type="curve"/>
      <point x="176" y="733" type="line"/>
      <point x="142" y="756"/>
      <point x="105" y="778"/>
    </contour>
  </outline>
</glyph>
<glyph name="emdash" format="2">
  <advance width="841"/>
  <unicode hex="2014"/>
  <outline>
    <contour>
      <point x="848" y="325" type="line"/>
      <point x="-10" y="325" type="line"/>
      <point x="-19" y="208" type="line"/>
      <point x="-7" y="195" type="line"/>
      <point x="851" y="195" type="line"/>
      <point x="860" y="312" type="line"/>
    </contour>
  </outline>
</glyph>
<glyph name="bullet" format="2">
  <advance width="302"/>
  <unicode hex="2022"/>
  <outline>
    <contour>
      <point x="156.60399999999998" y="396.82" type="curve" smooth="yes"/>
      <point x="69.78999999999999" y="396.82"/>
      <point x="16.048" y="341.7"/>
      <point x="16.048" y="253.50799999999998" type="curve" smooth="yes"/>
      <point x="16.048" y="169.45"/>
      <point x="61.52199999999999" y="122.598"/>
      <point x="145.57999999999998" y="122.598" type="curve" smooth="yes"/>
      <point x="231.016" y="122.598"/>
      <point x="284.758" y="177.718"/>
      <point x="284.758" y="265.90999999999997" type="curve" smooth="yes"/>
      <point x="284.758" y="348.59"/>
      <point x="237.90599999999998" y="396.82"/>
    </contour>
  </outline>
</glyph>
<glyph name="minute" format="2">
  <advance width="250"/>
  <unicode hex="2032"/>
  <outline>
    <contour>
      <point x="204" y="646" type="line"/>
      <point x="53" y="637" type="line"/>
      <point x="63" y="369" type="line"/>
      <point x="78" y="358" type="line"/>
      <point x="166" y="372" type="line"/>
      <point x="214" y="634" type="line"/>
    </contour>
  </outline>
</glyph>
<glyph name="second" format="2">
  <advance width="445"/>
  <unicode hex="2033"/>
  <outline>
    <contour>
      <point x="399" y="646" type="line"/>
      <point x="248" y="637" type="line"/>
      <point x="258" y="369" type="line"/>
      <point x="273" y="358" type="line"/>
      <point x="361" y="372" type="line"/>
      <point x="409" y="634" type="line"/>
    </contour>
    <contour>
      <point x="204" y="646" type="line"/>
      <point x="53" y="637" type="line"/>
      <point x="63" y="369" type="line"/>
      <point x="78" y="358" type="line"/>
      <point x="166" y="372" type="line"/>
      <point x="214" y="634" type="line"/>
    </contour>
  </outline>
</glyph>
<glyph name="guilsinglright" format="2">
  <advance width="260"/>
  <unicode hex="203A"/>
  <outline>
    <contour>
      <point x="92" y="428" type="line"/>
      <point x="1" y="381" type="line"/>
      <point x="-3" y="364" type="line"/>
      <point x="77" y="234" type="line"/>
      <point x="-3" y="103" type="line"/>
      <point x="1" y="86" type="line"/>
      <point x="92" y="39" type="line"/>
      <point x="217" y="223" type="line"/>
      <point x="217" y="250" type="line"/>
    </contour>
  </outline>
</glyph>
<glyph name="fraction" format="2">
  <advance width="137"/>
  <unicode hex="2044"/>
  <outline>
    <contour>
      <point x="241" y="694" type="line"/>
      <point x="-223" y="-27" type="line"/>
      <point x="-217" y="-44" type="line"/>
      <point x="-135" y="-94" type="line"/>
      <point x="327" y="623" type="line"/>
      <point x="317" y="647" type="line"/>
    </contour>
  </outline>
</glyph>
<glyph name="commercialMinusSign" format="2">
  <advance width="668"/>
  <unicode hex="2052"/>
  <outline>
    <contour>
      <point x="508" y="694" type="line"/>
      <point x="61" y="0" type="line"/>
      <point x="67" y="-17" type="line"/>
      <point x="149" y="-67" type="line"/>
      <point x="594" y="623" type="line"/>
      <point x="584" y="647" type="line"/>
    </contour>
    <contour>
      <point x="137.073" y="648.49" type="curve" smooth="yes"/>
      <point x="64.958" y="648.49"/>
      <point x="20.315" y="602.703"/>
      <point x="20.315" y="529.443" type="curve" smooth="yes"/>
      <point x="20.315" y="459.617"/>
      <point x="58.089" y="420.698"/>
      <point x="127.915" y="420.698" type="curve" smooth="yes"/>
      <point x="198.886" y="420.698"/>
      <point x="243.528" y="466.485"/>
      <point x="243.528" y="539.745" type="curve" smooth="yes"/>
      <point x="243.528" y="608.426"/>
      <point x="204.609" y="648.49"/>
    </contour>
    <contour>
      <point x="543.072" y="225.489" type="curve" smooth="yes"/>
      <point x="470.957" y="225.489"/>
      <point x="426.315" y="179.702"/>
      <point x="426.315" y="106.442" type="curve" smooth="yes"/>
      <point x="426.315" y="36.617"/>
      <point x="464.089" y="-2.302"/>
      <point x="533.915" y="-2.302" type="curve" smooth="yes"/>
      <point x="604.885" y="-2.302"/>
      <point x="649.527" y="43.485"/>
      <point x="649.527" y="116.745" type="curve" smooth="yes"/>
      <point x="649.527" y="185.425"/>
      <point x="610.608" y="225.489"/>
    </contour>
  </outline>
</glyph>
<glyph name="franc" format="2">
  <advance width="424"/>
  <unicode hex="20A3"/>
  <outline>
    <contour>
      <point x="229" y="510" type="line"/>
      <point x="59" y="510" type="line"/>
      <point x="67" y="149" type="line"/>
      <point x="59" y="0" type="line"/>
      <point x="226" y="0" type="line"/>
      <point x="219" y="166" type="line"/>
    </contour>
    <contour>
      <point x="325" y="138" type="line"/>
      <point x="10" y="138" type="line"/>
      <point x="5" y="78" type="line"/>
      <point x="11" y="70" type="line"/>
      <point x="327" y="70" type="line"/>
      <point x="332" y="129" type="line"/>
    </contour>
    <contour>
      <point x="388" y="317" type="line"/>
      <point x="285" y="314" type="line"/>
      <point x="179" y="314" type="line"/>
      <point x="178" y="196" type="line"/>
      <point x="179" y="189" type="line"/>
      <point x="273" y="189" type="line"/>
      <point x="387" y="186" type="line"/>
      <point x="397" y="306" type="line"/>
    </contour>
    <contour>
      <point x="434" y="510" type="line"/>
      <point x="171" y="510" type="line"/>
      <point x="170" y="393" type="line"/>
      <point x="171" y="385" type="line"/>
      <point x="291" y="385" type="line"/>
      <point x="432" y="379" type="line"/>
      <point x="443" y="499" type="line"/>
    </contour>
  </outline>
</glyph>
<glyph name="naira" format="2">
  <advance width="705"/>
  <unicode hex="20A6"/>
  <anchor x="350" y="0" name="bottom"/>
  <anchor x="350" y="513" name="top"/>
  <outline>
    <contour>
      <point x="13" y="291" type="line"/>
      <point x="692" y="291" type="line"/>
      <point x="697" y="366" type="line"/>
      <point x="692" y="375" type="line"/>
      <point x="13" y="375" type="line"/>
      <point x="7" y="300" type="line"/>
    </contour>
    <contour>
      <point x="13" y="134" type="line"/>
      <point x="692" y="134" type="line"/>
      <point x="697" y="209" type="line"/>
      <point x="692" y="218" type="line"/>
      <point x="13" y="218" type="line"/>
      <point x="7" y="143" type="line"/>
    </contour>
    <contour>
      <point x="606" y="516" type="line"/>
      <point x="436" y="506" type="line"/>
      <point x="442" y="277" type="line"/>
      <point x="431" y="277" type="line"/>
      <point x="299" y="513" type="line"/>
      <point x="97" y="513" type="line"/>
      <point x="106" y="150" type="line"/>
      <point x="97" y="0" type="line"/>
      <point x="265" y="0" type="line"/>
      <point x="258" y="190" type="line"/>
      <point x="259" y="236" type="line"/>
      <point x="269" y="236" type="line"/>
      <point x="401" y="0" type="line"/>
      <point x="603" y="0" type="line"/>
      <point x="596" y="172" type="line"/>
    </contour>
  </outline>
</glyph>
<glyph name="peseta" format="2">
  <advance width="1356"/>
  <unicode hex="20A7"/>
  <anchor x="1155" y="0" name="bottom"/>
  <anchor x="774" y="236" name="center"/>
  <anchor x="1158" y="472" name="top"/>
  <anchor x="944" y="472" name="topright"/>
  <outline>
    <contour>
      <point x="367" y="648" type="curve"/>
      <point x="60" y="647" type="line"/>
      <point x="178" y="500" type="line"/>
      <point x="296" y="509" type="line"/>
      <point x="356" y="506"/>
      <point x="383" y="481"/>
      <point x="383" y="422" type="curve" smooth="yes"/>
      <point x="383" y="372"/>
      <point x="367" y="343"/>
      <point x="331" y="323" type="curve"/>
      <point x="131" y="334" type="line"/>
      <point x="131" y="183" type="line"/>
      <point x="303" y="183" type="line"/>
      <point x="477" y="183"/>
      <point x="593" y="287"/>
      <point x="593" y="442" type="curve" smooth="yes"/>
      <point x="593" y="574"/>
      <point x="512" y="648"/>
    </contour>
    <contour>
      <point x="264" y="647" type="line"/>
      <point x="60" y="647" type="line"/>
      <point x="70" y="190" type="line"/>
      <point x="60" y="0" type="line"/>
      <point x="261" y="0" type="line"/>
      <point x="253" y="210" type="line"/>
    </contour>
    <contour>
      <point x="821" y="-7" type="curve"/>
      <point x="858" y="-1"/>
      <point x="899" y="14"/>
      <point x="927" y="31" type="curve"/>
      <point x="945" y="139" type="line"/>
      <point x="933" y="154" type="line"/>
      <point x="913" y="147"/>
      <point x="890" y="142"/>
      <point x="873" y="142" type="curve" smooth="yes"/>
      <point x="844" y="142"/>
      <point x="834" y="153"/>
      <point x="834" y="185" type="curve"/>
      <point x="849" y="589" type="line"/>
      <point x="837" y="600" type="line"/>
      <point x="656" y="552" type="line"/>
      <point x="658" y="229" type="line"/>
      <point x="652" y="125" type="line"/>
      <point x="652" y="46"/>
      <point x="714" y="-7"/>
    </contour>
    <contour>
      <point x="595" y="354" type="line"/>
      <point x="939" y="354" type="line"/>
      <point x="947" y="457" type="line"/>
      <point x="942" y="467" type="line"/>
      <point x="598" y="467" type="line"/>
      <point x="590" y="364" type="line"/>
    </contour>
    <contour>
      <point x="1186" y="483" type="curve" smooth="yes"/>
      <point x="1051" y="483"/>
      <point x="975" y="410"/>
      <point x="975" y="316" type="curve" smooth="yes"/>
      <point x="975" y="162"/>
      <point x="1181" y="179"/>
      <point x="1181" y="125" type="curve" smooth="yes"/>
      <point x="1181" y="113"/>
      <point x="1173" y="106"/>
      <point x="1153" y="106" type="curve" smooth="yes"/>
      <point x="1116" y="106"/>
      <point x="1051" y="129"/>
      <point x="1000" y="169" type="curve"/>
      <point x="984" y="157" type="line"/>
      <point x="961" y="14" type="line"/>
      <point x="1024" y="-5"/>
      <point x="1084" y="-12"/>
      <point x="1129" y="-12" type="curve" smooth="yes"/>
      <point x="1283" y="-12"/>
      <point x="1342" y="72"/>
      <point x="1342" y="154" type="curve" smooth="yes"/>
      <point x="1342" y="307"/>
      <point x="1137" y="290"/>
      <point x="1137" y="344" type="curve" smooth="yes"/>
      <point x="1137" y="353"/>
      <point x="1143" y="362"/>
      <point x="1163" y="362" type="curve" smooth="yes"/>
      <point x="1189" y="362"/>
      <point x="1240" y="345"/>
      <point x="1287" y="316" type="curve"/>
      <point x="1309" y="323" type="line"/>
      <point x="1334" y="458" type="line"/>
      <point x="1292" y="472"/>
      <point x="1239" y="483"/>
    </contour>
  </outline>
</glyph>
<glyph name="dong" format="2">
  <advance width="493"/>
  <unicode hex="20AB"/>
  <anchor x="226.831" y="44" name="bottom"/>
  <anchor x="226.831" y="266.642" name="center"/>
  <anchor x="226.831" y="489.285" name="top"/>
  <anchor x="459.851" y="489.285" name="topright"/>
  <outline>
    <contour>
      <point x="500" y="635" type="line"/>
      <point x="185" y="635" type="line"/>
      <point x="179" y="560" type="line"/>
      <point x="185" y="552" type="line"/>
      <point x="501" y="552" type="line"/>
      <point x="507" y="626" type="line"/>
    </contour>
    <contour>
      <point x="421" y="-3" type="line"/>
      <point x="76" y="-3" type="line"/>
      <point x="70" y="-78" type="line"/>
      <point x="76" y="-86" type="line"/>
      <point x="422" y="-86" type="line"/>
      <point x="428" y="-12" type="line"/>
    </contour>
    <contour>
      <point x="435.323" y="706.267" type="line"/>
      <point x="252.303" y="694.003" type="line"/>
      <point x="255.133" y="494.945" type="line"/>
      <point x="240.982" y="496.832"/>
      <point x="228.718" y="497.775"/>
      <point x="220.227" y="497.775" type="curve" smooth="yes"/>
      <point x="78.717" y="497.775"/>
      <point x="-12.792" y="418.53"/>
      <point x="-12.792" y="260.039" type="curve" smooth="yes"/>
      <point x="-12.792" y="123.246"/>
      <point x="57.963" y="35.509"/>
      <point x="178.718" y="35.509" type="curve"/>
      <point x="211.737" y="51.547"/>
      <point x="240.982" y="72.302"/>
      <point x="267.397" y="100.604" type="curve"/>
      <point x="274.001" y="100.604" type="line"/>
      <point x="291.926" y="59.094"/>
      <point x="324.945" y="37.396"/>
      <point x="363.624" y="34.566" type="curve"/>
      <point x="403.247" y="37.396"/>
      <point x="428.719" y="46.83"/>
      <point x="451.36" y="62.868" type="curve"/>
      <point x="467.398" y="157.208" type="line"/>
      <point x="456.077" y="166.642" type="line"/>
      <point x="449.474" y="164.755"/>
      <point x="444.757" y="163.812"/>
      <point x="440.04" y="163.812" type="curve" smooth="yes"/>
      <point x="430.606" y="163.812"/>
      <point x="427.775" y="170.416"/>
      <point x="427.775" y="184.567" type="curve" smooth="yes"/>
      <point x="426.832" y="242.114" type="line"/>
    </contour>
    <contour>
      <point x="214.567" y="376.077" type="curve" smooth="yes"/>
      <point x="227.775" y="376.077"/>
      <point x="241.926" y="373.247"/>
      <point x="257.02" y="366.643" type="curve"/>
      <point x="258.907" y="224.189" type="line"/>
      <point x="257.963" y="190.227" type="line"/>
      <point x="244.756" y="177.963"/>
      <point x="229.661" y="171.359"/>
      <point x="213.624" y="171.359" type="curve" smooth="yes"/>
      <point x="175.888" y="171.359"/>
      <point x="158.906" y="206.265"/>
      <point x="158.906" y="294.001" type="curve" smooth="yes"/>
      <point x="158.906" y="359.096"/>
      <point x="174" y="376.077"/>
    </contour>
  </outline>
</glyph>
<glyph name="kip" format="2">
  <advance width="581"/>
  <unicode hex="20AD"/>
  <anchor x="273" y="0" name="bottom"/>
  <anchor x="275" y="513" name="top"/>
  <outline>
    <contour>
      <point x="544" y="325" type="line"/>
      <point x="14" y="325" type="line"/>
      <point x="5" y="208" type="line"/>
      <point x="17" y="195" type="line"/>
      <point x="547" y="195" type="line"/>
      <point x="556" y="312" type="line"/>
    </contour>
    <contour>
      <point x="558" y="513" type="line"/>
      <point x="363" y="513" type="line"/>
      <point x="335" y="454" type="line"/>
      <point x="224" y="272" type="line"/>
      <point x="224" y="261" type="line"/>
      <point x="270" y="172"/>
      <point x="317" y="87"/>
      <point x="366" y="1" type="curve"/>
      <point x="387" y="-10" type="line"/>
      <point x="449" y="-5"/>
      <point x="510" y="5"/>
      <point x="572" y="19" type="curve"/>
      <point x="575" y="39" type="line"/>
      <point x="516" y="114"/>
      <point x="460" y="191"/>
      <point x="408" y="270" type="curve"/>
    </contour>
    <contour>
      <point x="252" y="513" type="line"/>
      <point x="63" y="513" type="line"/>
      <point x="72" y="149" type="line"/>
      <point x="63" y="0" type="line"/>
      <point x="249" y="0" type="line"/>
      <point x="241" y="168" type="line"/>
    </contour>
  </outline>
</glyph>
<glyph name="tugrik" format="2">
  <advance width="523"/>
  <unicode hex="20AE"/>
  <outline>
    <contour>
      <point x="94" y="199" type="line"/>
      <point x="235" y="221" type="line"/>
      <point x="229" y="205" type="line"/>
      <point x="440" y="236" type="line"/>
      <point x="437" y="318" type="line"/>
      <point x="432" y="322" type="line"/>
      <point x="256" y="296" type="line"/>
      <point x="262" y="311" type="line"/>
      <point x="86" y="286" type="line"/>
      <point x="87" y="205" type="line"/>
    </contour>
    <contour>
      <point x="94" y="69" type="line"/>
      <point x="235" y="91" type="line"/>
      <point x="229" y="74" type="line"/>
      <point x="440" y="106" type="line"/>
      <point x="437" y="189" type="line"/>
      <point x="432" y="193" type="line"/>
      <point x="256" y="166" type="line"/>
      <point x="262" y="181" type="line"/>
      <point x="86" y="157" type="line"/>
      <point x="87" y="74" type="line"/>
    </contour>
    <contour>
      <point x="169" y="0" type="line"/>
      <point x="354" y="0" type="line"/>
      <point x="347" y="168" type="line"/>
      <point x="354" y="495" type="line"/>
      <point x="172" y="495" type="line"/>
      <point x="178" y="149" type="line"/>
    </contour>
    <contour>
      <point x="56" y="365" type="line"/>
      <point x="170" y="371" type="line"/>
      <point x="354" y="371" type="line"/>
      <point x="467" y="365" type="line"/>
      <point x="477" y="500" type="line"/>
      <point x="467" y="513" type="line"/>
      <point x="55" y="513" type="line"/>
      <point x="45" y="378" type="line"/>
    </contour>
  </outline>
</glyph>
<glyph name="hryvnia" format="2">
  <advance width="579"/>
  <unicode hex="20B4"/>
  <outline>
    <contour>
      <point x="295" y="-12" type="curve" smooth="yes"/>
      <point x="361" y="-12"/>
      <point x="424" y="2"/>
      <point x="483" y="29" type="curve"/>
      <point x="471" y="141" type="line"/>
      <point x="454" y="154" type="line"/>
      <point x="409" y="136"/>
      <point x="336" y="119"/>
      <point x="298" y="119" type="curve" smooth="yes"/>
      <point x="279" y="119"/>
      <point x="268" y="126"/>
      <point x="268" y="139" type="curve" smooth="yes"/>
      <point x="268" y="196"/>
      <point x="487" y="208"/>
      <point x="487" y="377" type="curve" smooth="yes"/>
      <point x="487" y="472"/>
      <point x="419" y="523"/>
      <point x="292" y="523" type="curve" smooth="yes"/>
      <point x="227" y="523"/>
      <point x="162" y="513"/>
      <point x="106" y="493" type="curve"/>
      <point x="128" y="368" type="line"/>
      <point x="154" y="360" type="line"/>
      <point x="195" y="374"/>
      <point x="252" y="386"/>
      <point x="282" y="386" type="curve" smooth="yes"/>
      <point x="299" y="386"/>
      <point x="307" y="381"/>
      <point x="307" y="370" type="curve" smooth="yes"/>
      <point x="307" y="314"/>
      <point x="88" y="296"/>
      <point x="88" y="134" type="curve" smooth="yes"/>
      <point x="88" y="40"/>
      <point x="162" y="-12"/>
    </contour>
    <contour>
      <point x="39" y="171" type="line"/>
      <point x="528" y="171" type="line"/>
      <point x="533" y="235" type="line"/>
      <point x="528" y="242" type="line"/>
      <point x="39" y="242" type="line"/>
      <point x="33" y="178" type="line"/>
    </contour>
    <contour>
      <point x="49" y="271" type="line"/>
      <point x="538" y="271" type="line"/>
      <point x="543" y="335" type="line"/>
      <point x="538" y="342" type="line"/>
      <point x="49" y="342" type="line"/>
      <point x="43" y="278" type="line"/>
    </contour>
  </outline>
</glyph>
<glyph name="tenge" format="2">
  <advance width="551"/>
  <unicode hex="20B8"/>
  <outline>
    <contour>
      <point x="186" y="0" type="line"/>
      <point x="371" y="0" type="line"/>
      <point x="364" y="168" type="line"/>
      <point x="367" y="307" type="line"/>
      <point x="192" y="307" type="line"/>
      <point x="195" y="149" type="line"/>
    </contour>
    <contour>
      <point x="49" y="408" type="line"/>
      <point x="493" y="408" type="line"/>
      <point x="508" y="501" type="line"/>
      <point x="500" y="513" type="line"/>
      <point x="58" y="513" type="line"/>
      <point x="43" y="423" type="line"/>
    </contour>
    <contour>
      <point x="49" y="260" type="line"/>
      <point x="493" y="260" type="line"/>
      <point x="508" y="353" type="line"/>
      <point x="500" y="365" type="line"/>
      <point x="58" y="365" type="line"/>
      <point x="43" y="275" type="line"/>
    </contour>
  </outline>
</glyph>
<glyph name="rupeeIndian" format="2">
  <advance width="450"/>
  <unicode hex="20B9"/>
  <outline>
    <contour>
      <point x="296" y="-78" type="curve"/>
      <point x="392" y="-7" type="line"/>
      <point x="392" y="19" type="line"/>
      <point x="338" y="49"/>
      <point x="277" y="88"/>
      <point x="208" y="138" type="curve"/>
      <point x="311" y="245" type="line"/>
      <point x="249" y="258"/>
      <point x="169" y="262"/>
      <point x="71" y="258" type="curve"/>
      <point x="42" y="213" type="line"/>
      <point x="109" y="104"/>
      <point x="193" y="7"/>
    </contour>
    <contour>
      <point x="173" y="76" type="line"/>
      <point x="360" y="192"/>
      <point x="394" y="288"/>
      <point x="297" y="424" type="curve"/>
      <point x="202" y="388" type="line"/>
      <point x="235" y="337"/>
      <point x="201" y="283"/>
      <point x="78" y="190" type="curve"/>
    </contour>
    <contour>
      <point x="8" y="335" type="line"/>
      <point x="452" y="335" type="line"/>
      <point x="458" y="350" type="line"/>
      <point x="443" y="440" type="line"/>
      <point x="1" y="440" type="line"/>
      <point x="-7" y="428" type="line"/>
    </contour>
    <contour>
      <point x="8" y="485" type="line"/>
      <point x="452" y="485" type="line"/>
      <point x="458" y="500" type="line"/>
      <point x="443" y="590" type="line"/>
      <point x="1" y="590" type="line"/>
      <point x="-7" y="578" type="line"/>
    </contour>
  </outline>
</glyph>
<glyph name="numero" format="2">
  <advance width="955"/>
  <unicode hex="2116"/>
  <anchor x="306" y="0" name="bottom"/>
  <anchor x="781" y="194" name="top"/>
  <outline>
    <contour>
      <point x="562" y="516" type="line"/>
      <point x="392" y="506" type="line"/>
      <point x="398" y="277" type="line"/>
      <point x="387" y="277" type="line"/>
      <point x="255" y="513" type="line"/>
      <point x="53" y="513" type="line"/>
      <point x="62" y="150" type="line"/>
      <point x="53" y="0" type="line"/>
      <point x="221" y="0" type="line"/>
      <point x="214" y="190" type="line"/>
      <point x="215" y="236" type="line"/>
      <point x="225" y="236" type="line"/>
      <point x="357" y="0" type="line"/>
      <point x="559" y="0" type="line"/>
      <point x="552" y="172" type="line"/>
    </contour>
    <contour>
      <point x="784" y="522" type="curve" smooth="yes"/>
      <point x="670" y="522"/>
      <point x="613" y="462"/>
      <point x="613" y="344" type="curve" smooth="yes"/>
      <point x="613" y="236"/>
      <point x="666" y="181"/>
      <point x="770" y="181" type="curve" smooth="yes"/>
      <point x="884" y="181"/>
      <point x="941" y="240"/>
      <point x="941" y="359" type="curve" smooth="yes"/>
      <point x="941" y="467"/>
      <point x="888" y="522"/>
    </contour>
    <contour>
      <point x="775" y="429" type="curve" smooth="yes"/>
      <point x="805" y="429"/>
      <point x="812" y="413"/>
      <point x="812" y="342" type="curve" smooth="yes"/>
      <point x="812" y="284"/>
      <point x="806" y="270"/>
      <point x="779" y="270" type="curve" smooth="yes"/>
      <point x="749" y="270"/>
      <point x="743" y="287"/>
      <point x="743" y="361" type="curve" smooth="yes"/>
      <point x="743" y="416"/>
      <point x="748" y="429"/>
    </contour>
  </outline>
</glyph>
<glyph name="trademark" format="2">
  <advance width="598"/>
  <unicode hex="2122"/>
  <outline>
    <contour>
      <point x="539" y="645" type="line"/>
      <point x="431" y="645" type="line"/>
      <point x="423" y="607" type="line"/>
      <point x="408" y="546" type="line"/>
      <point x="402" y="546" type="line"/>
      <point x="389" y="611" type="line"/>
      <point x="383" y="645" type="line"/>
      <point x="274" y="645" type="line"/>
      <point x="249" y="404" type="line"/>
      <point x="328" y="404" type="line"/>
      <point x="331" y="486" type="line"/>
      <point x="334" y="511" type="line"/>
      <point x="339" y="511" type="line"/>
      <point x="364" y="424" type="line"/>
      <point x="434" y="424" type="line"/>
      <point x="467" y="511" type="line"/>
      <point x="472" y="511" type="line"/>
      <point x="474" y="477" type="line"/>
      <point x="475" y="404" type="line"/>
      <point x="558" y="404" type="line"/>
    </contour>
    <contour>
      <point x="171" y="637" type="line"/>
      <point x="80" y="637" type="line"/>
      <point x="83" y="474" type="line"/>
      <point x="78" y="404" type="line"/>
      <point x="171" y="404" type="line"/>
      <point x="167" y="483" type="line"/>
    </contour>
    <contour>
      <point x="224" y="645" type="line"/>
      <point x="25" y="645" type="line"/>
      <point x="20" y="578" type="line"/>
      <point x="26" y="571" type="line"/>
      <point x="81" y="574" type="line"/>
      <point x="169" y="574" type="line"/>
      <point x="224" y="571" type="line"/>
      <point x="229" y="639" type="line"/>
    </contour>
  </outline>
</glyph>
<glyph name="upDownArrow" format="2">
  <advance width="550"/>
  <unicode hex="2195"/>
  <outline>
    <contour>
      <point x="73" y="297" type="line"/>
      <point x="97" y="297" type="line"/>
      <point x="275" y="463" type="line"/>
      <point x="453" y="297" type="line"/>
      <point x="477" y="297" type="line"/>
      <point x="499" y="403" type="line"/>
      <point x="289" y="604" type="line"/>
      <point x="260" y="604" type="line"/>
      <point x="51" y="403" type="line"/>
    </contour>
    <contour>
      <point x="261" y="-132" type="line"/>
      <point x="290" y="-132" type="line"/>
      <point x="499" y="69" type="line"/>
      <point x="477" y="175" type="line"/>
      <point x="453" y="175" type="line"/>
      <point x="275" y="9" type="line"/>
      <point x="97" y="175" type="line"/>
      <point x="73" y="175" type="line"/>
      <point x="51" y="69" type="line"/>
    </contour>
    <contour>
      <point x="215" y="-24" type="line"/>
      <point x="335" y="-24" type="line"/>
      <point x="335" y="496" type="line"/>
      <point x="215" y="496" type="line"/>
    </contour>
  </outline>
</glyph>
<glyph name="minus" format="2">
  <advance width="480"/>
  <unicode hex="2212"/>
  <outline>
    <contour>
      <point x="454" y="320" type="line"/>
      <point x="24" y="320" type="line"/>
      <point x="15" y="203" type="line"/>
      <point x="27" y="190" type="line"/>
      <point x="457" y="190" type="line"/>
      <point x="466" y="307" type="line"/>
    </contour>
  </outline>
</glyph>
<glyph name="saltillo" format="2">
  <advance width="177"/>
  <unicode hex="A78C"/>
  <outline>
    <contour>
      <point x="95" y="143" type="move"/>
    </contour>
    <contour>
      <point x="166" y="548.598" type="line"/>
      <point x="15" y="537.681" type="line"/>
      <point x="25" y="212.597" type="line"/>
      <point x="40" y="199.254" type="line"/>
      <point x="128" y="216.236" type="line"/>
      <point x="176" y="534.042" type="line"/>
    </contour>
  </outline>
</glyph>
